%TF.GenerationSoftware,KiCad,Pcbnew,7.0.2*%
%TF.CreationDate,2023-09-07T17:56:45+02:00*%
%TF.ProjectId,BEP-RFID-cashdrawer,4245502d-5246-4494-942d-636173686472,rev?*%
%TF.SameCoordinates,Original*%
%TF.FileFunction,Drillmap*%
%TF.FilePolarity,Positive*%
%FSLAX45Y45*%
G04 Gerber Fmt 4.5, Leading zero omitted, Abs format (unit mm)*
G04 Created by KiCad (PCBNEW 7.0.2) date 2023-09-07 17:56:45*
%MOMM*%
%LPD*%
G01*
G04 APERTURE LIST*
%ADD10C,0.100000*%
%ADD11C,0.200000*%
%ADD12C,0.320000*%
G04 APERTURE END LIST*
D10*
X12223750Y-10080625D02*
X13731875Y-11588750D01*
X17938750Y-9207500D02*
X18097500Y-9366250D01*
X17383125Y-9207500D02*
X17938750Y-9207500D01*
X17383125Y-8334375D02*
X17303750Y-8413750D01*
X18097500Y-8175625D02*
X18097500Y-7858125D01*
X17938750Y-8334375D02*
X18097500Y-8175625D01*
X17383125Y-8334375D02*
X17938750Y-8334375D01*
X17303750Y-9128125D02*
X17303750Y-8413750D01*
X17383125Y-9207500D02*
X17303750Y-9128125D01*
X12223750Y-6508750D02*
X12541250Y-6191250D01*
X12223750Y-10080625D02*
X12223750Y-6508750D01*
X17700625Y-11588750D02*
X13731875Y-11588750D01*
X18097500Y-11112500D02*
X17700625Y-11588750D01*
X18097500Y-9366250D02*
X18097500Y-11112500D01*
X17780000Y-7540625D02*
X18097500Y-7858125D01*
X17780000Y-6350000D02*
X17780000Y-7540625D01*
X17621250Y-6191250D02*
X17780000Y-6350000D01*
X12541250Y-6191250D02*
X17621250Y-6191250D01*
D11*
D12*
X12540000Y-6317000D02*
X12860000Y-6637000D01*
X12860000Y-6317000D02*
X12540000Y-6637000D01*
X17620000Y-7841000D02*
X17940000Y-8161000D01*
X17940000Y-7841000D02*
X17620000Y-8161000D01*
X17620000Y-10635000D02*
X17940000Y-10955000D01*
X17940000Y-10635000D02*
X17620000Y-10955000D01*
D11*
X12466369Y-11906274D02*
X12466369Y-11706274D01*
X12466369Y-11706274D02*
X12513988Y-11706274D01*
X12513988Y-11706274D02*
X12542559Y-11715798D01*
X12542559Y-11715798D02*
X12561607Y-11734845D01*
X12561607Y-11734845D02*
X12571131Y-11753893D01*
X12571131Y-11753893D02*
X12580655Y-11791988D01*
X12580655Y-11791988D02*
X12580655Y-11820559D01*
X12580655Y-11820559D02*
X12571131Y-11858655D01*
X12571131Y-11858655D02*
X12561607Y-11877702D01*
X12561607Y-11877702D02*
X12542559Y-11896750D01*
X12542559Y-11896750D02*
X12513988Y-11906274D01*
X12513988Y-11906274D02*
X12466369Y-11906274D01*
X12666369Y-11906274D02*
X12666369Y-11772940D01*
X12666369Y-11811036D02*
X12675893Y-11791988D01*
X12675893Y-11791988D02*
X12685417Y-11782464D01*
X12685417Y-11782464D02*
X12704464Y-11772940D01*
X12704464Y-11772940D02*
X12723512Y-11772940D01*
X12790178Y-11906274D02*
X12790178Y-11772940D01*
X12790178Y-11706274D02*
X12780655Y-11715798D01*
X12780655Y-11715798D02*
X12790178Y-11725321D01*
X12790178Y-11725321D02*
X12799702Y-11715798D01*
X12799702Y-11715798D02*
X12790178Y-11706274D01*
X12790178Y-11706274D02*
X12790178Y-11725321D01*
X12913988Y-11906274D02*
X12894940Y-11896750D01*
X12894940Y-11896750D02*
X12885417Y-11877702D01*
X12885417Y-11877702D02*
X12885417Y-11706274D01*
X13018750Y-11906274D02*
X12999702Y-11896750D01*
X12999702Y-11896750D02*
X12990178Y-11877702D01*
X12990178Y-11877702D02*
X12990178Y-11706274D01*
X13247321Y-11906274D02*
X13247321Y-11706274D01*
X13247321Y-11706274D02*
X13313988Y-11849131D01*
X13313988Y-11849131D02*
X13380655Y-11706274D01*
X13380655Y-11706274D02*
X13380655Y-11906274D01*
X13561607Y-11906274D02*
X13561607Y-11801512D01*
X13561607Y-11801512D02*
X13552083Y-11782464D01*
X13552083Y-11782464D02*
X13533036Y-11772940D01*
X13533036Y-11772940D02*
X13494940Y-11772940D01*
X13494940Y-11772940D02*
X13475893Y-11782464D01*
X13561607Y-11896750D02*
X13542559Y-11906274D01*
X13542559Y-11906274D02*
X13494940Y-11906274D01*
X13494940Y-11906274D02*
X13475893Y-11896750D01*
X13475893Y-11896750D02*
X13466369Y-11877702D01*
X13466369Y-11877702D02*
X13466369Y-11858655D01*
X13466369Y-11858655D02*
X13475893Y-11839607D01*
X13475893Y-11839607D02*
X13494940Y-11830083D01*
X13494940Y-11830083D02*
X13542559Y-11830083D01*
X13542559Y-11830083D02*
X13561607Y-11820559D01*
X13656845Y-11772940D02*
X13656845Y-11972940D01*
X13656845Y-11782464D02*
X13675893Y-11772940D01*
X13675893Y-11772940D02*
X13713988Y-11772940D01*
X13713988Y-11772940D02*
X13733036Y-11782464D01*
X13733036Y-11782464D02*
X13742559Y-11791988D01*
X13742559Y-11791988D02*
X13752083Y-11811036D01*
X13752083Y-11811036D02*
X13752083Y-11868178D01*
X13752083Y-11868178D02*
X13742559Y-11887226D01*
X13742559Y-11887226D02*
X13733036Y-11896750D01*
X13733036Y-11896750D02*
X13713988Y-11906274D01*
X13713988Y-11906274D02*
X13675893Y-11906274D01*
X13675893Y-11906274D02*
X13656845Y-11896750D01*
X13837798Y-11887226D02*
X13847321Y-11896750D01*
X13847321Y-11896750D02*
X13837798Y-11906274D01*
X13837798Y-11906274D02*
X13828274Y-11896750D01*
X13828274Y-11896750D02*
X13837798Y-11887226D01*
X13837798Y-11887226D02*
X13837798Y-11906274D01*
X13837798Y-11782464D02*
X13847321Y-11791988D01*
X13847321Y-11791988D02*
X13837798Y-11801512D01*
X13837798Y-11801512D02*
X13828274Y-11791988D01*
X13828274Y-11791988D02*
X13837798Y-11782464D01*
X13837798Y-11782464D02*
X13837798Y-11801512D01*
X12018750Y-12133750D02*
X12218750Y-12333750D01*
X12218750Y-12133750D02*
X12018750Y-12333750D01*
X12447321Y-12126274D02*
X12571131Y-12126274D01*
X12571131Y-12126274D02*
X12504464Y-12202464D01*
X12504464Y-12202464D02*
X12533036Y-12202464D01*
X12533036Y-12202464D02*
X12552083Y-12211988D01*
X12552083Y-12211988D02*
X12561607Y-12221512D01*
X12561607Y-12221512D02*
X12571131Y-12240559D01*
X12571131Y-12240559D02*
X12571131Y-12288178D01*
X12571131Y-12288178D02*
X12561607Y-12307226D01*
X12561607Y-12307226D02*
X12552083Y-12316750D01*
X12552083Y-12316750D02*
X12533036Y-12326274D01*
X12533036Y-12326274D02*
X12475893Y-12326274D01*
X12475893Y-12326274D02*
X12456845Y-12316750D01*
X12456845Y-12316750D02*
X12447321Y-12307226D01*
X12656845Y-12307226D02*
X12666369Y-12316750D01*
X12666369Y-12316750D02*
X12656845Y-12326274D01*
X12656845Y-12326274D02*
X12647321Y-12316750D01*
X12647321Y-12316750D02*
X12656845Y-12307226D01*
X12656845Y-12307226D02*
X12656845Y-12326274D01*
X12742559Y-12145321D02*
X12752083Y-12135798D01*
X12752083Y-12135798D02*
X12771131Y-12126274D01*
X12771131Y-12126274D02*
X12818750Y-12126274D01*
X12818750Y-12126274D02*
X12837798Y-12135798D01*
X12837798Y-12135798D02*
X12847321Y-12145321D01*
X12847321Y-12145321D02*
X12856845Y-12164369D01*
X12856845Y-12164369D02*
X12856845Y-12183417D01*
X12856845Y-12183417D02*
X12847321Y-12211988D01*
X12847321Y-12211988D02*
X12733036Y-12326274D01*
X12733036Y-12326274D02*
X12856845Y-12326274D01*
X12980655Y-12126274D02*
X12999702Y-12126274D01*
X12999702Y-12126274D02*
X13018750Y-12135798D01*
X13018750Y-12135798D02*
X13028274Y-12145321D01*
X13028274Y-12145321D02*
X13037798Y-12164369D01*
X13037798Y-12164369D02*
X13047321Y-12202464D01*
X13047321Y-12202464D02*
X13047321Y-12250083D01*
X13047321Y-12250083D02*
X13037798Y-12288178D01*
X13037798Y-12288178D02*
X13028274Y-12307226D01*
X13028274Y-12307226D02*
X13018750Y-12316750D01*
X13018750Y-12316750D02*
X12999702Y-12326274D01*
X12999702Y-12326274D02*
X12980655Y-12326274D01*
X12980655Y-12326274D02*
X12961607Y-12316750D01*
X12961607Y-12316750D02*
X12952083Y-12307226D01*
X12952083Y-12307226D02*
X12942559Y-12288178D01*
X12942559Y-12288178D02*
X12933036Y-12250083D01*
X12933036Y-12250083D02*
X12933036Y-12202464D01*
X12933036Y-12202464D02*
X12942559Y-12164369D01*
X12942559Y-12164369D02*
X12952083Y-12145321D01*
X12952083Y-12145321D02*
X12961607Y-12135798D01*
X12961607Y-12135798D02*
X12980655Y-12126274D01*
X13171131Y-12126274D02*
X13190179Y-12126274D01*
X13190179Y-12126274D02*
X13209226Y-12135798D01*
X13209226Y-12135798D02*
X13218750Y-12145321D01*
X13218750Y-12145321D02*
X13228274Y-12164369D01*
X13228274Y-12164369D02*
X13237798Y-12202464D01*
X13237798Y-12202464D02*
X13237798Y-12250083D01*
X13237798Y-12250083D02*
X13228274Y-12288178D01*
X13228274Y-12288178D02*
X13218750Y-12307226D01*
X13218750Y-12307226D02*
X13209226Y-12316750D01*
X13209226Y-12316750D02*
X13190179Y-12326274D01*
X13190179Y-12326274D02*
X13171131Y-12326274D01*
X13171131Y-12326274D02*
X13152083Y-12316750D01*
X13152083Y-12316750D02*
X13142559Y-12307226D01*
X13142559Y-12307226D02*
X13133036Y-12288178D01*
X13133036Y-12288178D02*
X13123512Y-12250083D01*
X13123512Y-12250083D02*
X13123512Y-12202464D01*
X13123512Y-12202464D02*
X13133036Y-12164369D01*
X13133036Y-12164369D02*
X13142559Y-12145321D01*
X13142559Y-12145321D02*
X13152083Y-12135798D01*
X13152083Y-12135798D02*
X13171131Y-12126274D01*
X13323512Y-12326274D02*
X13323512Y-12192940D01*
X13323512Y-12211988D02*
X13333036Y-12202464D01*
X13333036Y-12202464D02*
X13352083Y-12192940D01*
X13352083Y-12192940D02*
X13380655Y-12192940D01*
X13380655Y-12192940D02*
X13399702Y-12202464D01*
X13399702Y-12202464D02*
X13409226Y-12221512D01*
X13409226Y-12221512D02*
X13409226Y-12326274D01*
X13409226Y-12221512D02*
X13418750Y-12202464D01*
X13418750Y-12202464D02*
X13437798Y-12192940D01*
X13437798Y-12192940D02*
X13466369Y-12192940D01*
X13466369Y-12192940D02*
X13485417Y-12202464D01*
X13485417Y-12202464D02*
X13494940Y-12221512D01*
X13494940Y-12221512D02*
X13494940Y-12326274D01*
X13590179Y-12326274D02*
X13590179Y-12192940D01*
X13590179Y-12211988D02*
X13599702Y-12202464D01*
X13599702Y-12202464D02*
X13618750Y-12192940D01*
X13618750Y-12192940D02*
X13647321Y-12192940D01*
X13647321Y-12192940D02*
X13666369Y-12202464D01*
X13666369Y-12202464D02*
X13675893Y-12221512D01*
X13675893Y-12221512D02*
X13675893Y-12326274D01*
X13675893Y-12221512D02*
X13685417Y-12202464D01*
X13685417Y-12202464D02*
X13704464Y-12192940D01*
X13704464Y-12192940D02*
X13733036Y-12192940D01*
X13733036Y-12192940D02*
X13752083Y-12202464D01*
X13752083Y-12202464D02*
X13761607Y-12221512D01*
X13761607Y-12221512D02*
X13761607Y-12326274D01*
X14152083Y-12116750D02*
X13980655Y-12373893D01*
X14409226Y-12126274D02*
X14428274Y-12126274D01*
X14428274Y-12126274D02*
X14447322Y-12135798D01*
X14447322Y-12135798D02*
X14456845Y-12145321D01*
X14456845Y-12145321D02*
X14466369Y-12164369D01*
X14466369Y-12164369D02*
X14475893Y-12202464D01*
X14475893Y-12202464D02*
X14475893Y-12250083D01*
X14475893Y-12250083D02*
X14466369Y-12288178D01*
X14466369Y-12288178D02*
X14456845Y-12307226D01*
X14456845Y-12307226D02*
X14447322Y-12316750D01*
X14447322Y-12316750D02*
X14428274Y-12326274D01*
X14428274Y-12326274D02*
X14409226Y-12326274D01*
X14409226Y-12326274D02*
X14390179Y-12316750D01*
X14390179Y-12316750D02*
X14380655Y-12307226D01*
X14380655Y-12307226D02*
X14371131Y-12288178D01*
X14371131Y-12288178D02*
X14361607Y-12250083D01*
X14361607Y-12250083D02*
X14361607Y-12202464D01*
X14361607Y-12202464D02*
X14371131Y-12164369D01*
X14371131Y-12164369D02*
X14380655Y-12145321D01*
X14380655Y-12145321D02*
X14390179Y-12135798D01*
X14390179Y-12135798D02*
X14409226Y-12126274D01*
X14561607Y-12307226D02*
X14571131Y-12316750D01*
X14571131Y-12316750D02*
X14561607Y-12326274D01*
X14561607Y-12326274D02*
X14552083Y-12316750D01*
X14552083Y-12316750D02*
X14561607Y-12307226D01*
X14561607Y-12307226D02*
X14561607Y-12326274D01*
X14761607Y-12326274D02*
X14647322Y-12326274D01*
X14704464Y-12326274D02*
X14704464Y-12126274D01*
X14704464Y-12126274D02*
X14685417Y-12154845D01*
X14685417Y-12154845D02*
X14666369Y-12173893D01*
X14666369Y-12173893D02*
X14647322Y-12183417D01*
X14837798Y-12145321D02*
X14847322Y-12135798D01*
X14847322Y-12135798D02*
X14866369Y-12126274D01*
X14866369Y-12126274D02*
X14913988Y-12126274D01*
X14913988Y-12126274D02*
X14933036Y-12135798D01*
X14933036Y-12135798D02*
X14942560Y-12145321D01*
X14942560Y-12145321D02*
X14952083Y-12164369D01*
X14952083Y-12164369D02*
X14952083Y-12183417D01*
X14952083Y-12183417D02*
X14942560Y-12211988D01*
X14942560Y-12211988D02*
X14828274Y-12326274D01*
X14828274Y-12326274D02*
X14952083Y-12326274D01*
X15123512Y-12126274D02*
X15085417Y-12126274D01*
X15085417Y-12126274D02*
X15066369Y-12135798D01*
X15066369Y-12135798D02*
X15056845Y-12145321D01*
X15056845Y-12145321D02*
X15037798Y-12173893D01*
X15037798Y-12173893D02*
X15028274Y-12211988D01*
X15028274Y-12211988D02*
X15028274Y-12288178D01*
X15028274Y-12288178D02*
X15037798Y-12307226D01*
X15037798Y-12307226D02*
X15047322Y-12316750D01*
X15047322Y-12316750D02*
X15066369Y-12326274D01*
X15066369Y-12326274D02*
X15104464Y-12326274D01*
X15104464Y-12326274D02*
X15123512Y-12316750D01*
X15123512Y-12316750D02*
X15133036Y-12307226D01*
X15133036Y-12307226D02*
X15142560Y-12288178D01*
X15142560Y-12288178D02*
X15142560Y-12240559D01*
X15142560Y-12240559D02*
X15133036Y-12221512D01*
X15133036Y-12221512D02*
X15123512Y-12211988D01*
X15123512Y-12211988D02*
X15104464Y-12202464D01*
X15104464Y-12202464D02*
X15066369Y-12202464D01*
X15066369Y-12202464D02*
X15047322Y-12211988D01*
X15047322Y-12211988D02*
X15037798Y-12221512D01*
X15037798Y-12221512D02*
X15028274Y-12240559D01*
X15266369Y-12126274D02*
X15285417Y-12126274D01*
X15285417Y-12126274D02*
X15304464Y-12135798D01*
X15304464Y-12135798D02*
X15313988Y-12145321D01*
X15313988Y-12145321D02*
X15323512Y-12164369D01*
X15323512Y-12164369D02*
X15333036Y-12202464D01*
X15333036Y-12202464D02*
X15333036Y-12250083D01*
X15333036Y-12250083D02*
X15323512Y-12288178D01*
X15323512Y-12288178D02*
X15313988Y-12307226D01*
X15313988Y-12307226D02*
X15304464Y-12316750D01*
X15304464Y-12316750D02*
X15285417Y-12326274D01*
X15285417Y-12326274D02*
X15266369Y-12326274D01*
X15266369Y-12326274D02*
X15247322Y-12316750D01*
X15247322Y-12316750D02*
X15237798Y-12307226D01*
X15237798Y-12307226D02*
X15228274Y-12288178D01*
X15228274Y-12288178D02*
X15218750Y-12250083D01*
X15218750Y-12250083D02*
X15218750Y-12202464D01*
X15218750Y-12202464D02*
X15228274Y-12164369D01*
X15228274Y-12164369D02*
X15237798Y-12145321D01*
X15237798Y-12145321D02*
X15247322Y-12135798D01*
X15247322Y-12135798D02*
X15266369Y-12126274D01*
X15409226Y-12126274D02*
X15409226Y-12164369D01*
X15485417Y-12126274D02*
X15485417Y-12164369D01*
X15780655Y-12402464D02*
X15771131Y-12392940D01*
X15771131Y-12392940D02*
X15752084Y-12364369D01*
X15752084Y-12364369D02*
X15742560Y-12345321D01*
X15742560Y-12345321D02*
X15733036Y-12316750D01*
X15733036Y-12316750D02*
X15723512Y-12269131D01*
X15723512Y-12269131D02*
X15723512Y-12231036D01*
X15723512Y-12231036D02*
X15733036Y-12183417D01*
X15733036Y-12183417D02*
X15742560Y-12154845D01*
X15742560Y-12154845D02*
X15752084Y-12135798D01*
X15752084Y-12135798D02*
X15771131Y-12107226D01*
X15771131Y-12107226D02*
X15780655Y-12097702D01*
X15837798Y-12126274D02*
X15961607Y-12126274D01*
X15961607Y-12126274D02*
X15894941Y-12202464D01*
X15894941Y-12202464D02*
X15923512Y-12202464D01*
X15923512Y-12202464D02*
X15942560Y-12211988D01*
X15942560Y-12211988D02*
X15952084Y-12221512D01*
X15952084Y-12221512D02*
X15961607Y-12240559D01*
X15961607Y-12240559D02*
X15961607Y-12288178D01*
X15961607Y-12288178D02*
X15952084Y-12307226D01*
X15952084Y-12307226D02*
X15942560Y-12316750D01*
X15942560Y-12316750D02*
X15923512Y-12326274D01*
X15923512Y-12326274D02*
X15866369Y-12326274D01*
X15866369Y-12326274D02*
X15847322Y-12316750D01*
X15847322Y-12316750D02*
X15837798Y-12307226D01*
X16199703Y-12326274D02*
X16199703Y-12126274D01*
X16285417Y-12326274D02*
X16285417Y-12221512D01*
X16285417Y-12221512D02*
X16275893Y-12202464D01*
X16275893Y-12202464D02*
X16256846Y-12192940D01*
X16256846Y-12192940D02*
X16228274Y-12192940D01*
X16228274Y-12192940D02*
X16209226Y-12202464D01*
X16209226Y-12202464D02*
X16199703Y-12211988D01*
X16409226Y-12326274D02*
X16390179Y-12316750D01*
X16390179Y-12316750D02*
X16380655Y-12307226D01*
X16380655Y-12307226D02*
X16371131Y-12288178D01*
X16371131Y-12288178D02*
X16371131Y-12231036D01*
X16371131Y-12231036D02*
X16380655Y-12211988D01*
X16380655Y-12211988D02*
X16390179Y-12202464D01*
X16390179Y-12202464D02*
X16409226Y-12192940D01*
X16409226Y-12192940D02*
X16437798Y-12192940D01*
X16437798Y-12192940D02*
X16456846Y-12202464D01*
X16456846Y-12202464D02*
X16466369Y-12211988D01*
X16466369Y-12211988D02*
X16475893Y-12231036D01*
X16475893Y-12231036D02*
X16475893Y-12288178D01*
X16475893Y-12288178D02*
X16466369Y-12307226D01*
X16466369Y-12307226D02*
X16456846Y-12316750D01*
X16456846Y-12316750D02*
X16437798Y-12326274D01*
X16437798Y-12326274D02*
X16409226Y-12326274D01*
X16590179Y-12326274D02*
X16571131Y-12316750D01*
X16571131Y-12316750D02*
X16561607Y-12297702D01*
X16561607Y-12297702D02*
X16561607Y-12126274D01*
X16742560Y-12316750D02*
X16723512Y-12326274D01*
X16723512Y-12326274D02*
X16685417Y-12326274D01*
X16685417Y-12326274D02*
X16666369Y-12316750D01*
X16666369Y-12316750D02*
X16656846Y-12297702D01*
X16656846Y-12297702D02*
X16656846Y-12221512D01*
X16656846Y-12221512D02*
X16666369Y-12202464D01*
X16666369Y-12202464D02*
X16685417Y-12192940D01*
X16685417Y-12192940D02*
X16723512Y-12192940D01*
X16723512Y-12192940D02*
X16742560Y-12202464D01*
X16742560Y-12202464D02*
X16752084Y-12221512D01*
X16752084Y-12221512D02*
X16752084Y-12240559D01*
X16752084Y-12240559D02*
X16656846Y-12259607D01*
X16828274Y-12316750D02*
X16847322Y-12326274D01*
X16847322Y-12326274D02*
X16885417Y-12326274D01*
X16885417Y-12326274D02*
X16904465Y-12316750D01*
X16904465Y-12316750D02*
X16913989Y-12297702D01*
X16913989Y-12297702D02*
X16913989Y-12288178D01*
X16913989Y-12288178D02*
X16904465Y-12269131D01*
X16904465Y-12269131D02*
X16885417Y-12259607D01*
X16885417Y-12259607D02*
X16856846Y-12259607D01*
X16856846Y-12259607D02*
X16837798Y-12250083D01*
X16837798Y-12250083D02*
X16828274Y-12231036D01*
X16828274Y-12231036D02*
X16828274Y-12221512D01*
X16828274Y-12221512D02*
X16837798Y-12202464D01*
X16837798Y-12202464D02*
X16856846Y-12192940D01*
X16856846Y-12192940D02*
X16885417Y-12192940D01*
X16885417Y-12192940D02*
X16904465Y-12202464D01*
X16980655Y-12402464D02*
X16990179Y-12392940D01*
X16990179Y-12392940D02*
X17009227Y-12364369D01*
X17009227Y-12364369D02*
X17018750Y-12345321D01*
X17018750Y-12345321D02*
X17028274Y-12316750D01*
X17028274Y-12316750D02*
X17037798Y-12269131D01*
X17037798Y-12269131D02*
X17037798Y-12231036D01*
X17037798Y-12231036D02*
X17028274Y-12183417D01*
X17028274Y-12183417D02*
X17018750Y-12154845D01*
X17018750Y-12154845D02*
X17009227Y-12135798D01*
X17009227Y-12135798D02*
X16990179Y-12107226D01*
X16990179Y-12107226D02*
X16980655Y-12097702D01*
X17342560Y-12402464D02*
X17333036Y-12392940D01*
X17333036Y-12392940D02*
X17313989Y-12364369D01*
X17313989Y-12364369D02*
X17304465Y-12345321D01*
X17304465Y-12345321D02*
X17294941Y-12316750D01*
X17294941Y-12316750D02*
X17285417Y-12269131D01*
X17285417Y-12269131D02*
X17285417Y-12231036D01*
X17285417Y-12231036D02*
X17294941Y-12183417D01*
X17294941Y-12183417D02*
X17304465Y-12154845D01*
X17304465Y-12154845D02*
X17313989Y-12135798D01*
X17313989Y-12135798D02*
X17333036Y-12107226D01*
X17333036Y-12107226D02*
X17342560Y-12097702D01*
X17418750Y-12192940D02*
X17418750Y-12326274D01*
X17418750Y-12211988D02*
X17428274Y-12202464D01*
X17428274Y-12202464D02*
X17447322Y-12192940D01*
X17447322Y-12192940D02*
X17475893Y-12192940D01*
X17475893Y-12192940D02*
X17494941Y-12202464D01*
X17494941Y-12202464D02*
X17504465Y-12221512D01*
X17504465Y-12221512D02*
X17504465Y-12326274D01*
X17628274Y-12326274D02*
X17609227Y-12316750D01*
X17609227Y-12316750D02*
X17599703Y-12307226D01*
X17599703Y-12307226D02*
X17590179Y-12288178D01*
X17590179Y-12288178D02*
X17590179Y-12231036D01*
X17590179Y-12231036D02*
X17599703Y-12211988D01*
X17599703Y-12211988D02*
X17609227Y-12202464D01*
X17609227Y-12202464D02*
X17628274Y-12192940D01*
X17628274Y-12192940D02*
X17656846Y-12192940D01*
X17656846Y-12192940D02*
X17675893Y-12202464D01*
X17675893Y-12202464D02*
X17685417Y-12211988D01*
X17685417Y-12211988D02*
X17694941Y-12231036D01*
X17694941Y-12231036D02*
X17694941Y-12288178D01*
X17694941Y-12288178D02*
X17685417Y-12307226D01*
X17685417Y-12307226D02*
X17675893Y-12316750D01*
X17675893Y-12316750D02*
X17656846Y-12326274D01*
X17656846Y-12326274D02*
X17628274Y-12326274D01*
X17752084Y-12192940D02*
X17828274Y-12192940D01*
X17780655Y-12126274D02*
X17780655Y-12297702D01*
X17780655Y-12297702D02*
X17790179Y-12316750D01*
X17790179Y-12316750D02*
X17809227Y-12326274D01*
X17809227Y-12326274D02*
X17828274Y-12326274D01*
X18047322Y-12192940D02*
X18047322Y-12392940D01*
X18047322Y-12202464D02*
X18066370Y-12192940D01*
X18066370Y-12192940D02*
X18104465Y-12192940D01*
X18104465Y-12192940D02*
X18123512Y-12202464D01*
X18123512Y-12202464D02*
X18133036Y-12211988D01*
X18133036Y-12211988D02*
X18142560Y-12231036D01*
X18142560Y-12231036D02*
X18142560Y-12288178D01*
X18142560Y-12288178D02*
X18133036Y-12307226D01*
X18133036Y-12307226D02*
X18123512Y-12316750D01*
X18123512Y-12316750D02*
X18104465Y-12326274D01*
X18104465Y-12326274D02*
X18066370Y-12326274D01*
X18066370Y-12326274D02*
X18047322Y-12316750D01*
X18256846Y-12326274D02*
X18237798Y-12316750D01*
X18237798Y-12316750D02*
X18228274Y-12297702D01*
X18228274Y-12297702D02*
X18228274Y-12126274D01*
X18418751Y-12326274D02*
X18418751Y-12221512D01*
X18418751Y-12221512D02*
X18409227Y-12202464D01*
X18409227Y-12202464D02*
X18390179Y-12192940D01*
X18390179Y-12192940D02*
X18352084Y-12192940D01*
X18352084Y-12192940D02*
X18333036Y-12202464D01*
X18418751Y-12316750D02*
X18399703Y-12326274D01*
X18399703Y-12326274D02*
X18352084Y-12326274D01*
X18352084Y-12326274D02*
X18333036Y-12316750D01*
X18333036Y-12316750D02*
X18323512Y-12297702D01*
X18323512Y-12297702D02*
X18323512Y-12278655D01*
X18323512Y-12278655D02*
X18333036Y-12259607D01*
X18333036Y-12259607D02*
X18352084Y-12250083D01*
X18352084Y-12250083D02*
X18399703Y-12250083D01*
X18399703Y-12250083D02*
X18418751Y-12240559D01*
X18485417Y-12192940D02*
X18561608Y-12192940D01*
X18513989Y-12126274D02*
X18513989Y-12297702D01*
X18513989Y-12297702D02*
X18523512Y-12316750D01*
X18523512Y-12316750D02*
X18542560Y-12326274D01*
X18542560Y-12326274D02*
X18561608Y-12326274D01*
X18704465Y-12316750D02*
X18685417Y-12326274D01*
X18685417Y-12326274D02*
X18647322Y-12326274D01*
X18647322Y-12326274D02*
X18628274Y-12316750D01*
X18628274Y-12316750D02*
X18618751Y-12297702D01*
X18618751Y-12297702D02*
X18618751Y-12221512D01*
X18618751Y-12221512D02*
X18628274Y-12202464D01*
X18628274Y-12202464D02*
X18647322Y-12192940D01*
X18647322Y-12192940D02*
X18685417Y-12192940D01*
X18685417Y-12192940D02*
X18704465Y-12202464D01*
X18704465Y-12202464D02*
X18713989Y-12221512D01*
X18713989Y-12221512D02*
X18713989Y-12240559D01*
X18713989Y-12240559D02*
X18618751Y-12259607D01*
X18885417Y-12326274D02*
X18885417Y-12126274D01*
X18885417Y-12316750D02*
X18866370Y-12326274D01*
X18866370Y-12326274D02*
X18828274Y-12326274D01*
X18828274Y-12326274D02*
X18809227Y-12316750D01*
X18809227Y-12316750D02*
X18799703Y-12307226D01*
X18799703Y-12307226D02*
X18790179Y-12288178D01*
X18790179Y-12288178D02*
X18790179Y-12231036D01*
X18790179Y-12231036D02*
X18799703Y-12211988D01*
X18799703Y-12211988D02*
X18809227Y-12202464D01*
X18809227Y-12202464D02*
X18828274Y-12192940D01*
X18828274Y-12192940D02*
X18866370Y-12192940D01*
X18866370Y-12192940D02*
X18885417Y-12202464D01*
X18961608Y-12402464D02*
X18971132Y-12392940D01*
X18971132Y-12392940D02*
X18990179Y-12364369D01*
X18990179Y-12364369D02*
X18999703Y-12345321D01*
X18999703Y-12345321D02*
X19009227Y-12316750D01*
X19009227Y-12316750D02*
X19018751Y-12269131D01*
X19018751Y-12269131D02*
X19018751Y-12231036D01*
X19018751Y-12231036D02*
X19009227Y-12183417D01*
X19009227Y-12183417D02*
X18999703Y-12154845D01*
X18999703Y-12154845D02*
X18990179Y-12135798D01*
X18990179Y-12135798D02*
X18971132Y-12107226D01*
X18971132Y-12107226D02*
X18961608Y-12097702D01*
M02*
