%TF.GenerationSoftware,KiCad,Pcbnew,7.0.2*%
%TF.CreationDate,2023-09-07T17:56:31+02:00*%
%TF.ProjectId,BEP-RFID-cashdrawer,4245502d-5246-4494-942d-636173686472,rev?*%
%TF.SameCoordinates,Original*%
%TF.FileFunction,Copper,L2,Bot*%
%TF.FilePolarity,Positive*%
%FSLAX46Y46*%
G04 Gerber Fmt 4.6, Leading zero omitted, Abs format (unit mm)*
G04 Created by KiCad (PCBNEW 7.0.2) date 2023-09-07 17:56:31*
%MOMM*%
%LPD*%
G01*
G04 APERTURE LIST*
%TA.AperFunction,ComponentPad*%
%ADD10O,1.727200X1.727200*%
%TD*%
%TA.AperFunction,ComponentPad*%
%ADD11R,1.727200X1.727200*%
%TD*%
%TA.AperFunction,ComponentPad*%
%ADD12O,1.700000X1.700000*%
%TD*%
%TA.AperFunction,ComponentPad*%
%ADD13R,1.700000X1.700000*%
%TD*%
%TA.AperFunction,ViaPad*%
%ADD14C,0.800000*%
%TD*%
%TA.AperFunction,Conductor*%
%ADD15C,0.250000*%
%TD*%
G04 APERTURE END LIST*
D10*
%TO.P,XA1,VIN,VIN*%
%TO.N,POWERIN*%
X157480000Y-113030000D03*
%TO.P,XA1,SDA,SDA*%
%TO.N,unconnected-(XA1-PadSDA)*%
X133096000Y-64770000D03*
%TO.P,XA1,SCL,SCL*%
%TO.N,unconnected-(XA1-PadSCL)*%
X130556000Y-64770000D03*
%TO.P,XA1,RST1,RESET*%
%TO.N,Reset button*%
X144780000Y-113030000D03*
%TO.P,XA1,IORF,IOREF*%
%TO.N,unconnected-(XA1-IOREF-PadIORF)*%
X142240000Y-113030000D03*
D11*
%TO.P,XA1,GND3,GND*%
%TO.N,GND*%
X154940000Y-113030000D03*
%TO.P,XA1,GND2,GND*%
X152400000Y-113030000D03*
%TO.P,XA1,GND1,GND*%
X138176000Y-64770000D03*
D10*
%TO.P,XA1,D13,D13*%
%TO.N,SCK*%
X140716000Y-64770000D03*
%TO.P,XA1,D12,D12*%
%TO.N,MISO*%
X143256000Y-64770000D03*
%TO.P,XA1,D11,D11*%
%TO.N,MOSI*%
X145796000Y-64770000D03*
%TO.P,XA1,D10,D10_CS*%
%TO.N,SDA*%
X148336000Y-64770000D03*
%TO.P,XA1,D9,D9*%
%TO.N,RST*%
X150876000Y-64770000D03*
%TO.P,XA1,D8,D8*%
%TO.N,unconnected-(XA1-PadD8)*%
X153416000Y-64770000D03*
%TO.P,XA1,D7,D7*%
%TO.N,unconnected-(XA1-PadD7)*%
X157480000Y-64770000D03*
%TO.P,XA1,D6,D6*%
%TO.N,Relay*%
X160020000Y-64770000D03*
%TO.P,XA1,D5,D5*%
%TO.N,unconnected-(XA1-PadD5)*%
X162560000Y-64770000D03*
%TO.P,XA1,D4,D4*%
%TO.N,unconnected-(XA1-PadD4)*%
X165100000Y-64770000D03*
%TO.P,XA1,D3,D3_INT1*%
%TO.N,unconnected-(XA1-D3_INT1-PadD3)*%
X167640000Y-64770000D03*
%TO.P,XA1,D2,D2_INT0*%
%TO.N,Bypass*%
X170180000Y-64770000D03*
%TO.P,XA1,D1,D1/TX*%
%TO.N,unconnected-(XA1-D1{slash}TX-PadD1)*%
X172720000Y-64770000D03*
%TO.P,XA1,D0,D0/RX*%
%TO.N,unconnected-(XA1-D0{slash}RX-PadD0)*%
X175260000Y-64770000D03*
%TO.P,XA1,AREF,AREF*%
%TO.N,unconnected-(XA1-PadAREF)*%
X135636000Y-64770000D03*
%TO.P,XA1,A5,A5*%
%TO.N,unconnected-(XA1-PadA5)*%
X175260000Y-113030000D03*
%TO.P,XA1,A4,A4*%
%TO.N,unconnected-(XA1-PadA4)*%
X172720000Y-113030000D03*
%TO.P,XA1,A3,A3*%
%TO.N,unconnected-(XA1-PadA3)*%
X170180000Y-113030000D03*
%TO.P,XA1,A2,A2*%
%TO.N,unconnected-(XA1-PadA2)*%
X167640000Y-113030000D03*
%TO.P,XA1,A1,A1*%
%TO.N,unconnected-(XA1-PadA1)*%
X165100000Y-113030000D03*
%TO.P,XA1,A0,A0*%
%TO.N,unconnected-(XA1-PadA0)*%
X162560000Y-113030000D03*
%TO.P,XA1,5V1,5V*%
%TO.N,+5V*%
X149860000Y-113030000D03*
%TO.P,XA1,3V3,3.3V*%
%TO.N,+3.3V*%
X147320000Y-113030000D03*
%TO.P,XA1,*%
%TO.N,*%
X139700000Y-113030000D03*
%TD*%
D12*
%TO.P,J5,2,Pin_2*%
%TO.N,GND*%
X154622500Y-105568750D03*
D13*
%TO.P,J5,1,Pin_1*%
%TO.N,POWERIN*%
X157162500Y-105568750D03*
%TD*%
D12*
%TO.P,J4,2,Pin_2*%
%TO.N,GND*%
X130175000Y-91440000D03*
D13*
%TO.P,J4,1,Pin_1*%
%TO.N,Bypass*%
X130175000Y-88900000D03*
%TD*%
D12*
%TO.P,J3,2,Pin_2*%
%TO.N,GND*%
X130175000Y-83815000D03*
D13*
%TO.P,J3,1,Pin_1*%
%TO.N,Reset button*%
X130175000Y-81275000D03*
%TD*%
D12*
%TO.P,J2,3,Pin_3*%
%TO.N,GND*%
X130175000Y-76358750D03*
%TO.P,J2,2,Pin_2*%
%TO.N,+5V*%
X130175000Y-73818750D03*
D13*
%TO.P,J2,1,Pin_1*%
%TO.N,Relay*%
X130175000Y-71278750D03*
%TD*%
D12*
%TO.P,J1,8,Pin_8*%
%TO.N,+3.3V*%
X153987500Y-90170000D03*
%TO.P,J1,7,Pin_7*%
%TO.N,RST*%
X153987500Y-87630000D03*
%TO.P,J1,6,Pin_6*%
%TO.N,GND*%
X153987500Y-85090000D03*
%TO.P,J1,5,Pin_5*%
%TO.N,unconnected-(J1-Pin_5-Pad5)*%
X153987500Y-82550000D03*
%TO.P,J1,4,Pin_4*%
%TO.N,MISO*%
X153987500Y-80010000D03*
%TO.P,J1,3,Pin_3*%
%TO.N,MOSI*%
X153987500Y-77470000D03*
%TO.P,J1,2,Pin_2*%
%TO.N,SCK*%
X153987500Y-74930000D03*
D13*
%TO.P,J1,1,Pin_1*%
%TO.N,SDA*%
X153987500Y-72390000D03*
%TD*%
D14*
%TO.N,GND*%
X149488282Y-66689026D03*
X127000000Y-80168750D03*
X155575000Y-93662500D03*
X158750000Y-70643750D03*
X164306250Y-67468750D03*
X172243750Y-68262500D03*
X175418750Y-73818750D03*
X170656250Y-81756250D03*
X170656250Y-89693750D03*
X178593750Y-94456250D03*
X178593750Y-103981250D03*
X173037500Y-109537500D03*
X160337500Y-110331250D03*
X150018750Y-109537500D03*
X136525000Y-109537500D03*
X143668750Y-107950000D03*
X128587500Y-101600000D03*
X133350000Y-96043750D03*
X126206250Y-72231250D03*
X134937500Y-68262500D03*
X138112500Y-75406250D03*
X147637500Y-86518750D03*
X147637500Y-81756250D03*
X147637500Y-76993750D03*
X150018750Y-71437500D03*
X142081250Y-67468750D03*
X144462500Y-67468750D03*
X146843750Y-67468750D03*
%TO.N,RST*%
X151570201Y-78617299D03*
%TO.N,MISO*%
X149225000Y-74612500D03*
%TO.N,MOSI*%
X150812500Y-74612500D03*
%TO.N,SCK*%
X146843750Y-73818750D03*
%TO.N,SDA*%
X150812500Y-69850000D03*
%TD*%
D15*
%TO.N,MISO*%
X143256000Y-68643500D02*
X143256000Y-64770000D01*
X149225000Y-74612500D02*
X143256000Y-68643500D01*
%TO.N,MOSI*%
X150812500Y-74612500D02*
X145796000Y-69596000D01*
X145796000Y-69596000D02*
X145796000Y-64770000D01*
%TO.N,RST*%
X151570201Y-65464201D02*
X150876000Y-64770000D01*
X151570201Y-78617299D02*
X151570201Y-65464201D01*
%TO.N,SCK*%
X146843750Y-73818750D02*
X140716000Y-67691000D01*
X140716000Y-67691000D02*
X140716000Y-64770000D01*
%TO.N,SDA*%
X150812500Y-69850000D02*
X148336000Y-67373500D01*
X148336000Y-67373500D02*
X148336000Y-64770000D01*
%TD*%
%TA.AperFunction,Conductor*%
%TO.N,GND*%
G36*
X154473155Y-112816799D02*
G01*
X154432000Y-112956961D01*
X154432000Y-113103039D01*
X154473155Y-113243201D01*
X154496804Y-113280000D01*
X152843196Y-113280000D01*
X152866845Y-113243201D01*
X152908000Y-113103039D01*
X152908000Y-112956961D01*
X152866845Y-112816799D01*
X152843196Y-112780000D01*
X154496804Y-112780000D01*
X154473155Y-112816799D01*
G37*
%TD.AperFunction*%
%TA.AperFunction,Conductor*%
G36*
X147147905Y-65453754D02*
G01*
X147169809Y-65479033D01*
X147255845Y-65610721D01*
X147408242Y-65776267D01*
X147408954Y-65777040D01*
X147587351Y-65915893D01*
X147645517Y-65947370D01*
X147695107Y-65996588D01*
X147710500Y-66056425D01*
X147710500Y-67290756D01*
X147708235Y-67311266D01*
X147710439Y-67381372D01*
X147710500Y-67385267D01*
X147710500Y-67412850D01*
X147710988Y-67416719D01*
X147710989Y-67416725D01*
X147711004Y-67416843D01*
X147711918Y-67428467D01*
X147713290Y-67472126D01*
X147718879Y-67491360D01*
X147722825Y-67510416D01*
X147725335Y-67530292D01*
X147741414Y-67570904D01*
X147745197Y-67581951D01*
X147757382Y-67623891D01*
X147767580Y-67641135D01*
X147776136Y-67658600D01*
X147783514Y-67677232D01*
X147783515Y-67677233D01*
X147809180Y-67712559D01*
X147815593Y-67722322D01*
X147837826Y-67759916D01*
X147837829Y-67759919D01*
X147837830Y-67759920D01*
X147851995Y-67774085D01*
X147864627Y-67788875D01*
X147876406Y-67805087D01*
X147910058Y-67832926D01*
X147918699Y-67840789D01*
X149873538Y-69795629D01*
X149907023Y-69856952D01*
X149909178Y-69870348D01*
X149926826Y-70038257D01*
X149985320Y-70218284D01*
X150079966Y-70382216D01*
X150206629Y-70522889D01*
X150359769Y-70634151D01*
X150532697Y-70711144D01*
X150717852Y-70750500D01*
X150820701Y-70750500D01*
X150887740Y-70770185D01*
X150933495Y-70822989D01*
X150944701Y-70874500D01*
X150944701Y-73560747D01*
X150925016Y-73627786D01*
X150872212Y-73673541D01*
X150803054Y-73683485D01*
X150739498Y-73654460D01*
X150733020Y-73648428D01*
X146457819Y-69373227D01*
X146424334Y-69311904D01*
X146421500Y-69285546D01*
X146421500Y-66056425D01*
X146441185Y-65989386D01*
X146486481Y-65947371D01*
X146544649Y-65915893D01*
X146723046Y-65777040D01*
X146876156Y-65610719D01*
X146962190Y-65479033D01*
X147015338Y-65433676D01*
X147084569Y-65424252D01*
X147147905Y-65453754D01*
G37*
%TD.AperFunction*%
%TA.AperFunction,Conductor*%
G36*
X144607905Y-65453754D02*
G01*
X144629809Y-65479033D01*
X144715845Y-65610721D01*
X144868242Y-65776267D01*
X144868954Y-65777040D01*
X145047351Y-65915893D01*
X145105517Y-65947370D01*
X145155107Y-65996588D01*
X145170500Y-66056425D01*
X145170500Y-69374046D01*
X145150815Y-69441085D01*
X145098011Y-69486840D01*
X145028853Y-69496784D01*
X144965297Y-69467759D01*
X144958819Y-69461727D01*
X143917819Y-68420728D01*
X143884334Y-68359405D01*
X143881500Y-68333047D01*
X143881500Y-66056425D01*
X143901185Y-65989386D01*
X143946481Y-65947371D01*
X144004649Y-65915893D01*
X144183046Y-65777040D01*
X144336156Y-65610719D01*
X144422190Y-65479033D01*
X144475338Y-65433676D01*
X144544569Y-65424252D01*
X144607905Y-65453754D01*
G37*
%TD.AperFunction*%
%TA.AperFunction,Conductor*%
G36*
X149687905Y-65453754D02*
G01*
X149709809Y-65479033D01*
X149795845Y-65610721D01*
X149948950Y-65777037D01*
X149948954Y-65777040D01*
X150127351Y-65915893D01*
X150326169Y-66023488D01*
X150539986Y-66096891D01*
X150762967Y-66134100D01*
X150820701Y-66134100D01*
X150887740Y-66153785D01*
X150933495Y-66206589D01*
X150944701Y-66258100D01*
X150944701Y-68798248D01*
X150925016Y-68865287D01*
X150872212Y-68911042D01*
X150803054Y-68920986D01*
X150739498Y-68891961D01*
X150733020Y-68885929D01*
X148997819Y-67150728D01*
X148964334Y-67089405D01*
X148961500Y-67063047D01*
X148961500Y-66056425D01*
X148981185Y-65989386D01*
X149026481Y-65947371D01*
X149084649Y-65915893D01*
X149263046Y-65777040D01*
X149416156Y-65610719D01*
X149502190Y-65479033D01*
X149555338Y-65433676D01*
X149624569Y-65424252D01*
X149687905Y-65453754D01*
G37*
%TD.AperFunction*%
%TA.AperFunction,Conductor*%
G36*
X142067905Y-65453754D02*
G01*
X142089809Y-65479033D01*
X142175845Y-65610721D01*
X142328242Y-65776267D01*
X142328954Y-65777040D01*
X142507351Y-65915893D01*
X142565517Y-65947370D01*
X142615107Y-65996588D01*
X142630500Y-66056425D01*
X142630500Y-68421547D01*
X142610815Y-68488586D01*
X142558011Y-68534341D01*
X142488853Y-68544285D01*
X142425297Y-68515260D01*
X142418819Y-68509228D01*
X141377819Y-67468228D01*
X141344334Y-67406905D01*
X141341500Y-67380547D01*
X141341500Y-66056425D01*
X141361185Y-65989386D01*
X141406481Y-65947371D01*
X141464649Y-65915893D01*
X141643046Y-65777040D01*
X141796156Y-65610719D01*
X141882190Y-65479033D01*
X141935338Y-65433676D01*
X142004569Y-65424252D01*
X142067905Y-65453754D01*
G37*
%TD.AperFunction*%
%TA.AperFunction,Conductor*%
G36*
X176227969Y-61932685D02*
G01*
X176248611Y-61949318D01*
X177763182Y-63463890D01*
X177796666Y-63525211D01*
X177799500Y-63551569D01*
X177799500Y-75381618D01*
X177799419Y-75382024D01*
X177799457Y-75406249D01*
X177799576Y-75406533D01*
X177799617Y-75406633D01*
X177810962Y-75417920D01*
X180938181Y-78545138D01*
X180971666Y-78606461D01*
X180974500Y-78632819D01*
X180974500Y-81704680D01*
X180954815Y-81771719D01*
X180938181Y-81792361D01*
X179423611Y-83306931D01*
X179362288Y-83340416D01*
X179335930Y-83343250D01*
X173856105Y-83343250D01*
X173855915Y-83343211D01*
X173831247Y-83343207D01*
X173830865Y-83343367D01*
X173813663Y-83360569D01*
X173813545Y-83360745D01*
X173054495Y-84119795D01*
X173054319Y-84119913D01*
X173037117Y-84137115D01*
X173036957Y-84137497D01*
X173036961Y-84162165D01*
X173037000Y-84162355D01*
X173037000Y-91256618D01*
X173036919Y-91257024D01*
X173036957Y-91281249D01*
X173037076Y-91281533D01*
X173037117Y-91281633D01*
X173048461Y-91292919D01*
X173813381Y-92057839D01*
X173813675Y-92058279D01*
X173830870Y-92075386D01*
X173831244Y-92075542D01*
X173831249Y-92075541D01*
X173831250Y-92075542D01*
X173831250Y-92075541D01*
X173855915Y-92075538D01*
X173856105Y-92075500D01*
X179335930Y-92075500D01*
X179402969Y-92095185D01*
X179423611Y-92111819D01*
X180938180Y-93626388D01*
X180971665Y-93687711D01*
X180974499Y-93714069D01*
X180974500Y-111079924D01*
X180954815Y-111146963D01*
X180945759Y-111159307D01*
X177043197Y-115842383D01*
X176985158Y-115881282D01*
X176947938Y-115887000D01*
X137370319Y-115887000D01*
X137303280Y-115867315D01*
X137282638Y-115850681D01*
X134461957Y-113030000D01*
X138331224Y-113030000D01*
X138349892Y-113255288D01*
X138405390Y-113474443D01*
X138496196Y-113681462D01*
X138619847Y-113870724D01*
X138772950Y-114037037D01*
X138772954Y-114037040D01*
X138951351Y-114175893D01*
X139150169Y-114283488D01*
X139363986Y-114356891D01*
X139586967Y-114394100D01*
X139586968Y-114394100D01*
X139813032Y-114394100D01*
X139813033Y-114394100D01*
X140036014Y-114356891D01*
X140249831Y-114283488D01*
X140448649Y-114175893D01*
X140627046Y-114037040D01*
X140681814Y-113977547D01*
X140780154Y-113870721D01*
X140780153Y-113870721D01*
X140780156Y-113870719D01*
X140866190Y-113739033D01*
X140919338Y-113693676D01*
X140988569Y-113684252D01*
X141051905Y-113713754D01*
X141073809Y-113739033D01*
X141159845Y-113870721D01*
X141312950Y-114037037D01*
X141312954Y-114037040D01*
X141491351Y-114175893D01*
X141690169Y-114283488D01*
X141903986Y-114356891D01*
X142126967Y-114394100D01*
X142126968Y-114394100D01*
X142353032Y-114394100D01*
X142353033Y-114394100D01*
X142576014Y-114356891D01*
X142789831Y-114283488D01*
X142988649Y-114175893D01*
X143167046Y-114037040D01*
X143221814Y-113977547D01*
X143320154Y-113870721D01*
X143320153Y-113870721D01*
X143320156Y-113870719D01*
X143406190Y-113739033D01*
X143459338Y-113693676D01*
X143528569Y-113684252D01*
X143591905Y-113713754D01*
X143613809Y-113739033D01*
X143699845Y-113870721D01*
X143852950Y-114037037D01*
X143852954Y-114037040D01*
X144031351Y-114175893D01*
X144230169Y-114283488D01*
X144443986Y-114356891D01*
X144666967Y-114394100D01*
X144666968Y-114394100D01*
X144893032Y-114394100D01*
X144893033Y-114394100D01*
X145116014Y-114356891D01*
X145329831Y-114283488D01*
X145528649Y-114175893D01*
X145707046Y-114037040D01*
X145761814Y-113977547D01*
X145860154Y-113870721D01*
X145860153Y-113870721D01*
X145860156Y-113870719D01*
X145946190Y-113739033D01*
X145999338Y-113693676D01*
X146068569Y-113684252D01*
X146131905Y-113713754D01*
X146153809Y-113739033D01*
X146239845Y-113870721D01*
X146392950Y-114037037D01*
X146392954Y-114037040D01*
X146571351Y-114175893D01*
X146770169Y-114283488D01*
X146983986Y-114356891D01*
X147206967Y-114394100D01*
X147206968Y-114394100D01*
X147433032Y-114394100D01*
X147433033Y-114394100D01*
X147656014Y-114356891D01*
X147869831Y-114283488D01*
X148068649Y-114175893D01*
X148247046Y-114037040D01*
X148301814Y-113977547D01*
X148400154Y-113870721D01*
X148400153Y-113870721D01*
X148400156Y-113870719D01*
X148486190Y-113739033D01*
X148539338Y-113693676D01*
X148608569Y-113684252D01*
X148671905Y-113713754D01*
X148693809Y-113739033D01*
X148779845Y-113870721D01*
X148932950Y-114037037D01*
X148932954Y-114037040D01*
X149111351Y-114175893D01*
X149310169Y-114283488D01*
X149523986Y-114356891D01*
X149746967Y-114394100D01*
X149746968Y-114394100D01*
X149973032Y-114394100D01*
X149973033Y-114394100D01*
X150196014Y-114356891D01*
X150409831Y-114283488D01*
X150608649Y-114175893D01*
X150787046Y-114037040D01*
X150841813Y-113977546D01*
X150901700Y-113941556D01*
X150971538Y-113943656D01*
X151029154Y-113983179D01*
X151049225Y-114018196D01*
X151093047Y-114135688D01*
X151179211Y-114250788D01*
X151294310Y-114336952D01*
X151429028Y-114387199D01*
X151485267Y-114393245D01*
X151491882Y-114393600D01*
X152150000Y-114393600D01*
X152150000Y-113474297D01*
X152255408Y-113522435D01*
X152363666Y-113538000D01*
X152436334Y-113538000D01*
X152544592Y-113522435D01*
X152650000Y-113474297D01*
X152650000Y-114393600D01*
X153308118Y-114393600D01*
X153314732Y-114393245D01*
X153370971Y-114387199D01*
X153505688Y-114336952D01*
X153595689Y-114269578D01*
X153661153Y-114245161D01*
X153729426Y-114260012D01*
X153744311Y-114269578D01*
X153834311Y-114336952D01*
X153969028Y-114387199D01*
X154025267Y-114393245D01*
X154031882Y-114393600D01*
X154690000Y-114393600D01*
X154690000Y-113474297D01*
X154795408Y-113522435D01*
X154903666Y-113538000D01*
X154976334Y-113538000D01*
X155084592Y-113522435D01*
X155190000Y-113474297D01*
X155190000Y-114393600D01*
X155848118Y-114393600D01*
X155854732Y-114393245D01*
X155910971Y-114387199D01*
X156045689Y-114336952D01*
X156160788Y-114250788D01*
X156246952Y-114135688D01*
X156290774Y-114018196D01*
X156332645Y-113962263D01*
X156398109Y-113937845D01*
X156466382Y-113952696D01*
X156498184Y-113977545D01*
X156552954Y-114037040D01*
X156731351Y-114175893D01*
X156930169Y-114283488D01*
X157143986Y-114356891D01*
X157366967Y-114394100D01*
X157366968Y-114394100D01*
X157593032Y-114394100D01*
X157593033Y-114394100D01*
X157816014Y-114356891D01*
X158029831Y-114283488D01*
X158228649Y-114175893D01*
X158407046Y-114037040D01*
X158456629Y-113983179D01*
X158560152Y-113870724D01*
X158560153Y-113870721D01*
X158560156Y-113870719D01*
X158683802Y-113681465D01*
X158774611Y-113474441D01*
X158830107Y-113255293D01*
X158848775Y-113030000D01*
X161191224Y-113030000D01*
X161209892Y-113255288D01*
X161265390Y-113474443D01*
X161356196Y-113681462D01*
X161479847Y-113870724D01*
X161632950Y-114037037D01*
X161632954Y-114037040D01*
X161811351Y-114175893D01*
X162010169Y-114283488D01*
X162223986Y-114356891D01*
X162446967Y-114394100D01*
X162446968Y-114394100D01*
X162673032Y-114394100D01*
X162673033Y-114394100D01*
X162896014Y-114356891D01*
X163109831Y-114283488D01*
X163308649Y-114175893D01*
X163487046Y-114037040D01*
X163541814Y-113977547D01*
X163640154Y-113870721D01*
X163640153Y-113870721D01*
X163640156Y-113870719D01*
X163726190Y-113739033D01*
X163779338Y-113693676D01*
X163848569Y-113684252D01*
X163911905Y-113713754D01*
X163933809Y-113739033D01*
X164019845Y-113870721D01*
X164172950Y-114037037D01*
X164172954Y-114037040D01*
X164351351Y-114175893D01*
X164550169Y-114283488D01*
X164763986Y-114356891D01*
X164986967Y-114394100D01*
X164986968Y-114394100D01*
X165213032Y-114394100D01*
X165213033Y-114394100D01*
X165436014Y-114356891D01*
X165649831Y-114283488D01*
X165848649Y-114175893D01*
X166027046Y-114037040D01*
X166081814Y-113977547D01*
X166180154Y-113870721D01*
X166180153Y-113870721D01*
X166180156Y-113870719D01*
X166266190Y-113739033D01*
X166319338Y-113693676D01*
X166388569Y-113684252D01*
X166451905Y-113713754D01*
X166473809Y-113739033D01*
X166559845Y-113870721D01*
X166712950Y-114037037D01*
X166712954Y-114037040D01*
X166891351Y-114175893D01*
X167090169Y-114283488D01*
X167303986Y-114356891D01*
X167526967Y-114394100D01*
X167526968Y-114394100D01*
X167753032Y-114394100D01*
X167753033Y-114394100D01*
X167976014Y-114356891D01*
X168189831Y-114283488D01*
X168388649Y-114175893D01*
X168567046Y-114037040D01*
X168621814Y-113977547D01*
X168720154Y-113870721D01*
X168720153Y-113870721D01*
X168720156Y-113870719D01*
X168806190Y-113739033D01*
X168859338Y-113693676D01*
X168928569Y-113684252D01*
X168991905Y-113713754D01*
X169013809Y-113739033D01*
X169099845Y-113870721D01*
X169252950Y-114037037D01*
X169252954Y-114037040D01*
X169431351Y-114175893D01*
X169630169Y-114283488D01*
X169843986Y-114356891D01*
X170066967Y-114394100D01*
X170066968Y-114394100D01*
X170293032Y-114394100D01*
X170293033Y-114394100D01*
X170516014Y-114356891D01*
X170729831Y-114283488D01*
X170928649Y-114175893D01*
X171107046Y-114037040D01*
X171161814Y-113977547D01*
X171260154Y-113870721D01*
X171260153Y-113870721D01*
X171260156Y-113870719D01*
X171346190Y-113739033D01*
X171399338Y-113693676D01*
X171468569Y-113684252D01*
X171531905Y-113713754D01*
X171553809Y-113739033D01*
X171639845Y-113870721D01*
X171792950Y-114037037D01*
X171792954Y-114037040D01*
X171971351Y-114175893D01*
X172170169Y-114283488D01*
X172383986Y-114356891D01*
X172606967Y-114394100D01*
X172606968Y-114394100D01*
X172833032Y-114394100D01*
X172833033Y-114394100D01*
X173056014Y-114356891D01*
X173269831Y-114283488D01*
X173468649Y-114175893D01*
X173647046Y-114037040D01*
X173701814Y-113977547D01*
X173800154Y-113870721D01*
X173800153Y-113870721D01*
X173800156Y-113870719D01*
X173886190Y-113739033D01*
X173939338Y-113693676D01*
X174008569Y-113684252D01*
X174071905Y-113713754D01*
X174093809Y-113739033D01*
X174179845Y-113870721D01*
X174332950Y-114037037D01*
X174332954Y-114037040D01*
X174511351Y-114175893D01*
X174710169Y-114283488D01*
X174923986Y-114356891D01*
X175146967Y-114394100D01*
X175146968Y-114394100D01*
X175373032Y-114394100D01*
X175373033Y-114394100D01*
X175596014Y-114356891D01*
X175809831Y-114283488D01*
X176008649Y-114175893D01*
X176187046Y-114037040D01*
X176236629Y-113983179D01*
X176340152Y-113870724D01*
X176340153Y-113870721D01*
X176340156Y-113870719D01*
X176463802Y-113681465D01*
X176554611Y-113474441D01*
X176610107Y-113255293D01*
X176628775Y-113030000D01*
X176610107Y-112804707D01*
X176554611Y-112585559D01*
X176463802Y-112378535D01*
X176340156Y-112189281D01*
X176340155Y-112189280D01*
X176340152Y-112189275D01*
X176187049Y-112022962D01*
X176008650Y-111884108D01*
X176008649Y-111884107D01*
X175809831Y-111776512D01*
X175809830Y-111776511D01*
X175809827Y-111776510D01*
X175596016Y-111703109D01*
X175414382Y-111672800D01*
X175373033Y-111665900D01*
X175146967Y-111665900D01*
X175105618Y-111672800D01*
X174923983Y-111703109D01*
X174710172Y-111776510D01*
X174511349Y-111884108D01*
X174332950Y-112022962D01*
X174179845Y-112189278D01*
X174093809Y-112320967D01*
X174040662Y-112366324D01*
X173971431Y-112375748D01*
X173908095Y-112346246D01*
X173886191Y-112320967D01*
X173800154Y-112189278D01*
X173647049Y-112022962D01*
X173468650Y-111884108D01*
X173468649Y-111884107D01*
X173269831Y-111776512D01*
X173269830Y-111776511D01*
X173269827Y-111776510D01*
X173056016Y-111703109D01*
X172874382Y-111672800D01*
X172833033Y-111665900D01*
X172606967Y-111665900D01*
X172565618Y-111672800D01*
X172383983Y-111703109D01*
X172170172Y-111776510D01*
X171971349Y-111884108D01*
X171792950Y-112022962D01*
X171639845Y-112189278D01*
X171553809Y-112320967D01*
X171500662Y-112366324D01*
X171431431Y-112375748D01*
X171368095Y-112346246D01*
X171346191Y-112320967D01*
X171260154Y-112189278D01*
X171107049Y-112022962D01*
X170928650Y-111884108D01*
X170928649Y-111884107D01*
X170729831Y-111776512D01*
X170729830Y-111776511D01*
X170729827Y-111776510D01*
X170516016Y-111703109D01*
X170334382Y-111672800D01*
X170293033Y-111665900D01*
X170066967Y-111665900D01*
X170025618Y-111672800D01*
X169843983Y-111703109D01*
X169630172Y-111776510D01*
X169431349Y-111884108D01*
X169252950Y-112022962D01*
X169099845Y-112189278D01*
X169013809Y-112320967D01*
X168960662Y-112366324D01*
X168891431Y-112375748D01*
X168828095Y-112346246D01*
X168806191Y-112320967D01*
X168720154Y-112189278D01*
X168567049Y-112022962D01*
X168388650Y-111884108D01*
X168388649Y-111884107D01*
X168189831Y-111776512D01*
X168189830Y-111776511D01*
X168189827Y-111776510D01*
X167976016Y-111703109D01*
X167794382Y-111672800D01*
X167753033Y-111665900D01*
X167526967Y-111665900D01*
X167485618Y-111672800D01*
X167303983Y-111703109D01*
X167090172Y-111776510D01*
X166891349Y-111884108D01*
X166712950Y-112022962D01*
X166559845Y-112189278D01*
X166473809Y-112320967D01*
X166420662Y-112366324D01*
X166351431Y-112375748D01*
X166288095Y-112346246D01*
X166266191Y-112320967D01*
X166180154Y-112189278D01*
X166027049Y-112022962D01*
X165848650Y-111884108D01*
X165848649Y-111884107D01*
X165649831Y-111776512D01*
X165649830Y-111776511D01*
X165649827Y-111776510D01*
X165436016Y-111703109D01*
X165254382Y-111672800D01*
X165213033Y-111665900D01*
X164986967Y-111665900D01*
X164945618Y-111672800D01*
X164763983Y-111703109D01*
X164550172Y-111776510D01*
X164351349Y-111884108D01*
X164172950Y-112022962D01*
X164019845Y-112189278D01*
X163933809Y-112320967D01*
X163880662Y-112366324D01*
X163811431Y-112375748D01*
X163748095Y-112346246D01*
X163726191Y-112320967D01*
X163640154Y-112189278D01*
X163487049Y-112022962D01*
X163308650Y-111884108D01*
X163308649Y-111884107D01*
X163109831Y-111776512D01*
X163109830Y-111776511D01*
X163109827Y-111776510D01*
X162896016Y-111703109D01*
X162714382Y-111672800D01*
X162673033Y-111665900D01*
X162446967Y-111665900D01*
X162405618Y-111672800D01*
X162223983Y-111703109D01*
X162010172Y-111776510D01*
X161811349Y-111884108D01*
X161632950Y-112022962D01*
X161479847Y-112189275D01*
X161356196Y-112378537D01*
X161265390Y-112585556D01*
X161209892Y-112804711D01*
X161191224Y-113030000D01*
X158848775Y-113030000D01*
X158830107Y-112804707D01*
X158774611Y-112585559D01*
X158683802Y-112378535D01*
X158560156Y-112189281D01*
X158560155Y-112189280D01*
X158560152Y-112189275D01*
X158407049Y-112022962D01*
X158228650Y-111884108D01*
X158228649Y-111884107D01*
X158029831Y-111776512D01*
X158029830Y-111776511D01*
X158029827Y-111776510D01*
X157816016Y-111703109D01*
X157634382Y-111672800D01*
X157593033Y-111665900D01*
X157366967Y-111665900D01*
X157325618Y-111672800D01*
X157143983Y-111703109D01*
X156930172Y-111776510D01*
X156731349Y-111884108D01*
X156552953Y-112022960D01*
X156498184Y-112082454D01*
X156438297Y-112118443D01*
X156368459Y-112116342D01*
X156310843Y-112076816D01*
X156290774Y-112041802D01*
X156246952Y-111924311D01*
X156160788Y-111809211D01*
X156045689Y-111723047D01*
X155910971Y-111672800D01*
X155854732Y-111666754D01*
X155848118Y-111666400D01*
X155190000Y-111666400D01*
X155190000Y-112585702D01*
X155084592Y-112537565D01*
X154976334Y-112522000D01*
X154903666Y-112522000D01*
X154795408Y-112537565D01*
X154690000Y-112585702D01*
X154690000Y-111666400D01*
X154031882Y-111666400D01*
X154025267Y-111666754D01*
X153969028Y-111672800D01*
X153834310Y-111723047D01*
X153744311Y-111790421D01*
X153678846Y-111814838D01*
X153610573Y-111799986D01*
X153595689Y-111790421D01*
X153505689Y-111723047D01*
X153370971Y-111672800D01*
X153314732Y-111666754D01*
X153308118Y-111666400D01*
X152650000Y-111666400D01*
X152650000Y-112585702D01*
X152544592Y-112537565D01*
X152436334Y-112522000D01*
X152363666Y-112522000D01*
X152255408Y-112537565D01*
X152150000Y-112585702D01*
X152150000Y-111666400D01*
X151491882Y-111666400D01*
X151485267Y-111666754D01*
X151429028Y-111672800D01*
X151294310Y-111723047D01*
X151179211Y-111809211D01*
X151093047Y-111924311D01*
X151049225Y-112041803D01*
X151007353Y-112097736D01*
X150941889Y-112122153D01*
X150873616Y-112107301D01*
X150841814Y-112082453D01*
X150804391Y-112041802D01*
X150787046Y-112022960D01*
X150608649Y-111884107D01*
X150409831Y-111776512D01*
X150409830Y-111776511D01*
X150409827Y-111776510D01*
X150196016Y-111703109D01*
X150014382Y-111672800D01*
X149973033Y-111665900D01*
X149746967Y-111665900D01*
X149705618Y-111672800D01*
X149523983Y-111703109D01*
X149310172Y-111776510D01*
X149111349Y-111884108D01*
X148932950Y-112022962D01*
X148779845Y-112189278D01*
X148693809Y-112320967D01*
X148640662Y-112366324D01*
X148571431Y-112375748D01*
X148508095Y-112346246D01*
X148486191Y-112320967D01*
X148400154Y-112189278D01*
X148247049Y-112022962D01*
X148068650Y-111884108D01*
X148068649Y-111884107D01*
X147869831Y-111776512D01*
X147869830Y-111776511D01*
X147869827Y-111776510D01*
X147656016Y-111703109D01*
X147474382Y-111672800D01*
X147433033Y-111665900D01*
X147206967Y-111665900D01*
X147165618Y-111672800D01*
X146983983Y-111703109D01*
X146770172Y-111776510D01*
X146571349Y-111884108D01*
X146392950Y-112022962D01*
X146239845Y-112189278D01*
X146153809Y-112320967D01*
X146100662Y-112366324D01*
X146031431Y-112375748D01*
X145968095Y-112346246D01*
X145946191Y-112320967D01*
X145860154Y-112189278D01*
X145707049Y-112022962D01*
X145528650Y-111884108D01*
X145528649Y-111884107D01*
X145329831Y-111776512D01*
X145329830Y-111776511D01*
X145329827Y-111776510D01*
X145116016Y-111703109D01*
X144934382Y-111672800D01*
X144893033Y-111665900D01*
X144666967Y-111665900D01*
X144625618Y-111672800D01*
X144443983Y-111703109D01*
X144230172Y-111776510D01*
X144031349Y-111884108D01*
X143852950Y-112022962D01*
X143699845Y-112189278D01*
X143613809Y-112320967D01*
X143560662Y-112366324D01*
X143491431Y-112375748D01*
X143428095Y-112346246D01*
X143406191Y-112320967D01*
X143320154Y-112189278D01*
X143167049Y-112022962D01*
X142988650Y-111884108D01*
X142988649Y-111884107D01*
X142789831Y-111776512D01*
X142789830Y-111776511D01*
X142789827Y-111776510D01*
X142576016Y-111703109D01*
X142394382Y-111672800D01*
X142353033Y-111665900D01*
X142126967Y-111665900D01*
X142085618Y-111672800D01*
X141903983Y-111703109D01*
X141690172Y-111776510D01*
X141491349Y-111884108D01*
X141312950Y-112022962D01*
X141159845Y-112189278D01*
X141073809Y-112320967D01*
X141020662Y-112366324D01*
X140951431Y-112375748D01*
X140888095Y-112346246D01*
X140866191Y-112320967D01*
X140780154Y-112189278D01*
X140627049Y-112022962D01*
X140448650Y-111884108D01*
X140448649Y-111884107D01*
X140249831Y-111776512D01*
X140249830Y-111776511D01*
X140249827Y-111776510D01*
X140036016Y-111703109D01*
X139854382Y-111672800D01*
X139813033Y-111665900D01*
X139586967Y-111665900D01*
X139545618Y-111672800D01*
X139363983Y-111703109D01*
X139150172Y-111776510D01*
X138951349Y-111884108D01*
X138772950Y-112022962D01*
X138619847Y-112189275D01*
X138496196Y-112378537D01*
X138405390Y-112585556D01*
X138349892Y-112804711D01*
X138331224Y-113030000D01*
X134461957Y-113030000D01*
X129449722Y-108017764D01*
X175945787Y-108017764D01*
X175975413Y-108287016D01*
X176043928Y-108549087D01*
X176149871Y-108798392D01*
X176290982Y-109029611D01*
X176380253Y-109136881D01*
X176464255Y-109237820D01*
X176665998Y-109418582D01*
X176891910Y-109568044D01*
X176998211Y-109617876D01*
X177137177Y-109683021D01*
X177396562Y-109761058D01*
X177396569Y-109761060D01*
X177664561Y-109800500D01*
X177664564Y-109800500D01*
X177865369Y-109800500D01*
X177867631Y-109800500D01*
X178070156Y-109785677D01*
X178334553Y-109726780D01*
X178587558Y-109630014D01*
X178823777Y-109497441D01*
X179038177Y-109331888D01*
X179226186Y-109136881D01*
X179383799Y-108916579D01*
X179507656Y-108675675D01*
X179595118Y-108419305D01*
X179644319Y-108152933D01*
X179654212Y-107882235D01*
X179624586Y-107612982D01*
X179556072Y-107350912D01*
X179450130Y-107101610D01*
X179309018Y-106870390D01*
X179309017Y-106870388D01*
X179135746Y-106662181D01*
X179074000Y-106606856D01*
X178934002Y-106481418D01*
X178708090Y-106331956D01*
X178708086Y-106331954D01*
X178462822Y-106216978D01*
X178203437Y-106138941D01*
X178203431Y-106138940D01*
X177935439Y-106099500D01*
X177732369Y-106099500D01*
X177730120Y-106099664D01*
X177730109Y-106099665D01*
X177529843Y-106114322D01*
X177265449Y-106173219D01*
X177012441Y-106269986D01*
X176776223Y-106402559D01*
X176561825Y-106568109D01*
X176373813Y-106763120D01*
X176216201Y-106983420D01*
X176092342Y-107224329D01*
X176004881Y-107480695D01*
X175955680Y-107747066D01*
X175945787Y-108017764D01*
X129449722Y-108017764D01*
X127250708Y-105818750D01*
X153291864Y-105818750D01*
X153349069Y-106032242D01*
X153448899Y-106246326D01*
X153584393Y-106439831D01*
X153751418Y-106606856D01*
X153944923Y-106742350D01*
X154159009Y-106842180D01*
X154372500Y-106899384D01*
X154372500Y-106004251D01*
X154480185Y-106053430D01*
X154586737Y-106068750D01*
X154658263Y-106068750D01*
X154764815Y-106053430D01*
X154872500Y-106004251D01*
X154872500Y-106899383D01*
X155085990Y-106842180D01*
X155300076Y-106742350D01*
X155493577Y-106606859D01*
X155615633Y-106484803D01*
X155676956Y-106451318D01*
X155746648Y-106456302D01*
X155802582Y-106498173D01*
X155819496Y-106529149D01*
X155868704Y-106661081D01*
X155954954Y-106776296D01*
X156070169Y-106862546D01*
X156205017Y-106912841D01*
X156264627Y-106919250D01*
X158060372Y-106919249D01*
X158119983Y-106912841D01*
X158254831Y-106862546D01*
X158370046Y-106776296D01*
X158456296Y-106661081D01*
X158506591Y-106526233D01*
X158513000Y-106466623D01*
X158512999Y-104670878D01*
X158506591Y-104611267D01*
X158456296Y-104476419D01*
X158370046Y-104361204D01*
X158254831Y-104274954D01*
X158119983Y-104224659D01*
X158060373Y-104218250D01*
X158057050Y-104218250D01*
X156267939Y-104218250D01*
X156267920Y-104218250D01*
X156264628Y-104218251D01*
X156261348Y-104218603D01*
X156261340Y-104218604D01*
X156205015Y-104224659D01*
X156070169Y-104274954D01*
X155954954Y-104361204D01*
X155868704Y-104476419D01*
X155819497Y-104608349D01*
X155777625Y-104664282D01*
X155712161Y-104688699D01*
X155643888Y-104673847D01*
X155615634Y-104652696D01*
X155493581Y-104530643D01*
X155300076Y-104395149D01*
X155085992Y-104295319D01*
X154872500Y-104238114D01*
X154872500Y-105133248D01*
X154764815Y-105084070D01*
X154658263Y-105068750D01*
X154586737Y-105068750D01*
X154480185Y-105084070D01*
X154372500Y-105133248D01*
X154372500Y-104238114D01*
X154372499Y-104238114D01*
X154159007Y-104295319D01*
X153944921Y-104395150D01*
X153751421Y-104530640D01*
X153584390Y-104697671D01*
X153448900Y-104891171D01*
X153349069Y-105105257D01*
X153291864Y-105318749D01*
X153291864Y-105318750D01*
X154188814Y-105318750D01*
X154163007Y-105358906D01*
X154122500Y-105496861D01*
X154122500Y-105640639D01*
X154163007Y-105778594D01*
X154188814Y-105818750D01*
X153291864Y-105818750D01*
X127250708Y-105818750D01*
X122274319Y-100842361D01*
X122240834Y-100781038D01*
X122238000Y-100754680D01*
X122238000Y-89794578D01*
X128824500Y-89794578D01*
X128824501Y-89797872D01*
X128830909Y-89857483D01*
X128881204Y-89992331D01*
X128967454Y-90107546D01*
X129082669Y-90193796D01*
X129214598Y-90243002D01*
X129270532Y-90284873D01*
X129294949Y-90350337D01*
X129280097Y-90418610D01*
X129258947Y-90446865D01*
X129136888Y-90568924D01*
X129001400Y-90762421D01*
X128901569Y-90976507D01*
X128844364Y-91189999D01*
X128844364Y-91190000D01*
X129741314Y-91190000D01*
X129715507Y-91230156D01*
X129675000Y-91368111D01*
X129675000Y-91511889D01*
X129715507Y-91649844D01*
X129741314Y-91690000D01*
X128844364Y-91690000D01*
X128901569Y-91903492D01*
X129001399Y-92117576D01*
X129136893Y-92311081D01*
X129303918Y-92478106D01*
X129497423Y-92613600D01*
X129711509Y-92713430D01*
X129925000Y-92770634D01*
X129925000Y-91875501D01*
X130032685Y-91924680D01*
X130139237Y-91940000D01*
X130210763Y-91940000D01*
X130317315Y-91924680D01*
X130425000Y-91875501D01*
X130425000Y-92770633D01*
X130638490Y-92713430D01*
X130852576Y-92613600D01*
X131046081Y-92478106D01*
X131213106Y-92311081D01*
X131348600Y-92117576D01*
X131448430Y-91903492D01*
X131505636Y-91690000D01*
X130608686Y-91690000D01*
X130634493Y-91649844D01*
X130675000Y-91511889D01*
X130675000Y-91368111D01*
X130634493Y-91230156D01*
X130608686Y-91190000D01*
X131505636Y-91190000D01*
X131505635Y-91189999D01*
X131448430Y-90976507D01*
X131348599Y-90762421D01*
X131213109Y-90568921D01*
X131091053Y-90446865D01*
X131057568Y-90385542D01*
X131062552Y-90315850D01*
X131104424Y-90259917D01*
X131135397Y-90243004D01*
X131267331Y-90193796D01*
X131299120Y-90169999D01*
X152631840Y-90169999D01*
X152652436Y-90405407D01*
X152655974Y-90418610D01*
X152713597Y-90633663D01*
X152813465Y-90847830D01*
X152949005Y-91041401D01*
X153116099Y-91208495D01*
X153309670Y-91344035D01*
X153523837Y-91443903D01*
X153752092Y-91505062D01*
X153752092Y-91505063D01*
X153987499Y-91525659D01*
X153987499Y-91525658D01*
X153987500Y-91525659D01*
X154222908Y-91505063D01*
X154451163Y-91443903D01*
X154665330Y-91344035D01*
X154858901Y-91208495D01*
X155025995Y-91041401D01*
X155161535Y-90847830D01*
X155261403Y-90633663D01*
X155322563Y-90405408D01*
X155343159Y-90170000D01*
X155322563Y-89934592D01*
X155261403Y-89706337D01*
X155161535Y-89492171D01*
X155025995Y-89298599D01*
X154858901Y-89131505D01*
X154673339Y-89001573D01*
X154629716Y-88946998D01*
X154622522Y-88877500D01*
X154654045Y-88815145D01*
X154673337Y-88798428D01*
X154858901Y-88668495D01*
X155025995Y-88501401D01*
X155161535Y-88307830D01*
X155261403Y-88093663D01*
X155322563Y-87865408D01*
X155343159Y-87630000D01*
X155322563Y-87394592D01*
X155261403Y-87166337D01*
X155161535Y-86952171D01*
X155025995Y-86758599D01*
X154858901Y-86591505D01*
X154672902Y-86461267D01*
X154629280Y-86406692D01*
X154622087Y-86337193D01*
X154653609Y-86274839D01*
X154672905Y-86258119D01*
X154858578Y-86128109D01*
X155025606Y-85961081D01*
X155161100Y-85767576D01*
X155260930Y-85553492D01*
X155318136Y-85340000D01*
X154421186Y-85340000D01*
X154446993Y-85299844D01*
X154487500Y-85161889D01*
X154487500Y-85018111D01*
X154446993Y-84880156D01*
X154421186Y-84840000D01*
X155318136Y-84840000D01*
X155318135Y-84839999D01*
X155260930Y-84626507D01*
X155161099Y-84412421D01*
X155025609Y-84218921D01*
X154858581Y-84051893D01*
X154672904Y-83921880D01*
X154629280Y-83867303D01*
X154622087Y-83797804D01*
X154653609Y-83735450D01*
X154672899Y-83718734D01*
X154858901Y-83588495D01*
X155025995Y-83421401D01*
X155161535Y-83227830D01*
X155261403Y-83013663D01*
X155322563Y-82785408D01*
X155343159Y-82550000D01*
X155322563Y-82314592D01*
X155261403Y-82086337D01*
X155161535Y-81872171D01*
X155025995Y-81678599D01*
X154858901Y-81511505D01*
X154673339Y-81381573D01*
X154629716Y-81326998D01*
X154622522Y-81257500D01*
X154654045Y-81195145D01*
X154673337Y-81178428D01*
X154858901Y-81048495D01*
X155025995Y-80881401D01*
X155161535Y-80687830D01*
X155261403Y-80473663D01*
X155322563Y-80245408D01*
X155337230Y-80077764D01*
X175945787Y-80077764D01*
X175975413Y-80347016D01*
X175984151Y-80380439D01*
X176043928Y-80609088D01*
X176077390Y-80687830D01*
X176149871Y-80858392D01*
X176290982Y-81089611D01*
X176449425Y-81280000D01*
X176464255Y-81297820D01*
X176665998Y-81478582D01*
X176891910Y-81628044D01*
X176998211Y-81677876D01*
X177137177Y-81743021D01*
X177396562Y-81821058D01*
X177396569Y-81821060D01*
X177664561Y-81860500D01*
X177664564Y-81860500D01*
X177865369Y-81860500D01*
X177867631Y-81860500D01*
X178070156Y-81845677D01*
X178334553Y-81786780D01*
X178587558Y-81690014D01*
X178823777Y-81557441D01*
X179038177Y-81391888D01*
X179226186Y-81196881D01*
X179383799Y-80976579D01*
X179507656Y-80735675D01*
X179595118Y-80479305D01*
X179644319Y-80212933D01*
X179654212Y-79942235D01*
X179624586Y-79672982D01*
X179556072Y-79410912D01*
X179450130Y-79161610D01*
X179309018Y-78930390D01*
X179309017Y-78930388D01*
X179135746Y-78722181D01*
X179042269Y-78638425D01*
X178934002Y-78541418D01*
X178708090Y-78391956D01*
X178708086Y-78391954D01*
X178462822Y-78276978D01*
X178203437Y-78198941D01*
X178203431Y-78198940D01*
X177935439Y-78159500D01*
X177732369Y-78159500D01*
X177730120Y-78159664D01*
X177730109Y-78159665D01*
X177529843Y-78174322D01*
X177265449Y-78233219D01*
X177012441Y-78329986D01*
X176776223Y-78462559D01*
X176561825Y-78628109D01*
X176373813Y-78823120D01*
X176216201Y-79043420D01*
X176092342Y-79284329D01*
X176004881Y-79540695D01*
X175955680Y-79807066D01*
X175945787Y-80077764D01*
X155337230Y-80077764D01*
X155343159Y-80010000D01*
X155322563Y-79774592D01*
X155261403Y-79546337D01*
X155161535Y-79332171D01*
X155025995Y-79138599D01*
X154858901Y-78971505D01*
X154673339Y-78841573D01*
X154629716Y-78786998D01*
X154622522Y-78717500D01*
X154654045Y-78655145D01*
X154673337Y-78638428D01*
X154858901Y-78508495D01*
X155025995Y-78341401D01*
X155161535Y-78147830D01*
X155261403Y-77933663D01*
X155322563Y-77705408D01*
X155343159Y-77470000D01*
X155322563Y-77234592D01*
X155261403Y-77006337D01*
X155161535Y-76792171D01*
X155025995Y-76598599D01*
X154858901Y-76431505D01*
X154673339Y-76301573D01*
X154629716Y-76246998D01*
X154622522Y-76177500D01*
X154654045Y-76115145D01*
X154673337Y-76098428D01*
X154858901Y-75968495D01*
X155025995Y-75801401D01*
X155161535Y-75607830D01*
X155261403Y-75393663D01*
X155322563Y-75165408D01*
X155343159Y-74930000D01*
X155322563Y-74694592D01*
X155261403Y-74466337D01*
X155161535Y-74252171D01*
X155025995Y-74058599D01*
X154904069Y-73936673D01*
X154870584Y-73875350D01*
X154875568Y-73805658D01*
X154917440Y-73749725D01*
X154948415Y-73732810D01*
X155079831Y-73683796D01*
X155195046Y-73597546D01*
X155281296Y-73482331D01*
X155331591Y-73347483D01*
X155338000Y-73287873D01*
X155337999Y-71492128D01*
X155331591Y-71432517D01*
X155281296Y-71297669D01*
X155195046Y-71182454D01*
X155079831Y-71096204D01*
X154944983Y-71045909D01*
X154885373Y-71039500D01*
X154882050Y-71039500D01*
X153092939Y-71039500D01*
X153092920Y-71039500D01*
X153089628Y-71039501D01*
X153086348Y-71039853D01*
X153086340Y-71039854D01*
X153030015Y-71045909D01*
X152895169Y-71096204D01*
X152779954Y-71182454D01*
X152693704Y-71297668D01*
X152643410Y-71432515D01*
X152643409Y-71432517D01*
X152637000Y-71492127D01*
X152637000Y-71495448D01*
X152637000Y-71495449D01*
X152637000Y-73284560D01*
X152637000Y-73284578D01*
X152637001Y-73287872D01*
X152637353Y-73291152D01*
X152637354Y-73291159D01*
X152643409Y-73347484D01*
X152646245Y-73355087D01*
X152693704Y-73482331D01*
X152779954Y-73597546D01*
X152895169Y-73683796D01*
X152992189Y-73719982D01*
X153026582Y-73732810D01*
X153082516Y-73774681D01*
X153106933Y-73840146D01*
X153092081Y-73908419D01*
X153070931Y-73936673D01*
X152949003Y-74058601D01*
X152813465Y-74252170D01*
X152713597Y-74466336D01*
X152652436Y-74694592D01*
X152631840Y-74930000D01*
X152652436Y-75165407D01*
X152659195Y-75190630D01*
X152713597Y-75393663D01*
X152813465Y-75607830D01*
X152949005Y-75801401D01*
X153116099Y-75968495D01*
X153301660Y-76098426D01*
X153345283Y-76153002D01*
X153352476Y-76222501D01*
X153320954Y-76284855D01*
X153301659Y-76301575D01*
X153116095Y-76431508D01*
X152949005Y-76598598D01*
X152813465Y-76792170D01*
X152713597Y-77006336D01*
X152652436Y-77234592D01*
X152631840Y-77469999D01*
X152652436Y-77705407D01*
X152697209Y-77872501D01*
X152713597Y-77933663D01*
X152813465Y-78147830D01*
X152949005Y-78341401D01*
X153116099Y-78508495D01*
X153301660Y-78638426D01*
X153345283Y-78693002D01*
X153352476Y-78762501D01*
X153320954Y-78824855D01*
X153301658Y-78841575D01*
X153174821Y-78930388D01*
X153116095Y-78971508D01*
X152949005Y-79138598D01*
X152813465Y-79332170D01*
X152713597Y-79546336D01*
X152652436Y-79774592D01*
X152631840Y-80010000D01*
X152652436Y-80245407D01*
X152687731Y-80377128D01*
X152713597Y-80473663D01*
X152813465Y-80687830D01*
X152949005Y-80881401D01*
X153116099Y-81048495D01*
X153301660Y-81178426D01*
X153345283Y-81233002D01*
X153352476Y-81302501D01*
X153320954Y-81364855D01*
X153301659Y-81381575D01*
X153116095Y-81511508D01*
X152949005Y-81678598D01*
X152813465Y-81872170D01*
X152713597Y-82086336D01*
X152652436Y-82314592D01*
X152631840Y-82549999D01*
X152652436Y-82785407D01*
X152694910Y-82943921D01*
X152713597Y-83013663D01*
X152813465Y-83227830D01*
X152949005Y-83421401D01*
X153116099Y-83588495D01*
X153302096Y-83718732D01*
X153345719Y-83773307D01*
X153352912Y-83842806D01*
X153321390Y-83905160D01*
X153302095Y-83921880D01*
X153116419Y-84051892D01*
X152949390Y-84218921D01*
X152813900Y-84412421D01*
X152714069Y-84626507D01*
X152656864Y-84839999D01*
X152656864Y-84840000D01*
X153553814Y-84840000D01*
X153528007Y-84880156D01*
X153487500Y-85018111D01*
X153487500Y-85161889D01*
X153528007Y-85299844D01*
X153553814Y-85340000D01*
X152656864Y-85340000D01*
X152714069Y-85553492D01*
X152813899Y-85767576D01*
X152949393Y-85961081D01*
X153116418Y-86128106D01*
X153302095Y-86258119D01*
X153345719Y-86312696D01*
X153352912Y-86382195D01*
X153321390Y-86444549D01*
X153302095Y-86461269D01*
X153116095Y-86591508D01*
X152949005Y-86758598D01*
X152813465Y-86952170D01*
X152713597Y-87166336D01*
X152652436Y-87394592D01*
X152631840Y-87629999D01*
X152652436Y-87865407D01*
X152689958Y-88005439D01*
X152713597Y-88093663D01*
X152813465Y-88307830D01*
X152949005Y-88501401D01*
X153116099Y-88668495D01*
X153301660Y-88798426D01*
X153345283Y-88853002D01*
X153352476Y-88922501D01*
X153320954Y-88984855D01*
X153301659Y-89001575D01*
X153116095Y-89131508D01*
X152949005Y-89298598D01*
X152813465Y-89492170D01*
X152713597Y-89706336D01*
X152652436Y-89934592D01*
X152631840Y-90169999D01*
X131299120Y-90169999D01*
X131382546Y-90107546D01*
X131468796Y-89992331D01*
X131519091Y-89857483D01*
X131525500Y-89797873D01*
X131525499Y-88002128D01*
X131519091Y-87942517D01*
X131468796Y-87807669D01*
X131382546Y-87692454D01*
X131267331Y-87606204D01*
X131132483Y-87555909D01*
X131072873Y-87549500D01*
X131069550Y-87549500D01*
X129280439Y-87549500D01*
X129280420Y-87549500D01*
X129277128Y-87549501D01*
X129273848Y-87549853D01*
X129273840Y-87549854D01*
X129217515Y-87555909D01*
X129082669Y-87606204D01*
X128967454Y-87692454D01*
X128881204Y-87807668D01*
X128830910Y-87942515D01*
X128830909Y-87942517D01*
X128824500Y-88002127D01*
X128824500Y-88005448D01*
X128824500Y-88005449D01*
X128824500Y-89794560D01*
X128824500Y-89794578D01*
X122238000Y-89794578D01*
X122238000Y-82169578D01*
X128824500Y-82169578D01*
X128824501Y-82172872D01*
X128830909Y-82232483D01*
X128881204Y-82367331D01*
X128967454Y-82482546D01*
X129082669Y-82568796D01*
X129214598Y-82618002D01*
X129270532Y-82659873D01*
X129294949Y-82725337D01*
X129280097Y-82793610D01*
X129258947Y-82821865D01*
X129136888Y-82943924D01*
X129001400Y-83137421D01*
X128901569Y-83351507D01*
X128844364Y-83564999D01*
X128844364Y-83565000D01*
X129741314Y-83565000D01*
X129715507Y-83605156D01*
X129675000Y-83743111D01*
X129675000Y-83886889D01*
X129715507Y-84024844D01*
X129741314Y-84065000D01*
X128844364Y-84065000D01*
X128901569Y-84278492D01*
X129001399Y-84492576D01*
X129136893Y-84686081D01*
X129303918Y-84853106D01*
X129497423Y-84988600D01*
X129711509Y-85088430D01*
X129925000Y-85145634D01*
X129925000Y-84250501D01*
X130032685Y-84299680D01*
X130139237Y-84315000D01*
X130210763Y-84315000D01*
X130317315Y-84299680D01*
X130425000Y-84250501D01*
X130425000Y-85145633D01*
X130638490Y-85088430D01*
X130852576Y-84988600D01*
X131046081Y-84853106D01*
X131213106Y-84686081D01*
X131348600Y-84492576D01*
X131448430Y-84278492D01*
X131505636Y-84065000D01*
X130608686Y-84065000D01*
X130634493Y-84024844D01*
X130675000Y-83886889D01*
X130675000Y-83743111D01*
X130634493Y-83605156D01*
X130608686Y-83565000D01*
X131505636Y-83565000D01*
X131505635Y-83564999D01*
X131448430Y-83351507D01*
X131348599Y-83137421D01*
X131213109Y-82943921D01*
X131091053Y-82821865D01*
X131057568Y-82760542D01*
X131062552Y-82690850D01*
X131104424Y-82634917D01*
X131135397Y-82618004D01*
X131267331Y-82568796D01*
X131382546Y-82482546D01*
X131468796Y-82367331D01*
X131519091Y-82232483D01*
X131525500Y-82172873D01*
X131525499Y-80377128D01*
X131519091Y-80317517D01*
X131468796Y-80182669D01*
X131382546Y-80067454D01*
X131267331Y-79981204D01*
X131132483Y-79930909D01*
X131072873Y-79924500D01*
X131069550Y-79924500D01*
X129280439Y-79924500D01*
X129280420Y-79924500D01*
X129277128Y-79924501D01*
X129273848Y-79924853D01*
X129273840Y-79924854D01*
X129217515Y-79930909D01*
X129082669Y-79981204D01*
X128967454Y-80067454D01*
X128881204Y-80182668D01*
X128830910Y-80317515D01*
X128830909Y-80317517D01*
X128824500Y-80377127D01*
X128824500Y-80380448D01*
X128824500Y-80380449D01*
X128824500Y-82169560D01*
X128824500Y-82169578D01*
X122238000Y-82169578D01*
X122238000Y-73818750D01*
X128819340Y-73818750D01*
X128839936Y-74054157D01*
X128884709Y-74221252D01*
X128901097Y-74282413D01*
X129000965Y-74496580D01*
X129136505Y-74690151D01*
X129303599Y-74857245D01*
X129489596Y-74987482D01*
X129533219Y-75042057D01*
X129540412Y-75111556D01*
X129508890Y-75173910D01*
X129489595Y-75190630D01*
X129303919Y-75320642D01*
X129136890Y-75487671D01*
X129001400Y-75681171D01*
X128901569Y-75895257D01*
X128844364Y-76108749D01*
X128844364Y-76108750D01*
X129741314Y-76108750D01*
X129715507Y-76148906D01*
X129675000Y-76286861D01*
X129675000Y-76430639D01*
X129715507Y-76568594D01*
X129741314Y-76608750D01*
X128844364Y-76608750D01*
X128901569Y-76822242D01*
X129001399Y-77036326D01*
X129136893Y-77229831D01*
X129303918Y-77396856D01*
X129497423Y-77532350D01*
X129711509Y-77632180D01*
X129925000Y-77689384D01*
X129925000Y-76794251D01*
X130032685Y-76843430D01*
X130139237Y-76858750D01*
X130210763Y-76858750D01*
X130317315Y-76843430D01*
X130425000Y-76794251D01*
X130425000Y-77689383D01*
X130638490Y-77632180D01*
X130852576Y-77532350D01*
X131046081Y-77396856D01*
X131213106Y-77229831D01*
X131348600Y-77036326D01*
X131448430Y-76822242D01*
X131505636Y-76608750D01*
X130608686Y-76608750D01*
X130634493Y-76568594D01*
X130675000Y-76430639D01*
X130675000Y-76286861D01*
X130634493Y-76148906D01*
X130608686Y-76108750D01*
X131505636Y-76108750D01*
X131505635Y-76108749D01*
X131448430Y-75895257D01*
X131348599Y-75681171D01*
X131213109Y-75487671D01*
X131046081Y-75320643D01*
X130860404Y-75190630D01*
X130816780Y-75136053D01*
X130809587Y-75066554D01*
X130841109Y-75004200D01*
X130860399Y-74987484D01*
X131046401Y-74857245D01*
X131213495Y-74690151D01*
X131349035Y-74496580D01*
X131448903Y-74282413D01*
X131510063Y-74054158D01*
X131530659Y-73818750D01*
X131510063Y-73583342D01*
X131448903Y-73355087D01*
X131349035Y-73140921D01*
X131213495Y-72947349D01*
X131091569Y-72825422D01*
X131058084Y-72764100D01*
X131063068Y-72694408D01*
X131104940Y-72638475D01*
X131135915Y-72621560D01*
X131267331Y-72572546D01*
X131382546Y-72486296D01*
X131468796Y-72371081D01*
X131519091Y-72236233D01*
X131525500Y-72176623D01*
X131525499Y-70380878D01*
X131519091Y-70321267D01*
X131468796Y-70186419D01*
X131382546Y-70071204D01*
X131267331Y-69984954D01*
X131132483Y-69934659D01*
X131072873Y-69928250D01*
X131069550Y-69928250D01*
X129280439Y-69928250D01*
X129280420Y-69928250D01*
X129277128Y-69928251D01*
X129273848Y-69928603D01*
X129273840Y-69928604D01*
X129217515Y-69934659D01*
X129082669Y-69984954D01*
X128967454Y-70071204D01*
X128881204Y-70186418D01*
X128830910Y-70321265D01*
X128830909Y-70321267D01*
X128824500Y-70380877D01*
X128824500Y-70384198D01*
X128824500Y-70384199D01*
X128824500Y-72173310D01*
X128824500Y-72173328D01*
X128824501Y-72176622D01*
X128830909Y-72236233D01*
X128881204Y-72371081D01*
X128967454Y-72486296D01*
X129082669Y-72572546D01*
X129194907Y-72614408D01*
X129214082Y-72621560D01*
X129270016Y-72663431D01*
X129294433Y-72728896D01*
X129279581Y-72797169D01*
X129258431Y-72825423D01*
X129136503Y-72947351D01*
X129000965Y-73140920D01*
X128901097Y-73355086D01*
X128839936Y-73583342D01*
X128819340Y-73818750D01*
X122238000Y-73818750D01*
X122238000Y-65139069D01*
X122257685Y-65072030D01*
X122274319Y-65051388D01*
X122487943Y-64837764D01*
X125145787Y-64837764D01*
X125175413Y-65107016D01*
X125209998Y-65239304D01*
X125243928Y-65369088D01*
X125280183Y-65454403D01*
X125349871Y-65618392D01*
X125490982Y-65849611D01*
X125663094Y-66056425D01*
X125664255Y-66057820D01*
X125865998Y-66238582D01*
X126091910Y-66388044D01*
X126198211Y-66437876D01*
X126337177Y-66503021D01*
X126596562Y-66581058D01*
X126596569Y-66581060D01*
X126864561Y-66620500D01*
X126864564Y-66620500D01*
X127065369Y-66620500D01*
X127067631Y-66620500D01*
X127270156Y-66605677D01*
X127534553Y-66546780D01*
X127787558Y-66450014D01*
X128023777Y-66317441D01*
X128238177Y-66151888D01*
X128426186Y-65956881D01*
X128583799Y-65736579D01*
X128707656Y-65495675D01*
X128795118Y-65239305D01*
X128844319Y-64972933D01*
X128851735Y-64769999D01*
X129187224Y-64769999D01*
X129205892Y-64995288D01*
X129205892Y-64995291D01*
X129205893Y-64995293D01*
X129242302Y-65139069D01*
X129261390Y-65214443D01*
X129352196Y-65421462D01*
X129475847Y-65610724D01*
X129628950Y-65777037D01*
X129628954Y-65777040D01*
X129807351Y-65915893D01*
X130006169Y-66023488D01*
X130219986Y-66096891D01*
X130442967Y-66134100D01*
X130442968Y-66134100D01*
X130669032Y-66134100D01*
X130669033Y-66134100D01*
X130892014Y-66096891D01*
X131105831Y-66023488D01*
X131304649Y-65915893D01*
X131483046Y-65777040D01*
X131537814Y-65717547D01*
X131636154Y-65610721D01*
X131636153Y-65610721D01*
X131636156Y-65610719D01*
X131722190Y-65479033D01*
X131775338Y-65433676D01*
X131844569Y-65424252D01*
X131907905Y-65453754D01*
X131929809Y-65479033D01*
X132015845Y-65610721D01*
X132168950Y-65777037D01*
X132168954Y-65777040D01*
X132347351Y-65915893D01*
X132546169Y-66023488D01*
X132759986Y-66096891D01*
X132982967Y-66134100D01*
X132982968Y-66134100D01*
X133209032Y-66134100D01*
X133209033Y-66134100D01*
X133432014Y-66096891D01*
X133645831Y-66023488D01*
X133844649Y-65915893D01*
X134023046Y-65777040D01*
X134077814Y-65717547D01*
X134176154Y-65610721D01*
X134176153Y-65610721D01*
X134176156Y-65610719D01*
X134262190Y-65479033D01*
X134315338Y-65433676D01*
X134384569Y-65424252D01*
X134447905Y-65453754D01*
X134469809Y-65479033D01*
X134555845Y-65610721D01*
X134708950Y-65777037D01*
X134708954Y-65777040D01*
X134887351Y-65915893D01*
X135086169Y-66023488D01*
X135299986Y-66096891D01*
X135522967Y-66134100D01*
X135522968Y-66134100D01*
X135749032Y-66134100D01*
X135749033Y-66134100D01*
X135972014Y-66096891D01*
X136185831Y-66023488D01*
X136384649Y-65915893D01*
X136563046Y-65777040D01*
X136617813Y-65717546D01*
X136677700Y-65681556D01*
X136747538Y-65683656D01*
X136805154Y-65723179D01*
X136825225Y-65758196D01*
X136869047Y-65875688D01*
X136955211Y-65990788D01*
X137070310Y-66076952D01*
X137205028Y-66127199D01*
X137261267Y-66133245D01*
X137267882Y-66133600D01*
X137926000Y-66133600D01*
X137926000Y-65214297D01*
X138031408Y-65262435D01*
X138139666Y-65278000D01*
X138212334Y-65278000D01*
X138320592Y-65262435D01*
X138426000Y-65214297D01*
X138426000Y-66133600D01*
X139084118Y-66133600D01*
X139090732Y-66133245D01*
X139146971Y-66127199D01*
X139281689Y-66076952D01*
X139396788Y-65990788D01*
X139482952Y-65875688D01*
X139526774Y-65758196D01*
X139568645Y-65702263D01*
X139634109Y-65677845D01*
X139702382Y-65692696D01*
X139734184Y-65717545D01*
X139751707Y-65736579D01*
X139788954Y-65777040D01*
X139882192Y-65849611D01*
X139967351Y-65915893D01*
X140025517Y-65947370D01*
X140075107Y-65996588D01*
X140090500Y-66056425D01*
X140090500Y-67608256D01*
X140088235Y-67628766D01*
X140090439Y-67698872D01*
X140090500Y-67702767D01*
X140090500Y-67730350D01*
X140090988Y-67734219D01*
X140090989Y-67734225D01*
X140091004Y-67734343D01*
X140091918Y-67745967D01*
X140093290Y-67789626D01*
X140098879Y-67808860D01*
X140102825Y-67827916D01*
X140105335Y-67847792D01*
X140121414Y-67888404D01*
X140125197Y-67899451D01*
X140137382Y-67941391D01*
X140147580Y-67958635D01*
X140156136Y-67976100D01*
X140163514Y-67994732D01*
X140163515Y-67994733D01*
X140189180Y-68030059D01*
X140195593Y-68039822D01*
X140217826Y-68077416D01*
X140217829Y-68077419D01*
X140217830Y-68077420D01*
X140231995Y-68091585D01*
X140244627Y-68106375D01*
X140256406Y-68122587D01*
X140290058Y-68150426D01*
X140298699Y-68158289D01*
X145904788Y-73764379D01*
X145938273Y-73825702D01*
X145940428Y-73839098D01*
X145958076Y-74007007D01*
X146016570Y-74187034D01*
X146111216Y-74350966D01*
X146237879Y-74491639D01*
X146391019Y-74602901D01*
X146563947Y-74679894D01*
X146749102Y-74719250D01*
X146749104Y-74719250D01*
X146938398Y-74719250D01*
X147075297Y-74690151D01*
X147123553Y-74679894D01*
X147296480Y-74602901D01*
X147449621Y-74491638D01*
X147576283Y-74350966D01*
X147670929Y-74187034D01*
X147677446Y-74175747D01*
X147680437Y-74177473D01*
X147707665Y-74137642D01*
X147772020Y-74110434D01*
X147840868Y-74122339D01*
X147873853Y-74145943D01*
X148286038Y-74558128D01*
X148319523Y-74619451D01*
X148321678Y-74632847D01*
X148339326Y-74800757D01*
X148397820Y-74980784D01*
X148492466Y-75144716D01*
X148619129Y-75285389D01*
X148772269Y-75396651D01*
X148945197Y-75473644D01*
X149130352Y-75513000D01*
X149130354Y-75513000D01*
X149319648Y-75513000D01*
X149443084Y-75486762D01*
X149504803Y-75473644D01*
X149677730Y-75396651D01*
X149698421Y-75381618D01*
X149830870Y-75285389D01*
X149926600Y-75179071D01*
X149986087Y-75142422D01*
X150055944Y-75143753D01*
X150110900Y-75179071D01*
X150206629Y-75285389D01*
X150359769Y-75396651D01*
X150532697Y-75473644D01*
X150717852Y-75513000D01*
X150820701Y-75513000D01*
X150887740Y-75532685D01*
X150933495Y-75585489D01*
X150944701Y-75637000D01*
X150944701Y-77918611D01*
X150925016Y-77985650D01*
X150912851Y-78001583D01*
X150837667Y-78085082D01*
X150743021Y-78249014D01*
X150684527Y-78429041D01*
X150664741Y-78617299D01*
X150684527Y-78805556D01*
X150743021Y-78985583D01*
X150837667Y-79149515D01*
X150964330Y-79290188D01*
X151117470Y-79401450D01*
X151290398Y-79478443D01*
X151475553Y-79517799D01*
X151475555Y-79517799D01*
X151664849Y-79517799D01*
X151788284Y-79491561D01*
X151850004Y-79478443D01*
X152022931Y-79401450D01*
X152176072Y-79290187D01*
X152302734Y-79149515D01*
X152397380Y-78985583D01*
X152455875Y-78805555D01*
X152475661Y-78617299D01*
X152455875Y-78429043D01*
X152423689Y-78329986D01*
X152397380Y-78249014D01*
X152302734Y-78085082D01*
X152227551Y-78001583D01*
X152197321Y-77938592D01*
X152195701Y-77918611D01*
X152195701Y-65776267D01*
X152215386Y-65709228D01*
X152268190Y-65663473D01*
X152337348Y-65653529D01*
X152400904Y-65682554D01*
X152410923Y-65692277D01*
X152488954Y-65777040D01*
X152667351Y-65915893D01*
X152866169Y-66023488D01*
X153079986Y-66096891D01*
X153302967Y-66134100D01*
X153302968Y-66134100D01*
X153529032Y-66134100D01*
X153529033Y-66134100D01*
X153752014Y-66096891D01*
X153965831Y-66023488D01*
X154164649Y-65915893D01*
X154343046Y-65777040D01*
X154392629Y-65723179D01*
X154496152Y-65610724D01*
X154496153Y-65610721D01*
X154496156Y-65610719D01*
X154619802Y-65421465D01*
X154710611Y-65214441D01*
X154766107Y-64995293D01*
X154784775Y-64770000D01*
X154784775Y-64769999D01*
X156111224Y-64769999D01*
X156129892Y-64995288D01*
X156129892Y-64995291D01*
X156129893Y-64995293D01*
X156166302Y-65139069D01*
X156185390Y-65214443D01*
X156276196Y-65421462D01*
X156399847Y-65610724D01*
X156552950Y-65777037D01*
X156552954Y-65777040D01*
X156731351Y-65915893D01*
X156930169Y-66023488D01*
X157143986Y-66096891D01*
X157366967Y-66134100D01*
X157366968Y-66134100D01*
X157593032Y-66134100D01*
X157593033Y-66134100D01*
X157816014Y-66096891D01*
X158029831Y-66023488D01*
X158228649Y-65915893D01*
X158407046Y-65777040D01*
X158461814Y-65717547D01*
X158560154Y-65610721D01*
X158560153Y-65610721D01*
X158560156Y-65610719D01*
X158646190Y-65479033D01*
X158699338Y-65433676D01*
X158768569Y-65424252D01*
X158831905Y-65453754D01*
X158853809Y-65479033D01*
X158939845Y-65610721D01*
X159092950Y-65777037D01*
X159092954Y-65777040D01*
X159271351Y-65915893D01*
X159470169Y-66023488D01*
X159683986Y-66096891D01*
X159906967Y-66134100D01*
X159906968Y-66134100D01*
X160133032Y-66134100D01*
X160133033Y-66134100D01*
X160356014Y-66096891D01*
X160569831Y-66023488D01*
X160768649Y-65915893D01*
X160947046Y-65777040D01*
X161001814Y-65717547D01*
X161100154Y-65610721D01*
X161100153Y-65610721D01*
X161100156Y-65610719D01*
X161186190Y-65479033D01*
X161239338Y-65433676D01*
X161308569Y-65424252D01*
X161371905Y-65453754D01*
X161393809Y-65479033D01*
X161479845Y-65610721D01*
X161632950Y-65777037D01*
X161632954Y-65777040D01*
X161811351Y-65915893D01*
X162010169Y-66023488D01*
X162223986Y-66096891D01*
X162446967Y-66134100D01*
X162446968Y-66134100D01*
X162673032Y-66134100D01*
X162673033Y-66134100D01*
X162896014Y-66096891D01*
X163109831Y-66023488D01*
X163308649Y-65915893D01*
X163487046Y-65777040D01*
X163541814Y-65717547D01*
X163640154Y-65610721D01*
X163640153Y-65610721D01*
X163640156Y-65610719D01*
X163726190Y-65479033D01*
X163779338Y-65433676D01*
X163848569Y-65424252D01*
X163911905Y-65453754D01*
X163933809Y-65479033D01*
X164019845Y-65610721D01*
X164172950Y-65777037D01*
X164172954Y-65777040D01*
X164351351Y-65915893D01*
X164550169Y-66023488D01*
X164763986Y-66096891D01*
X164986967Y-66134100D01*
X164986968Y-66134100D01*
X165213032Y-66134100D01*
X165213033Y-66134100D01*
X165436014Y-66096891D01*
X165649831Y-66023488D01*
X165848649Y-65915893D01*
X166027046Y-65777040D01*
X166081814Y-65717547D01*
X166180154Y-65610721D01*
X166180153Y-65610721D01*
X166180156Y-65610719D01*
X166266190Y-65479033D01*
X166319338Y-65433676D01*
X166388569Y-65424252D01*
X166451905Y-65453754D01*
X166473809Y-65479033D01*
X166559845Y-65610721D01*
X166712950Y-65777037D01*
X166712954Y-65777040D01*
X166891351Y-65915893D01*
X167090169Y-66023488D01*
X167303986Y-66096891D01*
X167526967Y-66134100D01*
X167526968Y-66134100D01*
X167753032Y-66134100D01*
X167753033Y-66134100D01*
X167976014Y-66096891D01*
X168189831Y-66023488D01*
X168388649Y-65915893D01*
X168567046Y-65777040D01*
X168621814Y-65717547D01*
X168720154Y-65610721D01*
X168720153Y-65610721D01*
X168720156Y-65610719D01*
X168806190Y-65479033D01*
X168859338Y-65433676D01*
X168928569Y-65424252D01*
X168991905Y-65453754D01*
X169013809Y-65479033D01*
X169099845Y-65610721D01*
X169252950Y-65777037D01*
X169252954Y-65777040D01*
X169431351Y-65915893D01*
X169630169Y-66023488D01*
X169843986Y-66096891D01*
X170066967Y-66134100D01*
X170066968Y-66134100D01*
X170293032Y-66134100D01*
X170293033Y-66134100D01*
X170516014Y-66096891D01*
X170729831Y-66023488D01*
X170928649Y-65915893D01*
X171107046Y-65777040D01*
X171161814Y-65717547D01*
X171260154Y-65610721D01*
X171260153Y-65610721D01*
X171260156Y-65610719D01*
X171346190Y-65479033D01*
X171399338Y-65433676D01*
X171468569Y-65424252D01*
X171531905Y-65453754D01*
X171553809Y-65479033D01*
X171639845Y-65610721D01*
X171792950Y-65777037D01*
X171792954Y-65777040D01*
X171971351Y-65915893D01*
X172170169Y-66023488D01*
X172383986Y-66096891D01*
X172606967Y-66134100D01*
X172606968Y-66134100D01*
X172833032Y-66134100D01*
X172833033Y-66134100D01*
X173056014Y-66096891D01*
X173269831Y-66023488D01*
X173468649Y-65915893D01*
X173647046Y-65777040D01*
X173701814Y-65717547D01*
X173800154Y-65610721D01*
X173800153Y-65610721D01*
X173800156Y-65610719D01*
X173886190Y-65479033D01*
X173939338Y-65433676D01*
X174008569Y-65424252D01*
X174071905Y-65453754D01*
X174093809Y-65479033D01*
X174179845Y-65610721D01*
X174332950Y-65777037D01*
X174332954Y-65777040D01*
X174511351Y-65915893D01*
X174710169Y-66023488D01*
X174923986Y-66096891D01*
X175146967Y-66134100D01*
X175146968Y-66134100D01*
X175373032Y-66134100D01*
X175373033Y-66134100D01*
X175596014Y-66096891D01*
X175809831Y-66023488D01*
X176008649Y-65915893D01*
X176187046Y-65777040D01*
X176236629Y-65723179D01*
X176340152Y-65610724D01*
X176340153Y-65610721D01*
X176340156Y-65610719D01*
X176463802Y-65421465D01*
X176554611Y-65214441D01*
X176610107Y-64995293D01*
X176628775Y-64770000D01*
X176610107Y-64544707D01*
X176554611Y-64325559D01*
X176463802Y-64118535D01*
X176340156Y-63929281D01*
X176340155Y-63929280D01*
X176340152Y-63929275D01*
X176187049Y-63762962D01*
X176008650Y-63624108D01*
X176008649Y-63624107D01*
X175809831Y-63516512D01*
X175809830Y-63516511D01*
X175809827Y-63516510D01*
X175596016Y-63443109D01*
X175414382Y-63412800D01*
X175373033Y-63405900D01*
X175146967Y-63405900D01*
X175105618Y-63412800D01*
X174923983Y-63443109D01*
X174710172Y-63516510D01*
X174511349Y-63624108D01*
X174332950Y-63762962D01*
X174179845Y-63929278D01*
X174093809Y-64060967D01*
X174040662Y-64106324D01*
X173971431Y-64115748D01*
X173908095Y-64086246D01*
X173886191Y-64060967D01*
X173800154Y-63929278D01*
X173647049Y-63762962D01*
X173468650Y-63624108D01*
X173468649Y-63624107D01*
X173269831Y-63516512D01*
X173269830Y-63516511D01*
X173269827Y-63516510D01*
X173056016Y-63443109D01*
X172874382Y-63412800D01*
X172833033Y-63405900D01*
X172606967Y-63405900D01*
X172565618Y-63412800D01*
X172383983Y-63443109D01*
X172170172Y-63516510D01*
X171971349Y-63624108D01*
X171792950Y-63762962D01*
X171639845Y-63929278D01*
X171553809Y-64060967D01*
X171500662Y-64106324D01*
X171431431Y-64115748D01*
X171368095Y-64086246D01*
X171346191Y-64060967D01*
X171260154Y-63929278D01*
X171107049Y-63762962D01*
X170928650Y-63624108D01*
X170928649Y-63624107D01*
X170729831Y-63516512D01*
X170729830Y-63516511D01*
X170729827Y-63516510D01*
X170516016Y-63443109D01*
X170334382Y-63412800D01*
X170293033Y-63405900D01*
X170066967Y-63405900D01*
X170025618Y-63412800D01*
X169843983Y-63443109D01*
X169630172Y-63516510D01*
X169431349Y-63624108D01*
X169252950Y-63762962D01*
X169099845Y-63929278D01*
X169013809Y-64060967D01*
X168960662Y-64106324D01*
X168891431Y-64115748D01*
X168828095Y-64086246D01*
X168806191Y-64060967D01*
X168720154Y-63929278D01*
X168567049Y-63762962D01*
X168388650Y-63624108D01*
X168388649Y-63624107D01*
X168189831Y-63516512D01*
X168189830Y-63516511D01*
X168189827Y-63516510D01*
X167976016Y-63443109D01*
X167794382Y-63412800D01*
X167753033Y-63405900D01*
X167526967Y-63405900D01*
X167485618Y-63412800D01*
X167303983Y-63443109D01*
X167090172Y-63516510D01*
X166891349Y-63624108D01*
X166712950Y-63762962D01*
X166559845Y-63929278D01*
X166473809Y-64060967D01*
X166420662Y-64106324D01*
X166351431Y-64115748D01*
X166288095Y-64086246D01*
X166266191Y-64060967D01*
X166180154Y-63929278D01*
X166027049Y-63762962D01*
X165848650Y-63624108D01*
X165848649Y-63624107D01*
X165649831Y-63516512D01*
X165649830Y-63516511D01*
X165649827Y-63516510D01*
X165436016Y-63443109D01*
X165254382Y-63412800D01*
X165213033Y-63405900D01*
X164986967Y-63405900D01*
X164945618Y-63412800D01*
X164763983Y-63443109D01*
X164550172Y-63516510D01*
X164351349Y-63624108D01*
X164172950Y-63762962D01*
X164019845Y-63929278D01*
X163933809Y-64060967D01*
X163880662Y-64106324D01*
X163811431Y-64115748D01*
X163748095Y-64086246D01*
X163726191Y-64060967D01*
X163640154Y-63929278D01*
X163487049Y-63762962D01*
X163308650Y-63624108D01*
X163308649Y-63624107D01*
X163109831Y-63516512D01*
X163109830Y-63516511D01*
X163109827Y-63516510D01*
X162896016Y-63443109D01*
X162714382Y-63412800D01*
X162673033Y-63405900D01*
X162446967Y-63405900D01*
X162405618Y-63412800D01*
X162223983Y-63443109D01*
X162010172Y-63516510D01*
X161811349Y-63624108D01*
X161632950Y-63762962D01*
X161479845Y-63929278D01*
X161393809Y-64060967D01*
X161340662Y-64106324D01*
X161271431Y-64115748D01*
X161208095Y-64086246D01*
X161186191Y-64060967D01*
X161100154Y-63929278D01*
X160947049Y-63762962D01*
X160768650Y-63624108D01*
X160768649Y-63624107D01*
X160569831Y-63516512D01*
X160569830Y-63516511D01*
X160569827Y-63516510D01*
X160356016Y-63443109D01*
X160174382Y-63412800D01*
X160133033Y-63405900D01*
X159906967Y-63405900D01*
X159865618Y-63412800D01*
X159683983Y-63443109D01*
X159470172Y-63516510D01*
X159271349Y-63624108D01*
X159092950Y-63762962D01*
X158939845Y-63929278D01*
X158853809Y-64060967D01*
X158800662Y-64106324D01*
X158731431Y-64115748D01*
X158668095Y-64086246D01*
X158646191Y-64060967D01*
X158560154Y-63929278D01*
X158407049Y-63762962D01*
X158228650Y-63624108D01*
X158228649Y-63624107D01*
X158029831Y-63516512D01*
X158029830Y-63516511D01*
X158029827Y-63516510D01*
X157816016Y-63443109D01*
X157634382Y-63412800D01*
X157593033Y-63405900D01*
X157366967Y-63405900D01*
X157325618Y-63412800D01*
X157143983Y-63443109D01*
X156930172Y-63516510D01*
X156731349Y-63624108D01*
X156552950Y-63762962D01*
X156399847Y-63929275D01*
X156276196Y-64118537D01*
X156210000Y-64269451D01*
X156185389Y-64325559D01*
X156157951Y-64433910D01*
X156129892Y-64544711D01*
X156111224Y-64769999D01*
X154784775Y-64769999D01*
X154766107Y-64544707D01*
X154710611Y-64325559D01*
X154619802Y-64118535D01*
X154496156Y-63929281D01*
X154496155Y-63929280D01*
X154496152Y-63929275D01*
X154343049Y-63762962D01*
X154164650Y-63624108D01*
X154164649Y-63624107D01*
X153965831Y-63516512D01*
X153965830Y-63516511D01*
X153965827Y-63516510D01*
X153752016Y-63443109D01*
X153570382Y-63412800D01*
X153529033Y-63405900D01*
X153302967Y-63405900D01*
X153261618Y-63412800D01*
X153079983Y-63443109D01*
X152866172Y-63516510D01*
X152667349Y-63624108D01*
X152488950Y-63762962D01*
X152335845Y-63929278D01*
X152249809Y-64060967D01*
X152196662Y-64106324D01*
X152127431Y-64115748D01*
X152064095Y-64086246D01*
X152042191Y-64060967D01*
X151956154Y-63929278D01*
X151803049Y-63762962D01*
X151624650Y-63624108D01*
X151624649Y-63624107D01*
X151425831Y-63516512D01*
X151425830Y-63516511D01*
X151425827Y-63516510D01*
X151212016Y-63443109D01*
X151030382Y-63412800D01*
X150989033Y-63405900D01*
X150762967Y-63405900D01*
X150721618Y-63412800D01*
X150539983Y-63443109D01*
X150326172Y-63516510D01*
X150127349Y-63624108D01*
X149948950Y-63762962D01*
X149795845Y-63929278D01*
X149709809Y-64060967D01*
X149656662Y-64106324D01*
X149587431Y-64115748D01*
X149524095Y-64086246D01*
X149502191Y-64060967D01*
X149416154Y-63929278D01*
X149263049Y-63762962D01*
X149084650Y-63624108D01*
X149084649Y-63624107D01*
X148885831Y-63516512D01*
X148885830Y-63516511D01*
X148885827Y-63516510D01*
X148672016Y-63443109D01*
X148490382Y-63412800D01*
X148449033Y-63405900D01*
X148222967Y-63405900D01*
X148181618Y-63412800D01*
X147999983Y-63443109D01*
X147786172Y-63516510D01*
X147587349Y-63624108D01*
X147408950Y-63762962D01*
X147255845Y-63929278D01*
X147169809Y-64060967D01*
X147116662Y-64106324D01*
X147047431Y-64115748D01*
X146984095Y-64086246D01*
X146962191Y-64060967D01*
X146876154Y-63929278D01*
X146723049Y-63762962D01*
X146544650Y-63624108D01*
X146544649Y-63624107D01*
X146345831Y-63516512D01*
X146345830Y-63516511D01*
X146345827Y-63516510D01*
X146132016Y-63443109D01*
X145950382Y-63412800D01*
X145909033Y-63405900D01*
X145682967Y-63405900D01*
X145641618Y-63412800D01*
X145459983Y-63443109D01*
X145246172Y-63516510D01*
X145047349Y-63624108D01*
X144868950Y-63762962D01*
X144715845Y-63929278D01*
X144629809Y-64060967D01*
X144576662Y-64106324D01*
X144507431Y-64115748D01*
X144444095Y-64086246D01*
X144422191Y-64060967D01*
X144336154Y-63929278D01*
X144183049Y-63762962D01*
X144004650Y-63624108D01*
X144004649Y-63624107D01*
X143805831Y-63516512D01*
X143805830Y-63516511D01*
X143805827Y-63516510D01*
X143592016Y-63443109D01*
X143410382Y-63412800D01*
X143369033Y-63405900D01*
X143142967Y-63405900D01*
X143101618Y-63412800D01*
X142919983Y-63443109D01*
X142706172Y-63516510D01*
X142507349Y-63624108D01*
X142328950Y-63762962D01*
X142175845Y-63929278D01*
X142089809Y-64060967D01*
X142036662Y-64106324D01*
X141967431Y-64115748D01*
X141904095Y-64086246D01*
X141882191Y-64060967D01*
X141796154Y-63929278D01*
X141643049Y-63762962D01*
X141464650Y-63624108D01*
X141464649Y-63624107D01*
X141265831Y-63516512D01*
X141265830Y-63516511D01*
X141265827Y-63516510D01*
X141052016Y-63443109D01*
X140870382Y-63412800D01*
X140829033Y-63405900D01*
X140602967Y-63405900D01*
X140561618Y-63412800D01*
X140379983Y-63443109D01*
X140166172Y-63516510D01*
X139967349Y-63624108D01*
X139788953Y-63762960D01*
X139734184Y-63822454D01*
X139674297Y-63858443D01*
X139604459Y-63856342D01*
X139546843Y-63816816D01*
X139526774Y-63781802D01*
X139482952Y-63664311D01*
X139396788Y-63549211D01*
X139281689Y-63463047D01*
X139146971Y-63412800D01*
X139090732Y-63406754D01*
X139084118Y-63406400D01*
X138426000Y-63406400D01*
X138426000Y-64325702D01*
X138320592Y-64277565D01*
X138212334Y-64262000D01*
X138139666Y-64262000D01*
X138031408Y-64277565D01*
X137926000Y-64325702D01*
X137926000Y-63406400D01*
X137267882Y-63406400D01*
X137261267Y-63406754D01*
X137205028Y-63412800D01*
X137070310Y-63463047D01*
X136955211Y-63549211D01*
X136869047Y-63664311D01*
X136825225Y-63781803D01*
X136783353Y-63837736D01*
X136717889Y-63862153D01*
X136649616Y-63847301D01*
X136617814Y-63822453D01*
X136580391Y-63781802D01*
X136563046Y-63762960D01*
X136384649Y-63624107D01*
X136185831Y-63516512D01*
X136185830Y-63516511D01*
X136185827Y-63516510D01*
X135972016Y-63443109D01*
X135790382Y-63412800D01*
X135749033Y-63405900D01*
X135522967Y-63405900D01*
X135481618Y-63412800D01*
X135299983Y-63443109D01*
X135086172Y-63516510D01*
X134887349Y-63624108D01*
X134708950Y-63762962D01*
X134555845Y-63929278D01*
X134469809Y-64060967D01*
X134416662Y-64106324D01*
X134347431Y-64115748D01*
X134284095Y-64086246D01*
X134262191Y-64060967D01*
X134176154Y-63929278D01*
X134023049Y-63762962D01*
X133844650Y-63624108D01*
X133844649Y-63624107D01*
X133645831Y-63516512D01*
X133645830Y-63516511D01*
X133645827Y-63516510D01*
X133432016Y-63443109D01*
X133250382Y-63412800D01*
X133209033Y-63405900D01*
X132982967Y-63405900D01*
X132941618Y-63412800D01*
X132759983Y-63443109D01*
X132546172Y-63516510D01*
X132347349Y-63624108D01*
X132168950Y-63762962D01*
X132015845Y-63929278D01*
X131929809Y-64060967D01*
X131876662Y-64106324D01*
X131807431Y-64115748D01*
X131744095Y-64086246D01*
X131722191Y-64060967D01*
X131636154Y-63929278D01*
X131483049Y-63762962D01*
X131304650Y-63624108D01*
X131304649Y-63624107D01*
X131105831Y-63516512D01*
X131105830Y-63516511D01*
X131105827Y-63516510D01*
X130892016Y-63443109D01*
X130710382Y-63412800D01*
X130669033Y-63405900D01*
X130442967Y-63405900D01*
X130401618Y-63412800D01*
X130219983Y-63443109D01*
X130006172Y-63516510D01*
X129807349Y-63624108D01*
X129628950Y-63762962D01*
X129475847Y-63929275D01*
X129352196Y-64118537D01*
X129286000Y-64269451D01*
X129261389Y-64325559D01*
X129233951Y-64433910D01*
X129205892Y-64544711D01*
X129187224Y-64769999D01*
X128851735Y-64769999D01*
X128854212Y-64702235D01*
X128824586Y-64432982D01*
X128756072Y-64170912D01*
X128650130Y-63921610D01*
X128509018Y-63690390D01*
X128509017Y-63690388D01*
X128335746Y-63482181D01*
X128230759Y-63388112D01*
X128134002Y-63301418D01*
X127908090Y-63151956D01*
X127908086Y-63151954D01*
X127662822Y-63036978D01*
X127403437Y-62958941D01*
X127403431Y-62958940D01*
X127135439Y-62919500D01*
X126932369Y-62919500D01*
X126930120Y-62919664D01*
X126930109Y-62919665D01*
X126729843Y-62934322D01*
X126465449Y-62993219D01*
X126212441Y-63089986D01*
X125976223Y-63222559D01*
X125761825Y-63388109D01*
X125573813Y-63583120D01*
X125416201Y-63803420D01*
X125292342Y-64044329D01*
X125204881Y-64300695D01*
X125155680Y-64567066D01*
X125145787Y-64837764D01*
X122487943Y-64837764D01*
X125376389Y-61949319D01*
X125437712Y-61915834D01*
X125464070Y-61913000D01*
X176160930Y-61913000D01*
X176227969Y-61932685D01*
G37*
%TD.AperFunction*%
%TD*%
M02*
