M48
; DRILL file {KiCad 7.0.2} date Thu Sep  7 17:56:41 2023
; FORMAT={-:-/ absolute / inch / decimal}
; #@! TF.CreationDate,2023-09-07T17:56:41+02:00
; #@! TF.GenerationSoftware,Kicad,Pcbnew,7.0.2
; #@! TF.FileFunction,Plated,1,2,PTH
FMAT,2
INCH
; #@! TA.AperFunction,Plated,PTH,ViaDrill
T1C0.0157
; #@! TA.AperFunction,Plated,PTH,ComponentDrill
T2C0.0394
; #@! TA.AperFunction,Plated,PTH,ComponentDrill
T3C0.0400
%
G90
G05
T1
X4.9688Y-2.8438
X5.0Y-3.1562
X5.0625Y-4.0
X5.25Y-3.7812
X5.3125Y-2.6875
X5.375Y-4.3125
X5.4375Y-2.9688
X5.5938Y-2.6562
X5.6562Y-4.25
X5.6875Y-2.6562
X5.7812Y-2.6562
X5.7812Y-2.9062
X5.8125Y-3.0312
X5.8125Y-3.2188
X5.8125Y-3.4062
X5.875Y-2.9375
X5.8854Y-2.6256
X5.9062Y-2.8125
X5.9062Y-4.3125
X5.9375Y-2.75
X5.9375Y-2.9375
X5.9673Y-3.0952
X6.125Y-3.6875
X6.25Y-2.7812
X6.3125Y-4.3438
X6.4688Y-2.6562
X6.7188Y-3.2188
X6.7188Y-3.5312
X6.7812Y-2.6875
X6.8125Y-4.3125
X6.9062Y-2.9062
X7.0312Y-3.7188
X7.0312Y-4.0938
T2
X5.125Y-2.8062
X5.125Y-2.9062
X5.125Y-3.0063
X5.125Y-3.1998
X5.125Y-3.2998
X5.125Y-3.5
X5.125Y-3.6
X6.0625Y-2.85
X6.0625Y-2.95
X6.0625Y-3.05
X6.0625Y-3.15
X6.0625Y-3.25
X6.0625Y-3.35
X6.0625Y-3.45
X6.0625Y-3.55
X6.0875Y-4.1562
X6.1875Y-4.1562
T3
X5.14Y-2.55
X5.24Y-2.55
X5.34Y-2.55
X5.44Y-2.55
X5.5Y-4.45
X5.54Y-2.55
X5.6Y-4.45
X5.64Y-2.55
X5.7Y-4.45
X5.74Y-2.55
X5.8Y-4.45
X5.84Y-2.55
X5.9Y-4.45
X5.94Y-2.55
X6.0Y-4.45
X6.04Y-2.55
X6.1Y-4.45
X6.2Y-2.55
X6.2Y-4.45
X6.3Y-2.55
X6.4Y-2.55
X6.4Y-4.45
X6.5Y-2.55
X6.5Y-4.45
X6.6Y-2.55
X6.6Y-4.45
X6.7Y-2.55
X6.7Y-4.45
X6.8Y-2.55
X6.8Y-4.45
X6.9Y-2.55
X6.9Y-4.45
T0
M30
