%TF.GenerationSoftware,KiCad,Pcbnew,7.0.2*%
%TF.CreationDate,2023-09-07T17:56:31+02:00*%
%TF.ProjectId,BEP-RFID-cashdrawer,4245502d-5246-4494-942d-636173686472,rev?*%
%TF.SameCoordinates,Original*%
%TF.FileFunction,Legend,Top*%
%TF.FilePolarity,Positive*%
%FSLAX46Y46*%
G04 Gerber Fmt 4.6, Leading zero omitted, Abs format (unit mm)*
G04 Created by KiCad (PCBNEW 7.0.2) date 2023-09-07 17:56:31*
%MOMM*%
%LPD*%
G01*
G04 APERTURE LIST*
%ADD10C,0.150000*%
%ADD11C,0.280000*%
%ADD12C,0.240000*%
%ADD13C,0.100000*%
%ADD14C,0.075000*%
%ADD15C,0.120000*%
G04 APERTURE END LIST*
D10*
X128067151Y-84002381D02*
X127590960Y-84335714D01*
X128067151Y-84573809D02*
X127067151Y-84573809D01*
X127067151Y-84573809D02*
X127067151Y-84192857D01*
X127067151Y-84192857D02*
X127114770Y-84097619D01*
X127114770Y-84097619D02*
X127162389Y-84050000D01*
X127162389Y-84050000D02*
X127257627Y-84002381D01*
X127257627Y-84002381D02*
X127400484Y-84002381D01*
X127400484Y-84002381D02*
X127495722Y-84050000D01*
X127495722Y-84050000D02*
X127543341Y-84097619D01*
X127543341Y-84097619D02*
X127590960Y-84192857D01*
X127590960Y-84192857D02*
X127590960Y-84573809D01*
X127543341Y-83573809D02*
X127543341Y-83240476D01*
X128067151Y-83097619D02*
X128067151Y-83573809D01*
X128067151Y-83573809D02*
X127067151Y-83573809D01*
X127067151Y-83573809D02*
X127067151Y-83097619D01*
X128019532Y-82716666D02*
X128067151Y-82573809D01*
X128067151Y-82573809D02*
X128067151Y-82335714D01*
X128067151Y-82335714D02*
X128019532Y-82240476D01*
X128019532Y-82240476D02*
X127971912Y-82192857D01*
X127971912Y-82192857D02*
X127876674Y-82145238D01*
X127876674Y-82145238D02*
X127781436Y-82145238D01*
X127781436Y-82145238D02*
X127686198Y-82192857D01*
X127686198Y-82192857D02*
X127638579Y-82240476D01*
X127638579Y-82240476D02*
X127590960Y-82335714D01*
X127590960Y-82335714D02*
X127543341Y-82526190D01*
X127543341Y-82526190D02*
X127495722Y-82621428D01*
X127495722Y-82621428D02*
X127448103Y-82669047D01*
X127448103Y-82669047D02*
X127352865Y-82716666D01*
X127352865Y-82716666D02*
X127257627Y-82716666D01*
X127257627Y-82716666D02*
X127162389Y-82669047D01*
X127162389Y-82669047D02*
X127114770Y-82621428D01*
X127114770Y-82621428D02*
X127067151Y-82526190D01*
X127067151Y-82526190D02*
X127067151Y-82288095D01*
X127067151Y-82288095D02*
X127114770Y-82145238D01*
X127543341Y-81716666D02*
X127543341Y-81383333D01*
X128067151Y-81240476D02*
X128067151Y-81716666D01*
X128067151Y-81716666D02*
X127067151Y-81716666D01*
X127067151Y-81716666D02*
X127067151Y-81240476D01*
X127067151Y-80954761D02*
X127067151Y-80383333D01*
X128067151Y-80669047D02*
X127067151Y-80669047D01*
D11*
X150641166Y-81416666D02*
X149974500Y-81883333D01*
X150641166Y-82216666D02*
X149241166Y-82216666D01*
X149241166Y-82216666D02*
X149241166Y-81683333D01*
X149241166Y-81683333D02*
X149307833Y-81550000D01*
X149307833Y-81550000D02*
X149374500Y-81483333D01*
X149374500Y-81483333D02*
X149507833Y-81416666D01*
X149507833Y-81416666D02*
X149707833Y-81416666D01*
X149707833Y-81416666D02*
X149841166Y-81483333D01*
X149841166Y-81483333D02*
X149907833Y-81550000D01*
X149907833Y-81550000D02*
X149974500Y-81683333D01*
X149974500Y-81683333D02*
X149974500Y-82216666D01*
X149907833Y-80350000D02*
X149907833Y-80816666D01*
X150641166Y-80816666D02*
X149241166Y-80816666D01*
X149241166Y-80816666D02*
X149241166Y-80150000D01*
X150641166Y-79616666D02*
X149241166Y-79616666D01*
X150641166Y-78949999D02*
X149241166Y-78949999D01*
X149241166Y-78949999D02*
X149241166Y-78616666D01*
X149241166Y-78616666D02*
X149307833Y-78416666D01*
X149307833Y-78416666D02*
X149441166Y-78283333D01*
X149441166Y-78283333D02*
X149574500Y-78216666D01*
X149574500Y-78216666D02*
X149841166Y-78149999D01*
X149841166Y-78149999D02*
X150041166Y-78149999D01*
X150041166Y-78149999D02*
X150307833Y-78216666D01*
X150307833Y-78216666D02*
X150441166Y-78283333D01*
X150441166Y-78283333D02*
X150574500Y-78416666D01*
X150574500Y-78416666D02*
X150641166Y-78616666D01*
X150641166Y-78616666D02*
X150641166Y-78949999D01*
D12*
X128042674Y-75240101D02*
X127471246Y-75640101D01*
X128042674Y-75925815D02*
X126842674Y-75925815D01*
X126842674Y-75925815D02*
X126842674Y-75468672D01*
X126842674Y-75468672D02*
X126899817Y-75354387D01*
X126899817Y-75354387D02*
X126956960Y-75297244D01*
X126956960Y-75297244D02*
X127071246Y-75240101D01*
X127071246Y-75240101D02*
X127242674Y-75240101D01*
X127242674Y-75240101D02*
X127356960Y-75297244D01*
X127356960Y-75297244D02*
X127414103Y-75354387D01*
X127414103Y-75354387D02*
X127471246Y-75468672D01*
X127471246Y-75468672D02*
X127471246Y-75925815D01*
X127414103Y-74725815D02*
X127414103Y-74325815D01*
X128042674Y-74154387D02*
X128042674Y-74725815D01*
X128042674Y-74725815D02*
X126842674Y-74725815D01*
X126842674Y-74725815D02*
X126842674Y-74154387D01*
X128042674Y-73068673D02*
X128042674Y-73640101D01*
X128042674Y-73640101D02*
X126842674Y-73640101D01*
X127699817Y-72725815D02*
X127699817Y-72154387D01*
X128042674Y-72840101D02*
X126842674Y-72440101D01*
X126842674Y-72440101D02*
X128042674Y-72040101D01*
X127471246Y-71411530D02*
X128042674Y-71411530D01*
X126842674Y-71811530D02*
X127471246Y-71411530D01*
X127471246Y-71411530D02*
X126842674Y-71011530D01*
D10*
X160802619Y-107807142D02*
X160802619Y-107140476D01*
X160802619Y-107140476D02*
X161802619Y-107569047D01*
X161421666Y-106759523D02*
X161421666Y-105997619D01*
X161802619Y-104997619D02*
X161802619Y-105569047D01*
X161802619Y-105283333D02*
X160802619Y-105283333D01*
X160802619Y-105283333D02*
X160945476Y-105378571D01*
X160945476Y-105378571D02*
X161040714Y-105473809D01*
X161040714Y-105473809D02*
X161088333Y-105569047D01*
X160897857Y-104616666D02*
X160850238Y-104569047D01*
X160850238Y-104569047D02*
X160802619Y-104473809D01*
X160802619Y-104473809D02*
X160802619Y-104235714D01*
X160802619Y-104235714D02*
X160850238Y-104140476D01*
X160850238Y-104140476D02*
X160897857Y-104092857D01*
X160897857Y-104092857D02*
X160993095Y-104045238D01*
X160993095Y-104045238D02*
X161088333Y-104045238D01*
X161088333Y-104045238D02*
X161231190Y-104092857D01*
X161231190Y-104092857D02*
X161802619Y-104664285D01*
X161802619Y-104664285D02*
X161802619Y-104045238D01*
X160802619Y-102997618D02*
X161802619Y-102664285D01*
X161802619Y-102664285D02*
X160802619Y-102330952D01*
X161802619Y-101235713D02*
X160802619Y-101235713D01*
X160802619Y-101235713D02*
X160802619Y-100997618D01*
X160802619Y-100997618D02*
X160850238Y-100854761D01*
X160850238Y-100854761D02*
X160945476Y-100759523D01*
X160945476Y-100759523D02*
X161040714Y-100711904D01*
X161040714Y-100711904D02*
X161231190Y-100664285D01*
X161231190Y-100664285D02*
X161374047Y-100664285D01*
X161374047Y-100664285D02*
X161564523Y-100711904D01*
X161564523Y-100711904D02*
X161659761Y-100759523D01*
X161659761Y-100759523D02*
X161755000Y-100854761D01*
X161755000Y-100854761D02*
X161802619Y-100997618D01*
X161802619Y-100997618D02*
X161802619Y-101235713D01*
X161707380Y-99664285D02*
X161755000Y-99711904D01*
X161755000Y-99711904D02*
X161802619Y-99854761D01*
X161802619Y-99854761D02*
X161802619Y-99949999D01*
X161802619Y-99949999D02*
X161755000Y-100092856D01*
X161755000Y-100092856D02*
X161659761Y-100188094D01*
X161659761Y-100188094D02*
X161564523Y-100235713D01*
X161564523Y-100235713D02*
X161374047Y-100283332D01*
X161374047Y-100283332D02*
X161231190Y-100283332D01*
X161231190Y-100283332D02*
X161040714Y-100235713D01*
X161040714Y-100235713D02*
X160945476Y-100188094D01*
X160945476Y-100188094D02*
X160850238Y-100092856D01*
X160850238Y-100092856D02*
X160802619Y-99949999D01*
X160802619Y-99949999D02*
X160802619Y-99854761D01*
X160802619Y-99854761D02*
X160850238Y-99711904D01*
X160850238Y-99711904D02*
X160897857Y-99664285D01*
X154206950Y-102714366D02*
X154159331Y-102809604D01*
X154159331Y-102809604D02*
X154159331Y-102952461D01*
X154159331Y-102952461D02*
X154206950Y-103095318D01*
X154206950Y-103095318D02*
X154302188Y-103190556D01*
X154302188Y-103190556D02*
X154397426Y-103238175D01*
X154397426Y-103238175D02*
X154587902Y-103285794D01*
X154587902Y-103285794D02*
X154730759Y-103285794D01*
X154730759Y-103285794D02*
X154921235Y-103238175D01*
X154921235Y-103238175D02*
X155016473Y-103190556D01*
X155016473Y-103190556D02*
X155111712Y-103095318D01*
X155111712Y-103095318D02*
X155159331Y-102952461D01*
X155159331Y-102952461D02*
X155159331Y-102857223D01*
X155159331Y-102857223D02*
X155111712Y-102714366D01*
X155111712Y-102714366D02*
X155064092Y-102666747D01*
X155064092Y-102666747D02*
X154730759Y-102666747D01*
X154730759Y-102666747D02*
X154730759Y-102857223D01*
X155159331Y-102238175D02*
X154159331Y-102238175D01*
X154159331Y-102238175D02*
X155159331Y-101666747D01*
X155159331Y-101666747D02*
X154159331Y-101666747D01*
X155159331Y-101190556D02*
X154159331Y-101190556D01*
X154159331Y-101190556D02*
X154159331Y-100952461D01*
X154159331Y-100952461D02*
X154206950Y-100809604D01*
X154206950Y-100809604D02*
X154302188Y-100714366D01*
X154302188Y-100714366D02*
X154397426Y-100666747D01*
X154397426Y-100666747D02*
X154587902Y-100619128D01*
X154587902Y-100619128D02*
X154730759Y-100619128D01*
X154730759Y-100619128D02*
X154921235Y-100666747D01*
X154921235Y-100666747D02*
X155016473Y-100714366D01*
X155016473Y-100714366D02*
X155111712Y-100809604D01*
X155111712Y-100809604D02*
X155159331Y-100952461D01*
X155159331Y-100952461D02*
X155159331Y-101190556D01*
X156596764Y-103294752D02*
X157596764Y-102961419D01*
X157596764Y-102961419D02*
X156596764Y-102628086D01*
X157596764Y-102294752D02*
X156596764Y-102294752D01*
X157596764Y-101818562D02*
X156596764Y-101818562D01*
X156596764Y-101818562D02*
X157596764Y-101247134D01*
X157596764Y-101247134D02*
X156596764Y-101247134D01*
X172076256Y-88396002D02*
X172123875Y-88253145D01*
X172123875Y-88253145D02*
X172123875Y-88015050D01*
X172123875Y-88015050D02*
X172076256Y-87919812D01*
X172076256Y-87919812D02*
X172028636Y-87872193D01*
X172028636Y-87872193D02*
X171933398Y-87824574D01*
X171933398Y-87824574D02*
X171838160Y-87824574D01*
X171838160Y-87824574D02*
X171742922Y-87872193D01*
X171742922Y-87872193D02*
X171695303Y-87919812D01*
X171695303Y-87919812D02*
X171647684Y-88015050D01*
X171647684Y-88015050D02*
X171600065Y-88205526D01*
X171600065Y-88205526D02*
X171552446Y-88300764D01*
X171552446Y-88300764D02*
X171504827Y-88348383D01*
X171504827Y-88348383D02*
X171409589Y-88396002D01*
X171409589Y-88396002D02*
X171314351Y-88396002D01*
X171314351Y-88396002D02*
X171219113Y-88348383D01*
X171219113Y-88348383D02*
X171171494Y-88300764D01*
X171171494Y-88300764D02*
X171123875Y-88205526D01*
X171123875Y-88205526D02*
X171123875Y-87967431D01*
X171123875Y-87967431D02*
X171171494Y-87824574D01*
X172123875Y-87396002D02*
X171123875Y-87396002D01*
X171123875Y-87396002D02*
X171123875Y-87015050D01*
X171123875Y-87015050D02*
X171171494Y-86919812D01*
X171171494Y-86919812D02*
X171219113Y-86872193D01*
X171219113Y-86872193D02*
X171314351Y-86824574D01*
X171314351Y-86824574D02*
X171457208Y-86824574D01*
X171457208Y-86824574D02*
X171552446Y-86872193D01*
X171552446Y-86872193D02*
X171600065Y-86919812D01*
X171600065Y-86919812D02*
X171647684Y-87015050D01*
X171647684Y-87015050D02*
X171647684Y-87396002D01*
X172123875Y-86396002D02*
X171123875Y-86396002D01*
D13*
X175173892Y-111512409D02*
X175173892Y-111226695D01*
X175345321Y-111569552D02*
X174745321Y-111369552D01*
X174745321Y-111369552D02*
X175345321Y-111169552D01*
X174745321Y-110683837D02*
X174745321Y-110969551D01*
X174745321Y-110969551D02*
X175031035Y-110998123D01*
X175031035Y-110998123D02*
X175002464Y-110969551D01*
X175002464Y-110969551D02*
X174973892Y-110912409D01*
X174973892Y-110912409D02*
X174973892Y-110769551D01*
X174973892Y-110769551D02*
X175002464Y-110712409D01*
X175002464Y-110712409D02*
X175031035Y-110683837D01*
X175031035Y-110683837D02*
X175088178Y-110655266D01*
X175088178Y-110655266D02*
X175231035Y-110655266D01*
X175231035Y-110655266D02*
X175288178Y-110683837D01*
X175288178Y-110683837D02*
X175316750Y-110712409D01*
X175316750Y-110712409D02*
X175345321Y-110769551D01*
X175345321Y-110769551D02*
X175345321Y-110912409D01*
X175345321Y-110912409D02*
X175316750Y-110969551D01*
X175316750Y-110969551D02*
X175288178Y-110998123D01*
X172792642Y-111512409D02*
X172792642Y-111226695D01*
X172964071Y-111569552D02*
X172364071Y-111369552D01*
X172364071Y-111369552D02*
X172964071Y-111169552D01*
X172564071Y-110712409D02*
X172964071Y-110712409D01*
X172335500Y-110855266D02*
X172764071Y-110998123D01*
X172764071Y-110998123D02*
X172764071Y-110626694D01*
X170031208Y-111512409D02*
X170031208Y-111226695D01*
X170202637Y-111569552D02*
X169602637Y-111369552D01*
X169602637Y-111369552D02*
X170202637Y-111169552D01*
X169602637Y-111026694D02*
X169602637Y-110655266D01*
X169602637Y-110655266D02*
X169831208Y-110855266D01*
X169831208Y-110855266D02*
X169831208Y-110769551D01*
X169831208Y-110769551D02*
X169859780Y-110712409D01*
X169859780Y-110712409D02*
X169888351Y-110683837D01*
X169888351Y-110683837D02*
X169945494Y-110655266D01*
X169945494Y-110655266D02*
X170088351Y-110655266D01*
X170088351Y-110655266D02*
X170145494Y-110683837D01*
X170145494Y-110683837D02*
X170174066Y-110712409D01*
X170174066Y-110712409D02*
X170202637Y-110769551D01*
X170202637Y-110769551D02*
X170202637Y-110940980D01*
X170202637Y-110940980D02*
X170174066Y-110998123D01*
X170174066Y-110998123D02*
X170145494Y-111026694D01*
X167605758Y-111502822D02*
X167605758Y-111217108D01*
X167777187Y-111559965D02*
X167177187Y-111359965D01*
X167177187Y-111359965D02*
X167777187Y-111159965D01*
X167234330Y-110988536D02*
X167205758Y-110959964D01*
X167205758Y-110959964D02*
X167177187Y-110902822D01*
X167177187Y-110902822D02*
X167177187Y-110759964D01*
X167177187Y-110759964D02*
X167205758Y-110702822D01*
X167205758Y-110702822D02*
X167234330Y-110674250D01*
X167234330Y-110674250D02*
X167291473Y-110645679D01*
X167291473Y-110645679D02*
X167348616Y-110645679D01*
X167348616Y-110645679D02*
X167434330Y-110674250D01*
X167434330Y-110674250D02*
X167777187Y-111017107D01*
X167777187Y-111017107D02*
X167777187Y-110645679D01*
X165151548Y-111579516D02*
X165151548Y-111293802D01*
X165322977Y-111636659D02*
X164722977Y-111436659D01*
X164722977Y-111436659D02*
X165322977Y-111236659D01*
X165322977Y-110722373D02*
X165322977Y-111065230D01*
X165322977Y-110893801D02*
X164722977Y-110893801D01*
X164722977Y-110893801D02*
X164808691Y-110950944D01*
X164808691Y-110950944D02*
X164865834Y-111008087D01*
X164865834Y-111008087D02*
X164894406Y-111065230D01*
X162473892Y-111589103D02*
X162473892Y-111303389D01*
X162645321Y-111646246D02*
X162045321Y-111446246D01*
X162045321Y-111446246D02*
X162645321Y-111246246D01*
X162045321Y-110931960D02*
X162045321Y-110874817D01*
X162045321Y-110874817D02*
X162073892Y-110817674D01*
X162073892Y-110817674D02*
X162102464Y-110789103D01*
X162102464Y-110789103D02*
X162159607Y-110760531D01*
X162159607Y-110760531D02*
X162273892Y-110731960D01*
X162273892Y-110731960D02*
X162416750Y-110731960D01*
X162416750Y-110731960D02*
X162531035Y-110760531D01*
X162531035Y-110760531D02*
X162588178Y-110789103D01*
X162588178Y-110789103D02*
X162616750Y-110817674D01*
X162616750Y-110817674D02*
X162645321Y-110874817D01*
X162645321Y-110874817D02*
X162645321Y-110931960D01*
X162645321Y-110931960D02*
X162616750Y-110989103D01*
X162616750Y-110989103D02*
X162588178Y-111017674D01*
X162588178Y-111017674D02*
X162531035Y-111046245D01*
X162531035Y-111046245D02*
X162416750Y-111074817D01*
X162416750Y-111074817D02*
X162273892Y-111074817D01*
X162273892Y-111074817D02*
X162159607Y-111046245D01*
X162159607Y-111046245D02*
X162102464Y-111017674D01*
X162102464Y-111017674D02*
X162073892Y-110989103D01*
X162073892Y-110989103D02*
X162045321Y-110931960D01*
X157139851Y-111646246D02*
X157739851Y-111446246D01*
X157739851Y-111446246D02*
X157139851Y-111246246D01*
X157739851Y-111046245D02*
X157139851Y-111046245D01*
X157739851Y-110760531D02*
X157139851Y-110760531D01*
X157139851Y-110760531D02*
X157739851Y-110417674D01*
X157739851Y-110417674D02*
X157139851Y-110417674D01*
X154541650Y-111265420D02*
X154513079Y-111322563D01*
X154513079Y-111322563D02*
X154513079Y-111408277D01*
X154513079Y-111408277D02*
X154541650Y-111493991D01*
X154541650Y-111493991D02*
X154598793Y-111551134D01*
X154598793Y-111551134D02*
X154655936Y-111579705D01*
X154655936Y-111579705D02*
X154770222Y-111608277D01*
X154770222Y-111608277D02*
X154855936Y-111608277D01*
X154855936Y-111608277D02*
X154970222Y-111579705D01*
X154970222Y-111579705D02*
X155027365Y-111551134D01*
X155027365Y-111551134D02*
X155084508Y-111493991D01*
X155084508Y-111493991D02*
X155113079Y-111408277D01*
X155113079Y-111408277D02*
X155113079Y-111351134D01*
X155113079Y-111351134D02*
X155084508Y-111265420D01*
X155084508Y-111265420D02*
X155055936Y-111236848D01*
X155055936Y-111236848D02*
X154855936Y-111236848D01*
X154855936Y-111236848D02*
X154855936Y-111351134D01*
X155113079Y-110979705D02*
X154513079Y-110979705D01*
X154513079Y-110979705D02*
X155113079Y-110636848D01*
X155113079Y-110636848D02*
X154513079Y-110636848D01*
X155113079Y-110351134D02*
X154513079Y-110351134D01*
X154513079Y-110351134D02*
X154513079Y-110208277D01*
X154513079Y-110208277D02*
X154541650Y-110122563D01*
X154541650Y-110122563D02*
X154598793Y-110065420D01*
X154598793Y-110065420D02*
X154655936Y-110036849D01*
X154655936Y-110036849D02*
X154770222Y-110008277D01*
X154770222Y-110008277D02*
X154855936Y-110008277D01*
X154855936Y-110008277D02*
X154970222Y-110036849D01*
X154970222Y-110036849D02*
X155027365Y-110065420D01*
X155027365Y-110065420D02*
X155084508Y-110122563D01*
X155084508Y-110122563D02*
X155113079Y-110208277D01*
X155113079Y-110208277D02*
X155113079Y-110351134D01*
X152049093Y-111275006D02*
X152020522Y-111332149D01*
X152020522Y-111332149D02*
X152020522Y-111417863D01*
X152020522Y-111417863D02*
X152049093Y-111503577D01*
X152049093Y-111503577D02*
X152106236Y-111560720D01*
X152106236Y-111560720D02*
X152163379Y-111589291D01*
X152163379Y-111589291D02*
X152277665Y-111617863D01*
X152277665Y-111617863D02*
X152363379Y-111617863D01*
X152363379Y-111617863D02*
X152477665Y-111589291D01*
X152477665Y-111589291D02*
X152534808Y-111560720D01*
X152534808Y-111560720D02*
X152591951Y-111503577D01*
X152591951Y-111503577D02*
X152620522Y-111417863D01*
X152620522Y-111417863D02*
X152620522Y-111360720D01*
X152620522Y-111360720D02*
X152591951Y-111275006D01*
X152591951Y-111275006D02*
X152563379Y-111246434D01*
X152563379Y-111246434D02*
X152363379Y-111246434D01*
X152363379Y-111246434D02*
X152363379Y-111360720D01*
X152620522Y-110989291D02*
X152020522Y-110989291D01*
X152020522Y-110989291D02*
X152620522Y-110646434D01*
X152620522Y-110646434D02*
X152020522Y-110646434D01*
X152620522Y-110360720D02*
X152020522Y-110360720D01*
X152020522Y-110360720D02*
X152020522Y-110217863D01*
X152020522Y-110217863D02*
X152049093Y-110132149D01*
X152049093Y-110132149D02*
X152106236Y-110075006D01*
X152106236Y-110075006D02*
X152163379Y-110046435D01*
X152163379Y-110046435D02*
X152277665Y-110017863D01*
X152277665Y-110017863D02*
X152363379Y-110017863D01*
X152363379Y-110017863D02*
X152477665Y-110046435D01*
X152477665Y-110046435D02*
X152534808Y-110075006D01*
X152534808Y-110075006D02*
X152591951Y-110132149D01*
X152591951Y-110132149D02*
X152620522Y-110217863D01*
X152620522Y-110217863D02*
X152620522Y-110360720D01*
X149470444Y-111361098D02*
X149470444Y-111646812D01*
X149470444Y-111646812D02*
X149756158Y-111675384D01*
X149756158Y-111675384D02*
X149727587Y-111646812D01*
X149727587Y-111646812D02*
X149699015Y-111589670D01*
X149699015Y-111589670D02*
X149699015Y-111446812D01*
X149699015Y-111446812D02*
X149727587Y-111389670D01*
X149727587Y-111389670D02*
X149756158Y-111361098D01*
X149756158Y-111361098D02*
X149813301Y-111332527D01*
X149813301Y-111332527D02*
X149956158Y-111332527D01*
X149956158Y-111332527D02*
X150013301Y-111361098D01*
X150013301Y-111361098D02*
X150041873Y-111389670D01*
X150041873Y-111389670D02*
X150070444Y-111446812D01*
X150070444Y-111446812D02*
X150070444Y-111589670D01*
X150070444Y-111589670D02*
X150041873Y-111646812D01*
X150041873Y-111646812D02*
X150013301Y-111675384D01*
X149470444Y-111161098D02*
X150070444Y-110961098D01*
X150070444Y-110961098D02*
X149470444Y-110761098D01*
X146964071Y-111713542D02*
X146964071Y-111342114D01*
X146964071Y-111342114D02*
X147192642Y-111542114D01*
X147192642Y-111542114D02*
X147192642Y-111456399D01*
X147192642Y-111456399D02*
X147221214Y-111399257D01*
X147221214Y-111399257D02*
X147249785Y-111370685D01*
X147249785Y-111370685D02*
X147306928Y-111342114D01*
X147306928Y-111342114D02*
X147449785Y-111342114D01*
X147449785Y-111342114D02*
X147506928Y-111370685D01*
X147506928Y-111370685D02*
X147535500Y-111399257D01*
X147535500Y-111399257D02*
X147564071Y-111456399D01*
X147564071Y-111456399D02*
X147564071Y-111627828D01*
X147564071Y-111627828D02*
X147535500Y-111684971D01*
X147535500Y-111684971D02*
X147506928Y-111713542D01*
X146964071Y-111170685D02*
X147564071Y-110970685D01*
X147564071Y-110970685D02*
X146964071Y-110770685D01*
X146964071Y-110627827D02*
X146964071Y-110256399D01*
X146964071Y-110256399D02*
X147192642Y-110456399D01*
X147192642Y-110456399D02*
X147192642Y-110370684D01*
X147192642Y-110370684D02*
X147221214Y-110313542D01*
X147221214Y-110313542D02*
X147249785Y-110284970D01*
X147249785Y-110284970D02*
X147306928Y-110256399D01*
X147306928Y-110256399D02*
X147449785Y-110256399D01*
X147449785Y-110256399D02*
X147506928Y-110284970D01*
X147506928Y-110284970D02*
X147535500Y-110313542D01*
X147535500Y-110313542D02*
X147564071Y-110370684D01*
X147564071Y-110370684D02*
X147564071Y-110542113D01*
X147564071Y-110542113D02*
X147535500Y-110599256D01*
X147535500Y-110599256D02*
X147506928Y-110627827D01*
X145182821Y-111313542D02*
X144897107Y-111513542D01*
X145182821Y-111656399D02*
X144582821Y-111656399D01*
X144582821Y-111656399D02*
X144582821Y-111427828D01*
X144582821Y-111427828D02*
X144611392Y-111370685D01*
X144611392Y-111370685D02*
X144639964Y-111342114D01*
X144639964Y-111342114D02*
X144697107Y-111313542D01*
X144697107Y-111313542D02*
X144782821Y-111313542D01*
X144782821Y-111313542D02*
X144839964Y-111342114D01*
X144839964Y-111342114D02*
X144868535Y-111370685D01*
X144868535Y-111370685D02*
X144897107Y-111427828D01*
X144897107Y-111427828D02*
X144897107Y-111656399D01*
X145154250Y-111084971D02*
X145182821Y-110999257D01*
X145182821Y-110999257D02*
X145182821Y-110856399D01*
X145182821Y-110856399D02*
X145154250Y-110799257D01*
X145154250Y-110799257D02*
X145125678Y-110770685D01*
X145125678Y-110770685D02*
X145068535Y-110742114D01*
X145068535Y-110742114D02*
X145011392Y-110742114D01*
X145011392Y-110742114D02*
X144954250Y-110770685D01*
X144954250Y-110770685D02*
X144925678Y-110799257D01*
X144925678Y-110799257D02*
X144897107Y-110856399D01*
X144897107Y-110856399D02*
X144868535Y-110970685D01*
X144868535Y-110970685D02*
X144839964Y-111027828D01*
X144839964Y-111027828D02*
X144811392Y-111056399D01*
X144811392Y-111056399D02*
X144754250Y-111084971D01*
X144754250Y-111084971D02*
X144697107Y-111084971D01*
X144697107Y-111084971D02*
X144639964Y-111056399D01*
X144639964Y-111056399D02*
X144611392Y-111027828D01*
X144611392Y-111027828D02*
X144582821Y-110970685D01*
X144582821Y-110970685D02*
X144582821Y-110827828D01*
X144582821Y-110827828D02*
X144611392Y-110742114D01*
X144582821Y-110570685D02*
X144582821Y-110227828D01*
X145182821Y-110399256D02*
X144582821Y-110399256D01*
X145182821Y-109713542D02*
X145182821Y-110056399D01*
X145182821Y-109884970D02*
X144582821Y-109884970D01*
X144582821Y-109884970D02*
X144668535Y-109942113D01*
X144668535Y-109942113D02*
X144725678Y-109999256D01*
X144725678Y-109999256D02*
X144754250Y-110056399D01*
X142525665Y-111656399D02*
X141925665Y-111656399D01*
X141925665Y-111256400D02*
X141925665Y-111142114D01*
X141925665Y-111142114D02*
X141954236Y-111084971D01*
X141954236Y-111084971D02*
X142011379Y-111027828D01*
X142011379Y-111027828D02*
X142125665Y-110999257D01*
X142125665Y-110999257D02*
X142325665Y-110999257D01*
X142325665Y-110999257D02*
X142439951Y-111027828D01*
X142439951Y-111027828D02*
X142497094Y-111084971D01*
X142497094Y-111084971D02*
X142525665Y-111142114D01*
X142525665Y-111142114D02*
X142525665Y-111256400D01*
X142525665Y-111256400D02*
X142497094Y-111313543D01*
X142497094Y-111313543D02*
X142439951Y-111370685D01*
X142439951Y-111370685D02*
X142325665Y-111399257D01*
X142325665Y-111399257D02*
X142125665Y-111399257D01*
X142125665Y-111399257D02*
X142011379Y-111370685D01*
X142011379Y-111370685D02*
X141954236Y-111313543D01*
X141954236Y-111313543D02*
X141925665Y-111256400D01*
X142525665Y-110399257D02*
X142239951Y-110599257D01*
X142525665Y-110742114D02*
X141925665Y-110742114D01*
X141925665Y-110742114D02*
X141925665Y-110513543D01*
X141925665Y-110513543D02*
X141954236Y-110456400D01*
X141954236Y-110456400D02*
X141982808Y-110427829D01*
X141982808Y-110427829D02*
X142039951Y-110399257D01*
X142039951Y-110399257D02*
X142125665Y-110399257D01*
X142125665Y-110399257D02*
X142182808Y-110427829D01*
X142182808Y-110427829D02*
X142211379Y-110456400D01*
X142211379Y-110456400D02*
X142239951Y-110513543D01*
X142239951Y-110513543D02*
X142239951Y-110742114D01*
X142211379Y-109942114D02*
X142211379Y-110142114D01*
X142525665Y-110142114D02*
X141925665Y-110142114D01*
X141925665Y-110142114D02*
X141925665Y-109856400D01*
X175120142Y-65980966D02*
X175720142Y-65980966D01*
X175720142Y-65980966D02*
X175720142Y-66123823D01*
X175720142Y-66123823D02*
X175691571Y-66209537D01*
X175691571Y-66209537D02*
X175634428Y-66266680D01*
X175634428Y-66266680D02*
X175577285Y-66295251D01*
X175577285Y-66295251D02*
X175462999Y-66323823D01*
X175462999Y-66323823D02*
X175377285Y-66323823D01*
X175377285Y-66323823D02*
X175262999Y-66295251D01*
X175262999Y-66295251D02*
X175205856Y-66266680D01*
X175205856Y-66266680D02*
X175148714Y-66209537D01*
X175148714Y-66209537D02*
X175120142Y-66123823D01*
X175120142Y-66123823D02*
X175120142Y-65980966D01*
X175720142Y-66695251D02*
X175720142Y-66752394D01*
X175720142Y-66752394D02*
X175691571Y-66809537D01*
X175691571Y-66809537D02*
X175662999Y-66838109D01*
X175662999Y-66838109D02*
X175605856Y-66866680D01*
X175605856Y-66866680D02*
X175491571Y-66895251D01*
X175491571Y-66895251D02*
X175348714Y-66895251D01*
X175348714Y-66895251D02*
X175234428Y-66866680D01*
X175234428Y-66866680D02*
X175177285Y-66838109D01*
X175177285Y-66838109D02*
X175148714Y-66809537D01*
X175148714Y-66809537D02*
X175120142Y-66752394D01*
X175120142Y-66752394D02*
X175120142Y-66695251D01*
X175120142Y-66695251D02*
X175148714Y-66638109D01*
X175148714Y-66638109D02*
X175177285Y-66609537D01*
X175177285Y-66609537D02*
X175234428Y-66580966D01*
X175234428Y-66580966D02*
X175348714Y-66552394D01*
X175348714Y-66552394D02*
X175491571Y-66552394D01*
X175491571Y-66552394D02*
X175605856Y-66580966D01*
X175605856Y-66580966D02*
X175662999Y-66609537D01*
X175662999Y-66609537D02*
X175691571Y-66638109D01*
X175691571Y-66638109D02*
X175720142Y-66695251D01*
X172317178Y-66024107D02*
X172917178Y-66024107D01*
X172917178Y-66024107D02*
X172917178Y-66166964D01*
X172917178Y-66166964D02*
X172888607Y-66252678D01*
X172888607Y-66252678D02*
X172831464Y-66309821D01*
X172831464Y-66309821D02*
X172774321Y-66338392D01*
X172774321Y-66338392D02*
X172660035Y-66366964D01*
X172660035Y-66366964D02*
X172574321Y-66366964D01*
X172574321Y-66366964D02*
X172460035Y-66338392D01*
X172460035Y-66338392D02*
X172402892Y-66309821D01*
X172402892Y-66309821D02*
X172345750Y-66252678D01*
X172345750Y-66252678D02*
X172317178Y-66166964D01*
X172317178Y-66166964D02*
X172317178Y-66024107D01*
X172317178Y-66938392D02*
X172317178Y-66595535D01*
X172317178Y-66766964D02*
X172917178Y-66766964D01*
X172917178Y-66766964D02*
X172831464Y-66709821D01*
X172831464Y-66709821D02*
X172774321Y-66652678D01*
X172774321Y-66652678D02*
X172745750Y-66595535D01*
X169935928Y-66024107D02*
X170535928Y-66024107D01*
X170535928Y-66024107D02*
X170535928Y-66166964D01*
X170535928Y-66166964D02*
X170507357Y-66252678D01*
X170507357Y-66252678D02*
X170450214Y-66309821D01*
X170450214Y-66309821D02*
X170393071Y-66338392D01*
X170393071Y-66338392D02*
X170278785Y-66366964D01*
X170278785Y-66366964D02*
X170193071Y-66366964D01*
X170193071Y-66366964D02*
X170078785Y-66338392D01*
X170078785Y-66338392D02*
X170021642Y-66309821D01*
X170021642Y-66309821D02*
X169964500Y-66252678D01*
X169964500Y-66252678D02*
X169935928Y-66166964D01*
X169935928Y-66166964D02*
X169935928Y-66024107D01*
X170478785Y-66595535D02*
X170507357Y-66624107D01*
X170507357Y-66624107D02*
X170535928Y-66681250D01*
X170535928Y-66681250D02*
X170535928Y-66824107D01*
X170535928Y-66824107D02*
X170507357Y-66881250D01*
X170507357Y-66881250D02*
X170478785Y-66909821D01*
X170478785Y-66909821D02*
X170421642Y-66938392D01*
X170421642Y-66938392D02*
X170364500Y-66938392D01*
X170364500Y-66938392D02*
X170278785Y-66909821D01*
X170278785Y-66909821D02*
X169935928Y-66566964D01*
X169935928Y-66566964D02*
X169935928Y-66938392D01*
X167254207Y-66024106D02*
X167854207Y-66024106D01*
X167854207Y-66024106D02*
X167854207Y-66166963D01*
X167854207Y-66166963D02*
X167825636Y-66252677D01*
X167825636Y-66252677D02*
X167768493Y-66309820D01*
X167768493Y-66309820D02*
X167711350Y-66338391D01*
X167711350Y-66338391D02*
X167597064Y-66366963D01*
X167597064Y-66366963D02*
X167511350Y-66366963D01*
X167511350Y-66366963D02*
X167397064Y-66338391D01*
X167397064Y-66338391D02*
X167339921Y-66309820D01*
X167339921Y-66309820D02*
X167282779Y-66252677D01*
X167282779Y-66252677D02*
X167254207Y-66166963D01*
X167254207Y-66166963D02*
X167254207Y-66024106D01*
X167854207Y-66566963D02*
X167854207Y-66938391D01*
X167854207Y-66938391D02*
X167625636Y-66738391D01*
X167625636Y-66738391D02*
X167625636Y-66824106D01*
X167625636Y-66824106D02*
X167597064Y-66881249D01*
X167597064Y-66881249D02*
X167568493Y-66909820D01*
X167568493Y-66909820D02*
X167511350Y-66938391D01*
X167511350Y-66938391D02*
X167368493Y-66938391D01*
X167368493Y-66938391D02*
X167311350Y-66909820D01*
X167311350Y-66909820D02*
X167282779Y-66881249D01*
X167282779Y-66881249D02*
X167254207Y-66824106D01*
X167254207Y-66824106D02*
X167254207Y-66652677D01*
X167254207Y-66652677D02*
X167282779Y-66595534D01*
X167282779Y-66595534D02*
X167311350Y-66566963D01*
X164823964Y-66052867D02*
X165423964Y-66052867D01*
X165423964Y-66052867D02*
X165423964Y-66195724D01*
X165423964Y-66195724D02*
X165395393Y-66281438D01*
X165395393Y-66281438D02*
X165338250Y-66338581D01*
X165338250Y-66338581D02*
X165281107Y-66367152D01*
X165281107Y-66367152D02*
X165166821Y-66395724D01*
X165166821Y-66395724D02*
X165081107Y-66395724D01*
X165081107Y-66395724D02*
X164966821Y-66367152D01*
X164966821Y-66367152D02*
X164909678Y-66338581D01*
X164909678Y-66338581D02*
X164852536Y-66281438D01*
X164852536Y-66281438D02*
X164823964Y-66195724D01*
X164823964Y-66195724D02*
X164823964Y-66052867D01*
X165223964Y-66910010D02*
X164823964Y-66910010D01*
X165452536Y-66767152D02*
X165023964Y-66624295D01*
X165023964Y-66624295D02*
X165023964Y-66995724D01*
X162293059Y-66067247D02*
X162893059Y-66067247D01*
X162893059Y-66067247D02*
X162893059Y-66210104D01*
X162893059Y-66210104D02*
X162864488Y-66295818D01*
X162864488Y-66295818D02*
X162807345Y-66352961D01*
X162807345Y-66352961D02*
X162750202Y-66381532D01*
X162750202Y-66381532D02*
X162635916Y-66410104D01*
X162635916Y-66410104D02*
X162550202Y-66410104D01*
X162550202Y-66410104D02*
X162435916Y-66381532D01*
X162435916Y-66381532D02*
X162378773Y-66352961D01*
X162378773Y-66352961D02*
X162321631Y-66295818D01*
X162321631Y-66295818D02*
X162293059Y-66210104D01*
X162293059Y-66210104D02*
X162293059Y-66067247D01*
X162893059Y-66952961D02*
X162893059Y-66667247D01*
X162893059Y-66667247D02*
X162607345Y-66638675D01*
X162607345Y-66638675D02*
X162635916Y-66667247D01*
X162635916Y-66667247D02*
X162664488Y-66724390D01*
X162664488Y-66724390D02*
X162664488Y-66867247D01*
X162664488Y-66867247D02*
X162635916Y-66924390D01*
X162635916Y-66924390D02*
X162607345Y-66952961D01*
X162607345Y-66952961D02*
X162550202Y-66981532D01*
X162550202Y-66981532D02*
X162407345Y-66981532D01*
X162407345Y-66981532D02*
X162350202Y-66952961D01*
X162350202Y-66952961D02*
X162321631Y-66924390D01*
X162321631Y-66924390D02*
X162293059Y-66867247D01*
X162293059Y-66867247D02*
X162293059Y-66724390D01*
X162293059Y-66724390D02*
X162321631Y-66667247D01*
X162321631Y-66667247D02*
X162350202Y-66638675D01*
X159617178Y-66024106D02*
X160217178Y-66024106D01*
X160217178Y-66024106D02*
X160217178Y-66166963D01*
X160217178Y-66166963D02*
X160188607Y-66252677D01*
X160188607Y-66252677D02*
X160131464Y-66309820D01*
X160131464Y-66309820D02*
X160074321Y-66338391D01*
X160074321Y-66338391D02*
X159960035Y-66366963D01*
X159960035Y-66366963D02*
X159874321Y-66366963D01*
X159874321Y-66366963D02*
X159760035Y-66338391D01*
X159760035Y-66338391D02*
X159702892Y-66309820D01*
X159702892Y-66309820D02*
X159645750Y-66252677D01*
X159645750Y-66252677D02*
X159617178Y-66166963D01*
X159617178Y-66166963D02*
X159617178Y-66024106D01*
X160217178Y-66881249D02*
X160217178Y-66766963D01*
X160217178Y-66766963D02*
X160188607Y-66709820D01*
X160188607Y-66709820D02*
X160160035Y-66681249D01*
X160160035Y-66681249D02*
X160074321Y-66624106D01*
X160074321Y-66624106D02*
X159960035Y-66595534D01*
X159960035Y-66595534D02*
X159731464Y-66595534D01*
X159731464Y-66595534D02*
X159674321Y-66624106D01*
X159674321Y-66624106D02*
X159645750Y-66652677D01*
X159645750Y-66652677D02*
X159617178Y-66709820D01*
X159617178Y-66709820D02*
X159617178Y-66824106D01*
X159617178Y-66824106D02*
X159645750Y-66881249D01*
X159645750Y-66881249D02*
X159674321Y-66909820D01*
X159674321Y-66909820D02*
X159731464Y-66938391D01*
X159731464Y-66938391D02*
X159874321Y-66938391D01*
X159874321Y-66938391D02*
X159931464Y-66909820D01*
X159931464Y-66909820D02*
X159960035Y-66881249D01*
X159960035Y-66881249D02*
X159988607Y-66824106D01*
X159988607Y-66824106D02*
X159988607Y-66709820D01*
X159988607Y-66709820D02*
X159960035Y-66652677D01*
X159960035Y-66652677D02*
X159931464Y-66624106D01*
X159931464Y-66624106D02*
X159874321Y-66595534D01*
X157015549Y-66024106D02*
X157615549Y-66024106D01*
X157615549Y-66024106D02*
X157615549Y-66166963D01*
X157615549Y-66166963D02*
X157586978Y-66252677D01*
X157586978Y-66252677D02*
X157529835Y-66309820D01*
X157529835Y-66309820D02*
X157472692Y-66338391D01*
X157472692Y-66338391D02*
X157358406Y-66366963D01*
X157358406Y-66366963D02*
X157272692Y-66366963D01*
X157272692Y-66366963D02*
X157158406Y-66338391D01*
X157158406Y-66338391D02*
X157101263Y-66309820D01*
X157101263Y-66309820D02*
X157044121Y-66252677D01*
X157044121Y-66252677D02*
X157015549Y-66166963D01*
X157015549Y-66166963D02*
X157015549Y-66024106D01*
X157615549Y-66566963D02*
X157615549Y-66966963D01*
X157615549Y-66966963D02*
X157015549Y-66709820D01*
X153267178Y-66081627D02*
X153867178Y-66081627D01*
X153867178Y-66081627D02*
X153867178Y-66224484D01*
X153867178Y-66224484D02*
X153838607Y-66310198D01*
X153838607Y-66310198D02*
X153781464Y-66367341D01*
X153781464Y-66367341D02*
X153724321Y-66395912D01*
X153724321Y-66395912D02*
X153610035Y-66424484D01*
X153610035Y-66424484D02*
X153524321Y-66424484D01*
X153524321Y-66424484D02*
X153410035Y-66395912D01*
X153410035Y-66395912D02*
X153352892Y-66367341D01*
X153352892Y-66367341D02*
X153295750Y-66310198D01*
X153295750Y-66310198D02*
X153267178Y-66224484D01*
X153267178Y-66224484D02*
X153267178Y-66081627D01*
X153610035Y-66767341D02*
X153638607Y-66710198D01*
X153638607Y-66710198D02*
X153667178Y-66681627D01*
X153667178Y-66681627D02*
X153724321Y-66653055D01*
X153724321Y-66653055D02*
X153752892Y-66653055D01*
X153752892Y-66653055D02*
X153810035Y-66681627D01*
X153810035Y-66681627D02*
X153838607Y-66710198D01*
X153838607Y-66710198D02*
X153867178Y-66767341D01*
X153867178Y-66767341D02*
X153867178Y-66881627D01*
X153867178Y-66881627D02*
X153838607Y-66938770D01*
X153838607Y-66938770D02*
X153810035Y-66967341D01*
X153810035Y-66967341D02*
X153752892Y-66995912D01*
X153752892Y-66995912D02*
X153724321Y-66995912D01*
X153724321Y-66995912D02*
X153667178Y-66967341D01*
X153667178Y-66967341D02*
X153638607Y-66938770D01*
X153638607Y-66938770D02*
X153610035Y-66881627D01*
X153610035Y-66881627D02*
X153610035Y-66767341D01*
X153610035Y-66767341D02*
X153581464Y-66710198D01*
X153581464Y-66710198D02*
X153552892Y-66681627D01*
X153552892Y-66681627D02*
X153495750Y-66653055D01*
X153495750Y-66653055D02*
X153381464Y-66653055D01*
X153381464Y-66653055D02*
X153324321Y-66681627D01*
X153324321Y-66681627D02*
X153295750Y-66710198D01*
X153295750Y-66710198D02*
X153267178Y-66767341D01*
X153267178Y-66767341D02*
X153267178Y-66881627D01*
X153267178Y-66881627D02*
X153295750Y-66938770D01*
X153295750Y-66938770D02*
X153324321Y-66967341D01*
X153324321Y-66967341D02*
X153381464Y-66995912D01*
X153381464Y-66995912D02*
X153495750Y-66995912D01*
X153495750Y-66995912D02*
X153552892Y-66967341D01*
X153552892Y-66967341D02*
X153581464Y-66938770D01*
X153581464Y-66938770D02*
X153610035Y-66881627D01*
X150630768Y-66081627D02*
X151230768Y-66081627D01*
X151230768Y-66081627D02*
X151230768Y-66224484D01*
X151230768Y-66224484D02*
X151202197Y-66310198D01*
X151202197Y-66310198D02*
X151145054Y-66367341D01*
X151145054Y-66367341D02*
X151087911Y-66395912D01*
X151087911Y-66395912D02*
X150973625Y-66424484D01*
X150973625Y-66424484D02*
X150887911Y-66424484D01*
X150887911Y-66424484D02*
X150773625Y-66395912D01*
X150773625Y-66395912D02*
X150716482Y-66367341D01*
X150716482Y-66367341D02*
X150659340Y-66310198D01*
X150659340Y-66310198D02*
X150630768Y-66224484D01*
X150630768Y-66224484D02*
X150630768Y-66081627D01*
X150630768Y-66710198D02*
X150630768Y-66824484D01*
X150630768Y-66824484D02*
X150659340Y-66881627D01*
X150659340Y-66881627D02*
X150687911Y-66910198D01*
X150687911Y-66910198D02*
X150773625Y-66967341D01*
X150773625Y-66967341D02*
X150887911Y-66995912D01*
X150887911Y-66995912D02*
X151116482Y-66995912D01*
X151116482Y-66995912D02*
X151173625Y-66967341D01*
X151173625Y-66967341D02*
X151202197Y-66938770D01*
X151202197Y-66938770D02*
X151230768Y-66881627D01*
X151230768Y-66881627D02*
X151230768Y-66767341D01*
X151230768Y-66767341D02*
X151202197Y-66710198D01*
X151202197Y-66710198D02*
X151173625Y-66681627D01*
X151173625Y-66681627D02*
X151116482Y-66653055D01*
X151116482Y-66653055D02*
X150973625Y-66653055D01*
X150973625Y-66653055D02*
X150916482Y-66681627D01*
X150916482Y-66681627D02*
X150887911Y-66710198D01*
X150887911Y-66710198D02*
X150859340Y-66767341D01*
X150859340Y-66767341D02*
X150859340Y-66881627D01*
X150859340Y-66881627D02*
X150887911Y-66938770D01*
X150887911Y-66938770D02*
X150916482Y-66967341D01*
X150916482Y-66967341D02*
X150973625Y-66995912D01*
X148056723Y-66139148D02*
X148656723Y-66139148D01*
X148656723Y-66139148D02*
X148656723Y-66282005D01*
X148656723Y-66282005D02*
X148628152Y-66367719D01*
X148628152Y-66367719D02*
X148571009Y-66424862D01*
X148571009Y-66424862D02*
X148513866Y-66453433D01*
X148513866Y-66453433D02*
X148399580Y-66482005D01*
X148399580Y-66482005D02*
X148313866Y-66482005D01*
X148313866Y-66482005D02*
X148199580Y-66453433D01*
X148199580Y-66453433D02*
X148142437Y-66424862D01*
X148142437Y-66424862D02*
X148085295Y-66367719D01*
X148085295Y-66367719D02*
X148056723Y-66282005D01*
X148056723Y-66282005D02*
X148056723Y-66139148D01*
X148056723Y-67053433D02*
X148056723Y-66710576D01*
X148056723Y-66882005D02*
X148656723Y-66882005D01*
X148656723Y-66882005D02*
X148571009Y-66824862D01*
X148571009Y-66824862D02*
X148513866Y-66767719D01*
X148513866Y-66767719D02*
X148485295Y-66710576D01*
X148656723Y-67424862D02*
X148656723Y-67482005D01*
X148656723Y-67482005D02*
X148628152Y-67539148D01*
X148628152Y-67539148D02*
X148599580Y-67567720D01*
X148599580Y-67567720D02*
X148542437Y-67596291D01*
X148542437Y-67596291D02*
X148428152Y-67624862D01*
X148428152Y-67624862D02*
X148285295Y-67624862D01*
X148285295Y-67624862D02*
X148171009Y-67596291D01*
X148171009Y-67596291D02*
X148113866Y-67567720D01*
X148113866Y-67567720D02*
X148085295Y-67539148D01*
X148085295Y-67539148D02*
X148056723Y-67482005D01*
X148056723Y-67482005D02*
X148056723Y-67424862D01*
X148056723Y-67424862D02*
X148085295Y-67367720D01*
X148085295Y-67367720D02*
X148113866Y-67339148D01*
X148113866Y-67339148D02*
X148171009Y-67310577D01*
X148171009Y-67310577D02*
X148285295Y-67282005D01*
X148285295Y-67282005D02*
X148428152Y-67282005D01*
X148428152Y-67282005D02*
X148542437Y-67310577D01*
X148542437Y-67310577D02*
X148599580Y-67339148D01*
X148599580Y-67339148D02*
X148628152Y-67367720D01*
X148628152Y-67367720D02*
X148656723Y-67424862D01*
X145540199Y-66153528D02*
X146140199Y-66153528D01*
X146140199Y-66153528D02*
X146140199Y-66296385D01*
X146140199Y-66296385D02*
X146111628Y-66382099D01*
X146111628Y-66382099D02*
X146054485Y-66439242D01*
X146054485Y-66439242D02*
X145997342Y-66467813D01*
X145997342Y-66467813D02*
X145883056Y-66496385D01*
X145883056Y-66496385D02*
X145797342Y-66496385D01*
X145797342Y-66496385D02*
X145683056Y-66467813D01*
X145683056Y-66467813D02*
X145625913Y-66439242D01*
X145625913Y-66439242D02*
X145568771Y-66382099D01*
X145568771Y-66382099D02*
X145540199Y-66296385D01*
X145540199Y-66296385D02*
X145540199Y-66153528D01*
X145540199Y-67067813D02*
X145540199Y-66724956D01*
X145540199Y-66896385D02*
X146140199Y-66896385D01*
X146140199Y-66896385D02*
X146054485Y-66839242D01*
X146054485Y-66839242D02*
X145997342Y-66782099D01*
X145997342Y-66782099D02*
X145968771Y-66724956D01*
X145540199Y-67639242D02*
X145540199Y-67296385D01*
X145540199Y-67467814D02*
X146140199Y-67467814D01*
X146140199Y-67467814D02*
X146054485Y-67410671D01*
X146054485Y-67410671D02*
X145997342Y-67353528D01*
X145997342Y-67353528D02*
X145968771Y-67296385D01*
X142948428Y-66038487D02*
X143548428Y-66038487D01*
X143548428Y-66038487D02*
X143548428Y-66181344D01*
X143548428Y-66181344D02*
X143519857Y-66267058D01*
X143519857Y-66267058D02*
X143462714Y-66324201D01*
X143462714Y-66324201D02*
X143405571Y-66352772D01*
X143405571Y-66352772D02*
X143291285Y-66381344D01*
X143291285Y-66381344D02*
X143205571Y-66381344D01*
X143205571Y-66381344D02*
X143091285Y-66352772D01*
X143091285Y-66352772D02*
X143034142Y-66324201D01*
X143034142Y-66324201D02*
X142977000Y-66267058D01*
X142977000Y-66267058D02*
X142948428Y-66181344D01*
X142948428Y-66181344D02*
X142948428Y-66038487D01*
X142948428Y-66952772D02*
X142948428Y-66609915D01*
X142948428Y-66781344D02*
X143548428Y-66781344D01*
X143548428Y-66781344D02*
X143462714Y-66724201D01*
X143462714Y-66724201D02*
X143405571Y-66667058D01*
X143405571Y-66667058D02*
X143377000Y-66609915D01*
X143491285Y-67181344D02*
X143519857Y-67209916D01*
X143519857Y-67209916D02*
X143548428Y-67267059D01*
X143548428Y-67267059D02*
X143548428Y-67409916D01*
X143548428Y-67409916D02*
X143519857Y-67467059D01*
X143519857Y-67467059D02*
X143491285Y-67495630D01*
X143491285Y-67495630D02*
X143434142Y-67524201D01*
X143434142Y-67524201D02*
X143377000Y-67524201D01*
X143377000Y-67524201D02*
X143291285Y-67495630D01*
X143291285Y-67495630D02*
X142948428Y-67152773D01*
X142948428Y-67152773D02*
X142948428Y-67524201D01*
X140567178Y-66038487D02*
X141167178Y-66038487D01*
X141167178Y-66038487D02*
X141167178Y-66181344D01*
X141167178Y-66181344D02*
X141138607Y-66267058D01*
X141138607Y-66267058D02*
X141081464Y-66324201D01*
X141081464Y-66324201D02*
X141024321Y-66352772D01*
X141024321Y-66352772D02*
X140910035Y-66381344D01*
X140910035Y-66381344D02*
X140824321Y-66381344D01*
X140824321Y-66381344D02*
X140710035Y-66352772D01*
X140710035Y-66352772D02*
X140652892Y-66324201D01*
X140652892Y-66324201D02*
X140595750Y-66267058D01*
X140595750Y-66267058D02*
X140567178Y-66181344D01*
X140567178Y-66181344D02*
X140567178Y-66038487D01*
X140567178Y-66952772D02*
X140567178Y-66609915D01*
X140567178Y-66781344D02*
X141167178Y-66781344D01*
X141167178Y-66781344D02*
X141081464Y-66724201D01*
X141081464Y-66724201D02*
X141024321Y-66667058D01*
X141024321Y-66667058D02*
X140995750Y-66609915D01*
X141167178Y-67152773D02*
X141167178Y-67524201D01*
X141167178Y-67524201D02*
X140938607Y-67324201D01*
X140938607Y-67324201D02*
X140938607Y-67409916D01*
X140938607Y-67409916D02*
X140910035Y-67467059D01*
X140910035Y-67467059D02*
X140881464Y-67495630D01*
X140881464Y-67495630D02*
X140824321Y-67524201D01*
X140824321Y-67524201D02*
X140681464Y-67524201D01*
X140681464Y-67524201D02*
X140624321Y-67495630D01*
X140624321Y-67495630D02*
X140595750Y-67467059D01*
X140595750Y-67467059D02*
X140567178Y-67409916D01*
X140567178Y-67409916D02*
X140567178Y-67238487D01*
X140567178Y-67238487D02*
X140595750Y-67181344D01*
X140595750Y-67181344D02*
X140624321Y-67152773D01*
X138432634Y-66352772D02*
X138461205Y-66295630D01*
X138461205Y-66295630D02*
X138461205Y-66209915D01*
X138461205Y-66209915D02*
X138432634Y-66124201D01*
X138432634Y-66124201D02*
X138375491Y-66067058D01*
X138375491Y-66067058D02*
X138318348Y-66038487D01*
X138318348Y-66038487D02*
X138204062Y-66009915D01*
X138204062Y-66009915D02*
X138118348Y-66009915D01*
X138118348Y-66009915D02*
X138004062Y-66038487D01*
X138004062Y-66038487D02*
X137946919Y-66067058D01*
X137946919Y-66067058D02*
X137889777Y-66124201D01*
X137889777Y-66124201D02*
X137861205Y-66209915D01*
X137861205Y-66209915D02*
X137861205Y-66267058D01*
X137861205Y-66267058D02*
X137889777Y-66352772D01*
X137889777Y-66352772D02*
X137918348Y-66381344D01*
X137918348Y-66381344D02*
X138118348Y-66381344D01*
X138118348Y-66381344D02*
X138118348Y-66267058D01*
X137861205Y-66638487D02*
X138461205Y-66638487D01*
X138461205Y-66638487D02*
X137861205Y-66981344D01*
X137861205Y-66981344D02*
X138461205Y-66981344D01*
X137861205Y-67267058D02*
X138461205Y-67267058D01*
X138461205Y-67267058D02*
X138461205Y-67409915D01*
X138461205Y-67409915D02*
X138432634Y-67495629D01*
X138432634Y-67495629D02*
X138375491Y-67552772D01*
X138375491Y-67552772D02*
X138318348Y-67581343D01*
X138318348Y-67581343D02*
X138204062Y-67609915D01*
X138204062Y-67609915D02*
X138118348Y-67609915D01*
X138118348Y-67609915D02*
X138004062Y-67581343D01*
X138004062Y-67581343D02*
X137946919Y-67552772D01*
X137946919Y-67552772D02*
X137889777Y-67495629D01*
X137889777Y-67495629D02*
X137861205Y-67409915D01*
X137861205Y-67409915D02*
X137861205Y-67267058D01*
X135544870Y-65995534D02*
X135544870Y-66281249D01*
X135373441Y-65938391D02*
X135973441Y-66138391D01*
X135973441Y-66138391D02*
X135373441Y-66338391D01*
X135373441Y-66881249D02*
X135659155Y-66681249D01*
X135373441Y-66538392D02*
X135973441Y-66538392D01*
X135973441Y-66538392D02*
X135973441Y-66766963D01*
X135973441Y-66766963D02*
X135944870Y-66824106D01*
X135944870Y-66824106D02*
X135916298Y-66852677D01*
X135916298Y-66852677D02*
X135859155Y-66881249D01*
X135859155Y-66881249D02*
X135773441Y-66881249D01*
X135773441Y-66881249D02*
X135716298Y-66852677D01*
X135716298Y-66852677D02*
X135687727Y-66824106D01*
X135687727Y-66824106D02*
X135659155Y-66766963D01*
X135659155Y-66766963D02*
X135659155Y-66538392D01*
X135687727Y-67138392D02*
X135687727Y-67338392D01*
X135373441Y-67424106D02*
X135373441Y-67138392D01*
X135373441Y-67138392D02*
X135973441Y-67138392D01*
X135973441Y-67138392D02*
X135973441Y-67424106D01*
X135687727Y-67881249D02*
X135687727Y-67681249D01*
X135373441Y-67681249D02*
X135973441Y-67681249D01*
X135973441Y-67681249D02*
X135973441Y-67966963D01*
X132658250Y-65995535D02*
X132629678Y-66081250D01*
X132629678Y-66081250D02*
X132629678Y-66224107D01*
X132629678Y-66224107D02*
X132658250Y-66281250D01*
X132658250Y-66281250D02*
X132686821Y-66309821D01*
X132686821Y-66309821D02*
X132743964Y-66338392D01*
X132743964Y-66338392D02*
X132801107Y-66338392D01*
X132801107Y-66338392D02*
X132858250Y-66309821D01*
X132858250Y-66309821D02*
X132886821Y-66281250D01*
X132886821Y-66281250D02*
X132915392Y-66224107D01*
X132915392Y-66224107D02*
X132943964Y-66109821D01*
X132943964Y-66109821D02*
X132972535Y-66052678D01*
X132972535Y-66052678D02*
X133001107Y-66024107D01*
X133001107Y-66024107D02*
X133058250Y-65995535D01*
X133058250Y-65995535D02*
X133115392Y-65995535D01*
X133115392Y-65995535D02*
X133172535Y-66024107D01*
X133172535Y-66024107D02*
X133201107Y-66052678D01*
X133201107Y-66052678D02*
X133229678Y-66109821D01*
X133229678Y-66109821D02*
X133229678Y-66252678D01*
X133229678Y-66252678D02*
X133201107Y-66338392D01*
X132629678Y-66595536D02*
X133229678Y-66595536D01*
X133229678Y-66595536D02*
X133229678Y-66738393D01*
X133229678Y-66738393D02*
X133201107Y-66824107D01*
X133201107Y-66824107D02*
X133143964Y-66881250D01*
X133143964Y-66881250D02*
X133086821Y-66909821D01*
X133086821Y-66909821D02*
X132972535Y-66938393D01*
X132972535Y-66938393D02*
X132886821Y-66938393D01*
X132886821Y-66938393D02*
X132772535Y-66909821D01*
X132772535Y-66909821D02*
X132715392Y-66881250D01*
X132715392Y-66881250D02*
X132658250Y-66824107D01*
X132658250Y-66824107D02*
X132629678Y-66738393D01*
X132629678Y-66738393D02*
X132629678Y-66595536D01*
X132801107Y-67166964D02*
X132801107Y-67452679D01*
X132629678Y-67109821D02*
X133229678Y-67309821D01*
X133229678Y-67309821D02*
X132629678Y-67509821D01*
X130277000Y-65995535D02*
X130248428Y-66081250D01*
X130248428Y-66081250D02*
X130248428Y-66224107D01*
X130248428Y-66224107D02*
X130277000Y-66281250D01*
X130277000Y-66281250D02*
X130305571Y-66309821D01*
X130305571Y-66309821D02*
X130362714Y-66338392D01*
X130362714Y-66338392D02*
X130419857Y-66338392D01*
X130419857Y-66338392D02*
X130477000Y-66309821D01*
X130477000Y-66309821D02*
X130505571Y-66281250D01*
X130505571Y-66281250D02*
X130534142Y-66224107D01*
X130534142Y-66224107D02*
X130562714Y-66109821D01*
X130562714Y-66109821D02*
X130591285Y-66052678D01*
X130591285Y-66052678D02*
X130619857Y-66024107D01*
X130619857Y-66024107D02*
X130677000Y-65995535D01*
X130677000Y-65995535D02*
X130734142Y-65995535D01*
X130734142Y-65995535D02*
X130791285Y-66024107D01*
X130791285Y-66024107D02*
X130819857Y-66052678D01*
X130819857Y-66052678D02*
X130848428Y-66109821D01*
X130848428Y-66109821D02*
X130848428Y-66252678D01*
X130848428Y-66252678D02*
X130819857Y-66338392D01*
X130305571Y-66938393D02*
X130277000Y-66909821D01*
X130277000Y-66909821D02*
X130248428Y-66824107D01*
X130248428Y-66824107D02*
X130248428Y-66766964D01*
X130248428Y-66766964D02*
X130277000Y-66681250D01*
X130277000Y-66681250D02*
X130334142Y-66624107D01*
X130334142Y-66624107D02*
X130391285Y-66595536D01*
X130391285Y-66595536D02*
X130505571Y-66566964D01*
X130505571Y-66566964D02*
X130591285Y-66566964D01*
X130591285Y-66566964D02*
X130705571Y-66595536D01*
X130705571Y-66595536D02*
X130762714Y-66624107D01*
X130762714Y-66624107D02*
X130819857Y-66681250D01*
X130819857Y-66681250D02*
X130848428Y-66766964D01*
X130848428Y-66766964D02*
X130848428Y-66824107D01*
X130848428Y-66824107D02*
X130819857Y-66909821D01*
X130819857Y-66909821D02*
X130791285Y-66938393D01*
X130248428Y-67481250D02*
X130248428Y-67195536D01*
X130248428Y-67195536D02*
X130848428Y-67195536D01*
D10*
X123509411Y-78559024D02*
X124318934Y-78559024D01*
X124318934Y-78559024D02*
X124414172Y-78511405D01*
X124414172Y-78511405D02*
X124461792Y-78463786D01*
X124461792Y-78463786D02*
X124509411Y-78368548D01*
X124509411Y-78368548D02*
X124509411Y-78178072D01*
X124509411Y-78178072D02*
X124461792Y-78082834D01*
X124461792Y-78082834D02*
X124414172Y-78035215D01*
X124414172Y-78035215D02*
X124318934Y-77987596D01*
X124318934Y-77987596D02*
X123509411Y-77987596D01*
X124461792Y-77559024D02*
X124509411Y-77416167D01*
X124509411Y-77416167D02*
X124509411Y-77178072D01*
X124509411Y-77178072D02*
X124461792Y-77082834D01*
X124461792Y-77082834D02*
X124414172Y-77035215D01*
X124414172Y-77035215D02*
X124318934Y-76987596D01*
X124318934Y-76987596D02*
X124223696Y-76987596D01*
X124223696Y-76987596D02*
X124128458Y-77035215D01*
X124128458Y-77035215D02*
X124080839Y-77082834D01*
X124080839Y-77082834D02*
X124033220Y-77178072D01*
X124033220Y-77178072D02*
X123985601Y-77368548D01*
X123985601Y-77368548D02*
X123937982Y-77463786D01*
X123937982Y-77463786D02*
X123890363Y-77511405D01*
X123890363Y-77511405D02*
X123795125Y-77559024D01*
X123795125Y-77559024D02*
X123699887Y-77559024D01*
X123699887Y-77559024D02*
X123604649Y-77511405D01*
X123604649Y-77511405D02*
X123557030Y-77463786D01*
X123557030Y-77463786D02*
X123509411Y-77368548D01*
X123509411Y-77368548D02*
X123509411Y-77130453D01*
X123509411Y-77130453D02*
X123557030Y-76987596D01*
X123985601Y-76225691D02*
X124033220Y-76082834D01*
X124033220Y-76082834D02*
X124080839Y-76035215D01*
X124080839Y-76035215D02*
X124176077Y-75987596D01*
X124176077Y-75987596D02*
X124318934Y-75987596D01*
X124318934Y-75987596D02*
X124414172Y-76035215D01*
X124414172Y-76035215D02*
X124461792Y-76082834D01*
X124461792Y-76082834D02*
X124509411Y-76178072D01*
X124509411Y-76178072D02*
X124509411Y-76559024D01*
X124509411Y-76559024D02*
X123509411Y-76559024D01*
X123509411Y-76559024D02*
X123509411Y-76225691D01*
X123509411Y-76225691D02*
X123557030Y-76130453D01*
X123557030Y-76130453D02*
X123604649Y-76082834D01*
X123604649Y-76082834D02*
X123699887Y-76035215D01*
X123699887Y-76035215D02*
X123795125Y-76035215D01*
X123795125Y-76035215D02*
X123890363Y-76082834D01*
X123890363Y-76082834D02*
X123937982Y-76130453D01*
X123937982Y-76130453D02*
X123985601Y-76225691D01*
X123985601Y-76225691D02*
X123985601Y-76559024D01*
X133516987Y-91428972D02*
X132516987Y-91428972D01*
X132897939Y-91428972D02*
X132850320Y-91333734D01*
X132850320Y-91333734D02*
X132850320Y-91143258D01*
X132850320Y-91143258D02*
X132897939Y-91048020D01*
X132897939Y-91048020D02*
X132945558Y-91000401D01*
X132945558Y-91000401D02*
X133040796Y-90952782D01*
X133040796Y-90952782D02*
X133326510Y-90952782D01*
X133326510Y-90952782D02*
X133421748Y-91000401D01*
X133421748Y-91000401D02*
X133469368Y-91048020D01*
X133469368Y-91048020D02*
X133516987Y-91143258D01*
X133516987Y-91143258D02*
X133516987Y-91333734D01*
X133516987Y-91333734D02*
X133469368Y-91428972D01*
X132850320Y-90667067D02*
X132850320Y-90286115D01*
X132516987Y-90524210D02*
X133374129Y-90524210D01*
X133374129Y-90524210D02*
X133469368Y-90476591D01*
X133469368Y-90476591D02*
X133516987Y-90381353D01*
X133516987Y-90381353D02*
X133516987Y-90286115D01*
X132850320Y-89952781D02*
X133516987Y-89952781D01*
X132945558Y-89952781D02*
X132897939Y-89905162D01*
X132897939Y-89905162D02*
X132850320Y-89809924D01*
X132850320Y-89809924D02*
X132850320Y-89667067D01*
X132850320Y-89667067D02*
X132897939Y-89571829D01*
X132897939Y-89571829D02*
X132993177Y-89524210D01*
X132993177Y-89524210D02*
X133516987Y-89524210D01*
X132612225Y-89095638D02*
X132564606Y-89048019D01*
X132564606Y-89048019D02*
X132516987Y-88952781D01*
X132516987Y-88952781D02*
X132516987Y-88714686D01*
X132516987Y-88714686D02*
X132564606Y-88619448D01*
X132564606Y-88619448D02*
X132612225Y-88571829D01*
X132612225Y-88571829D02*
X132707463Y-88524210D01*
X132707463Y-88524210D02*
X132802701Y-88524210D01*
X132802701Y-88524210D02*
X132945558Y-88571829D01*
X132945558Y-88571829D02*
X133516987Y-89143257D01*
X133516987Y-89143257D02*
X133516987Y-88524210D01*
X133327231Y-82891884D02*
X132993898Y-82415693D01*
X132755803Y-82891884D02*
X132755803Y-81891884D01*
X132755803Y-81891884D02*
X133136755Y-81891884D01*
X133136755Y-81891884D02*
X133231993Y-81939503D01*
X133231993Y-81939503D02*
X133279612Y-81987122D01*
X133279612Y-81987122D02*
X133327231Y-82082360D01*
X133327231Y-82082360D02*
X133327231Y-82225217D01*
X133327231Y-82225217D02*
X133279612Y-82320455D01*
X133279612Y-82320455D02*
X133231993Y-82368074D01*
X133231993Y-82368074D02*
X133136755Y-82415693D01*
X133136755Y-82415693D02*
X132755803Y-82415693D01*
X134136755Y-82844265D02*
X134041517Y-82891884D01*
X134041517Y-82891884D02*
X133851041Y-82891884D01*
X133851041Y-82891884D02*
X133755803Y-82844265D01*
X133755803Y-82844265D02*
X133708184Y-82749026D01*
X133708184Y-82749026D02*
X133708184Y-82368074D01*
X133708184Y-82368074D02*
X133755803Y-82272836D01*
X133755803Y-82272836D02*
X133851041Y-82225217D01*
X133851041Y-82225217D02*
X134041517Y-82225217D01*
X134041517Y-82225217D02*
X134136755Y-82272836D01*
X134136755Y-82272836D02*
X134184374Y-82368074D01*
X134184374Y-82368074D02*
X134184374Y-82463312D01*
X134184374Y-82463312D02*
X133708184Y-82558550D01*
X134565327Y-82844265D02*
X134660565Y-82891884D01*
X134660565Y-82891884D02*
X134851041Y-82891884D01*
X134851041Y-82891884D02*
X134946279Y-82844265D01*
X134946279Y-82844265D02*
X134993898Y-82749026D01*
X134993898Y-82749026D02*
X134993898Y-82701407D01*
X134993898Y-82701407D02*
X134946279Y-82606169D01*
X134946279Y-82606169D02*
X134851041Y-82558550D01*
X134851041Y-82558550D02*
X134708184Y-82558550D01*
X134708184Y-82558550D02*
X134612946Y-82510931D01*
X134612946Y-82510931D02*
X134565327Y-82415693D01*
X134565327Y-82415693D02*
X134565327Y-82368074D01*
X134565327Y-82368074D02*
X134612946Y-82272836D01*
X134612946Y-82272836D02*
X134708184Y-82225217D01*
X134708184Y-82225217D02*
X134851041Y-82225217D01*
X134851041Y-82225217D02*
X134946279Y-82272836D01*
X135803422Y-82844265D02*
X135708184Y-82891884D01*
X135708184Y-82891884D02*
X135517708Y-82891884D01*
X135517708Y-82891884D02*
X135422470Y-82844265D01*
X135422470Y-82844265D02*
X135374851Y-82749026D01*
X135374851Y-82749026D02*
X135374851Y-82368074D01*
X135374851Y-82368074D02*
X135422470Y-82272836D01*
X135422470Y-82272836D02*
X135517708Y-82225217D01*
X135517708Y-82225217D02*
X135708184Y-82225217D01*
X135708184Y-82225217D02*
X135803422Y-82272836D01*
X135803422Y-82272836D02*
X135851041Y-82368074D01*
X135851041Y-82368074D02*
X135851041Y-82463312D01*
X135851041Y-82463312D02*
X135374851Y-82558550D01*
X136136756Y-82225217D02*
X136517708Y-82225217D01*
X136279613Y-81891884D02*
X136279613Y-82749026D01*
X136279613Y-82749026D02*
X136327232Y-82844265D01*
X136327232Y-82844265D02*
X136422470Y-82891884D01*
X136422470Y-82891884D02*
X136517708Y-82891884D01*
X137612947Y-82891884D02*
X137612947Y-81891884D01*
X137612947Y-82272836D02*
X137708185Y-82225217D01*
X137708185Y-82225217D02*
X137898661Y-82225217D01*
X137898661Y-82225217D02*
X137993899Y-82272836D01*
X137993899Y-82272836D02*
X138041518Y-82320455D01*
X138041518Y-82320455D02*
X138089137Y-82415693D01*
X138089137Y-82415693D02*
X138089137Y-82701407D01*
X138089137Y-82701407D02*
X138041518Y-82796645D01*
X138041518Y-82796645D02*
X137993899Y-82844265D01*
X137993899Y-82844265D02*
X137898661Y-82891884D01*
X137898661Y-82891884D02*
X137708185Y-82891884D01*
X137708185Y-82891884D02*
X137612947Y-82844265D01*
X138374852Y-82225217D02*
X138755804Y-82225217D01*
X138517709Y-81891884D02*
X138517709Y-82749026D01*
X138517709Y-82749026D02*
X138565328Y-82844265D01*
X138565328Y-82844265D02*
X138660566Y-82891884D01*
X138660566Y-82891884D02*
X138755804Y-82891884D01*
X139089138Y-82225217D02*
X139089138Y-82891884D01*
X139089138Y-82320455D02*
X139136757Y-82272836D01*
X139136757Y-82272836D02*
X139231995Y-82225217D01*
X139231995Y-82225217D02*
X139374852Y-82225217D01*
X139374852Y-82225217D02*
X139470090Y-82272836D01*
X139470090Y-82272836D02*
X139517709Y-82368074D01*
X139517709Y-82368074D02*
X139517709Y-82891884D01*
X133318154Y-75918988D02*
X133222916Y-75871369D01*
X133222916Y-75871369D02*
X133080059Y-75871369D01*
X133080059Y-75871369D02*
X132937202Y-75918988D01*
X132937202Y-75918988D02*
X132841964Y-76014226D01*
X132841964Y-76014226D02*
X132794345Y-76109464D01*
X132794345Y-76109464D02*
X132746726Y-76299940D01*
X132746726Y-76299940D02*
X132746726Y-76442797D01*
X132746726Y-76442797D02*
X132794345Y-76633273D01*
X132794345Y-76633273D02*
X132841964Y-76728511D01*
X132841964Y-76728511D02*
X132937202Y-76823750D01*
X132937202Y-76823750D02*
X133080059Y-76871369D01*
X133080059Y-76871369D02*
X133175297Y-76871369D01*
X133175297Y-76871369D02*
X133318154Y-76823750D01*
X133318154Y-76823750D02*
X133365773Y-76776130D01*
X133365773Y-76776130D02*
X133365773Y-76442797D01*
X133365773Y-76442797D02*
X133175297Y-76442797D01*
X133794345Y-76871369D02*
X133794345Y-75871369D01*
X133794345Y-75871369D02*
X134365773Y-76871369D01*
X134365773Y-76871369D02*
X134365773Y-75871369D01*
X134841964Y-76871369D02*
X134841964Y-75871369D01*
X134841964Y-75871369D02*
X135080059Y-75871369D01*
X135080059Y-75871369D02*
X135222916Y-75918988D01*
X135222916Y-75918988D02*
X135318154Y-76014226D01*
X135318154Y-76014226D02*
X135365773Y-76109464D01*
X135365773Y-76109464D02*
X135413392Y-76299940D01*
X135413392Y-76299940D02*
X135413392Y-76442797D01*
X135413392Y-76442797D02*
X135365773Y-76633273D01*
X135365773Y-76633273D02*
X135318154Y-76728511D01*
X135318154Y-76728511D02*
X135222916Y-76823750D01*
X135222916Y-76823750D02*
X135080059Y-76871369D01*
X135080059Y-76871369D02*
X134841964Y-76871369D01*
X133270535Y-73490119D02*
X132794345Y-73490119D01*
X132794345Y-73490119D02*
X132746726Y-73966309D01*
X132746726Y-73966309D02*
X132794345Y-73918690D01*
X132794345Y-73918690D02*
X132889583Y-73871071D01*
X132889583Y-73871071D02*
X133127678Y-73871071D01*
X133127678Y-73871071D02*
X133222916Y-73918690D01*
X133222916Y-73918690D02*
X133270535Y-73966309D01*
X133270535Y-73966309D02*
X133318154Y-74061547D01*
X133318154Y-74061547D02*
X133318154Y-74299642D01*
X133318154Y-74299642D02*
X133270535Y-74394880D01*
X133270535Y-74394880D02*
X133222916Y-74442500D01*
X133222916Y-74442500D02*
X133127678Y-74490119D01*
X133127678Y-74490119D02*
X132889583Y-74490119D01*
X132889583Y-74490119D02*
X132794345Y-74442500D01*
X132794345Y-74442500D02*
X132746726Y-74394880D01*
X133603869Y-73490119D02*
X133937202Y-74490119D01*
X133937202Y-74490119D02*
X134270535Y-73490119D01*
X133285654Y-71744991D02*
X132952321Y-71268800D01*
X132714226Y-71744991D02*
X132714226Y-70744991D01*
X132714226Y-70744991D02*
X133095178Y-70744991D01*
X133095178Y-70744991D02*
X133190416Y-70792610D01*
X133190416Y-70792610D02*
X133238035Y-70840229D01*
X133238035Y-70840229D02*
X133285654Y-70935467D01*
X133285654Y-70935467D02*
X133285654Y-71078324D01*
X133285654Y-71078324D02*
X133238035Y-71173562D01*
X133238035Y-71173562D02*
X133190416Y-71221181D01*
X133190416Y-71221181D02*
X133095178Y-71268800D01*
X133095178Y-71268800D02*
X132714226Y-71268800D01*
X134095178Y-71697372D02*
X133999940Y-71744991D01*
X133999940Y-71744991D02*
X133809464Y-71744991D01*
X133809464Y-71744991D02*
X133714226Y-71697372D01*
X133714226Y-71697372D02*
X133666607Y-71602133D01*
X133666607Y-71602133D02*
X133666607Y-71221181D01*
X133666607Y-71221181D02*
X133714226Y-71125943D01*
X133714226Y-71125943D02*
X133809464Y-71078324D01*
X133809464Y-71078324D02*
X133999940Y-71078324D01*
X133999940Y-71078324D02*
X134095178Y-71125943D01*
X134095178Y-71125943D02*
X134142797Y-71221181D01*
X134142797Y-71221181D02*
X134142797Y-71316419D01*
X134142797Y-71316419D02*
X133666607Y-71411657D01*
X134714226Y-71744991D02*
X134618988Y-71697372D01*
X134618988Y-71697372D02*
X134571369Y-71602133D01*
X134571369Y-71602133D02*
X134571369Y-70744991D01*
X135523750Y-71744991D02*
X135523750Y-71221181D01*
X135523750Y-71221181D02*
X135476131Y-71125943D01*
X135476131Y-71125943D02*
X135380893Y-71078324D01*
X135380893Y-71078324D02*
X135190417Y-71078324D01*
X135190417Y-71078324D02*
X135095179Y-71125943D01*
X135523750Y-71697372D02*
X135428512Y-71744991D01*
X135428512Y-71744991D02*
X135190417Y-71744991D01*
X135190417Y-71744991D02*
X135095179Y-71697372D01*
X135095179Y-71697372D02*
X135047560Y-71602133D01*
X135047560Y-71602133D02*
X135047560Y-71506895D01*
X135047560Y-71506895D02*
X135095179Y-71411657D01*
X135095179Y-71411657D02*
X135190417Y-71364038D01*
X135190417Y-71364038D02*
X135428512Y-71364038D01*
X135428512Y-71364038D02*
X135523750Y-71316419D01*
X135904703Y-71078324D02*
X136142798Y-71744991D01*
X136380893Y-71078324D02*
X136142798Y-71744991D01*
X136142798Y-71744991D02*
X136047560Y-71983086D01*
X136047560Y-71983086D02*
X135999941Y-72030705D01*
X135999941Y-72030705D02*
X135904703Y-72078324D01*
X137476132Y-71697372D02*
X137618989Y-71744991D01*
X137618989Y-71744991D02*
X137857084Y-71744991D01*
X137857084Y-71744991D02*
X137952322Y-71697372D01*
X137952322Y-71697372D02*
X137999941Y-71649752D01*
X137999941Y-71649752D02*
X138047560Y-71554514D01*
X138047560Y-71554514D02*
X138047560Y-71459276D01*
X138047560Y-71459276D02*
X137999941Y-71364038D01*
X137999941Y-71364038D02*
X137952322Y-71316419D01*
X137952322Y-71316419D02*
X137857084Y-71268800D01*
X137857084Y-71268800D02*
X137666608Y-71221181D01*
X137666608Y-71221181D02*
X137571370Y-71173562D01*
X137571370Y-71173562D02*
X137523751Y-71125943D01*
X137523751Y-71125943D02*
X137476132Y-71030705D01*
X137476132Y-71030705D02*
X137476132Y-70935467D01*
X137476132Y-70935467D02*
X137523751Y-70840229D01*
X137523751Y-70840229D02*
X137571370Y-70792610D01*
X137571370Y-70792610D02*
X137666608Y-70744991D01*
X137666608Y-70744991D02*
X137904703Y-70744991D01*
X137904703Y-70744991D02*
X138047560Y-70792610D01*
X138476132Y-71744991D02*
X138476132Y-71078324D01*
X138476132Y-70744991D02*
X138428513Y-70792610D01*
X138428513Y-70792610D02*
X138476132Y-70840229D01*
X138476132Y-70840229D02*
X138523751Y-70792610D01*
X138523751Y-70792610D02*
X138476132Y-70744991D01*
X138476132Y-70744991D02*
X138476132Y-70840229D01*
X139380893Y-71078324D02*
X139380893Y-71887848D01*
X139380893Y-71887848D02*
X139333274Y-71983086D01*
X139333274Y-71983086D02*
X139285655Y-72030705D01*
X139285655Y-72030705D02*
X139190417Y-72078324D01*
X139190417Y-72078324D02*
X139047560Y-72078324D01*
X139047560Y-72078324D02*
X138952322Y-72030705D01*
X139380893Y-71697372D02*
X139285655Y-71744991D01*
X139285655Y-71744991D02*
X139095179Y-71744991D01*
X139095179Y-71744991D02*
X138999941Y-71697372D01*
X138999941Y-71697372D02*
X138952322Y-71649752D01*
X138952322Y-71649752D02*
X138904703Y-71554514D01*
X138904703Y-71554514D02*
X138904703Y-71268800D01*
X138904703Y-71268800D02*
X138952322Y-71173562D01*
X138952322Y-71173562D02*
X138999941Y-71125943D01*
X138999941Y-71125943D02*
X139095179Y-71078324D01*
X139095179Y-71078324D02*
X139285655Y-71078324D01*
X139285655Y-71078324D02*
X139380893Y-71125943D01*
X139857084Y-71078324D02*
X139857084Y-71744991D01*
X139857084Y-71173562D02*
X139904703Y-71125943D01*
X139904703Y-71125943D02*
X139999941Y-71078324D01*
X139999941Y-71078324D02*
X140142798Y-71078324D01*
X140142798Y-71078324D02*
X140238036Y-71125943D01*
X140238036Y-71125943D02*
X140285655Y-71221181D01*
X140285655Y-71221181D02*
X140285655Y-71744991D01*
X141190417Y-71744991D02*
X141190417Y-71221181D01*
X141190417Y-71221181D02*
X141142798Y-71125943D01*
X141142798Y-71125943D02*
X141047560Y-71078324D01*
X141047560Y-71078324D02*
X140857084Y-71078324D01*
X140857084Y-71078324D02*
X140761846Y-71125943D01*
X141190417Y-71697372D02*
X141095179Y-71744991D01*
X141095179Y-71744991D02*
X140857084Y-71744991D01*
X140857084Y-71744991D02*
X140761846Y-71697372D01*
X140761846Y-71697372D02*
X140714227Y-71602133D01*
X140714227Y-71602133D02*
X140714227Y-71506895D01*
X140714227Y-71506895D02*
X140761846Y-71411657D01*
X140761846Y-71411657D02*
X140857084Y-71364038D01*
X140857084Y-71364038D02*
X141095179Y-71364038D01*
X141095179Y-71364038D02*
X141190417Y-71316419D01*
X141809465Y-71744991D02*
X141714227Y-71697372D01*
X141714227Y-71697372D02*
X141666608Y-71602133D01*
X141666608Y-71602133D02*
X141666608Y-70744991D01*
X156511607Y-89365119D02*
X157130654Y-89365119D01*
X157130654Y-89365119D02*
X156797321Y-89746071D01*
X156797321Y-89746071D02*
X156940178Y-89746071D01*
X156940178Y-89746071D02*
X157035416Y-89793690D01*
X157035416Y-89793690D02*
X157083035Y-89841309D01*
X157083035Y-89841309D02*
X157130654Y-89936547D01*
X157130654Y-89936547D02*
X157130654Y-90174642D01*
X157130654Y-90174642D02*
X157083035Y-90269880D01*
X157083035Y-90269880D02*
X157035416Y-90317500D01*
X157035416Y-90317500D02*
X156940178Y-90365119D01*
X156940178Y-90365119D02*
X156654464Y-90365119D01*
X156654464Y-90365119D02*
X156559226Y-90317500D01*
X156559226Y-90317500D02*
X156511607Y-90269880D01*
X157416369Y-89365119D02*
X157749702Y-90365119D01*
X157749702Y-90365119D02*
X158083035Y-89365119D01*
X158321131Y-89365119D02*
X158940178Y-89365119D01*
X158940178Y-89365119D02*
X158606845Y-89746071D01*
X158606845Y-89746071D02*
X158749702Y-89746071D01*
X158749702Y-89746071D02*
X158844940Y-89793690D01*
X158844940Y-89793690D02*
X158892559Y-89841309D01*
X158892559Y-89841309D02*
X158940178Y-89936547D01*
X158940178Y-89936547D02*
X158940178Y-90174642D01*
X158940178Y-90174642D02*
X158892559Y-90269880D01*
X158892559Y-90269880D02*
X158844940Y-90317500D01*
X158844940Y-90317500D02*
X158749702Y-90365119D01*
X158749702Y-90365119D02*
X158463988Y-90365119D01*
X158463988Y-90365119D02*
X158368750Y-90317500D01*
X158368750Y-90317500D02*
X158321131Y-90269880D01*
X157178273Y-87983869D02*
X156844940Y-87507678D01*
X156606845Y-87983869D02*
X156606845Y-86983869D01*
X156606845Y-86983869D02*
X156987797Y-86983869D01*
X156987797Y-86983869D02*
X157083035Y-87031488D01*
X157083035Y-87031488D02*
X157130654Y-87079107D01*
X157130654Y-87079107D02*
X157178273Y-87174345D01*
X157178273Y-87174345D02*
X157178273Y-87317202D01*
X157178273Y-87317202D02*
X157130654Y-87412440D01*
X157130654Y-87412440D02*
X157083035Y-87460059D01*
X157083035Y-87460059D02*
X156987797Y-87507678D01*
X156987797Y-87507678D02*
X156606845Y-87507678D01*
X157559226Y-87936250D02*
X157702083Y-87983869D01*
X157702083Y-87983869D02*
X157940178Y-87983869D01*
X157940178Y-87983869D02*
X158035416Y-87936250D01*
X158035416Y-87936250D02*
X158083035Y-87888630D01*
X158083035Y-87888630D02*
X158130654Y-87793392D01*
X158130654Y-87793392D02*
X158130654Y-87698154D01*
X158130654Y-87698154D02*
X158083035Y-87602916D01*
X158083035Y-87602916D02*
X158035416Y-87555297D01*
X158035416Y-87555297D02*
X157940178Y-87507678D01*
X157940178Y-87507678D02*
X157749702Y-87460059D01*
X157749702Y-87460059D02*
X157654464Y-87412440D01*
X157654464Y-87412440D02*
X157606845Y-87364821D01*
X157606845Y-87364821D02*
X157559226Y-87269583D01*
X157559226Y-87269583D02*
X157559226Y-87174345D01*
X157559226Y-87174345D02*
X157606845Y-87079107D01*
X157606845Y-87079107D02*
X157654464Y-87031488D01*
X157654464Y-87031488D02*
X157749702Y-86983869D01*
X157749702Y-86983869D02*
X157987797Y-86983869D01*
X157987797Y-86983869D02*
X158130654Y-87031488D01*
X158416369Y-86983869D02*
X158987797Y-86983869D01*
X158702083Y-87983869D02*
X158702083Y-86983869D01*
X157130654Y-84650238D02*
X157035416Y-84602619D01*
X157035416Y-84602619D02*
X156892559Y-84602619D01*
X156892559Y-84602619D02*
X156749702Y-84650238D01*
X156749702Y-84650238D02*
X156654464Y-84745476D01*
X156654464Y-84745476D02*
X156606845Y-84840714D01*
X156606845Y-84840714D02*
X156559226Y-85031190D01*
X156559226Y-85031190D02*
X156559226Y-85174047D01*
X156559226Y-85174047D02*
X156606845Y-85364523D01*
X156606845Y-85364523D02*
X156654464Y-85459761D01*
X156654464Y-85459761D02*
X156749702Y-85555000D01*
X156749702Y-85555000D02*
X156892559Y-85602619D01*
X156892559Y-85602619D02*
X156987797Y-85602619D01*
X156987797Y-85602619D02*
X157130654Y-85555000D01*
X157130654Y-85555000D02*
X157178273Y-85507380D01*
X157178273Y-85507380D02*
X157178273Y-85174047D01*
X157178273Y-85174047D02*
X156987797Y-85174047D01*
X157606845Y-85602619D02*
X157606845Y-84602619D01*
X157606845Y-84602619D02*
X158178273Y-85602619D01*
X158178273Y-85602619D02*
X158178273Y-84602619D01*
X158654464Y-85602619D02*
X158654464Y-84602619D01*
X158654464Y-84602619D02*
X158892559Y-84602619D01*
X158892559Y-84602619D02*
X159035416Y-84650238D01*
X159035416Y-84650238D02*
X159130654Y-84745476D01*
X159130654Y-84745476D02*
X159178273Y-84840714D01*
X159178273Y-84840714D02*
X159225892Y-85031190D01*
X159225892Y-85031190D02*
X159225892Y-85174047D01*
X159225892Y-85174047D02*
X159178273Y-85364523D01*
X159178273Y-85364523D02*
X159130654Y-85459761D01*
X159130654Y-85459761D02*
X159035416Y-85555000D01*
X159035416Y-85555000D02*
X158892559Y-85602619D01*
X158892559Y-85602619D02*
X158654464Y-85602619D01*
X156650131Y-83407134D02*
X156616798Y-83369038D01*
X156616798Y-83369038D02*
X156554893Y-83254753D01*
X156554893Y-83254753D02*
X156526321Y-83178562D01*
X156526321Y-83178562D02*
X156502512Y-83064277D01*
X156502512Y-83064277D02*
X156488226Y-82873800D01*
X156488226Y-82873800D02*
X156507274Y-82721419D01*
X156507274Y-82721419D02*
X156569179Y-82530943D01*
X156569179Y-82530943D02*
X156621560Y-82416657D01*
X156621560Y-82416657D02*
X156669179Y-82340467D01*
X156669179Y-82340467D02*
X156759655Y-82226181D01*
X156759655Y-82226181D02*
X156802512Y-82188086D01*
X156950131Y-83102372D02*
X157050131Y-82302372D01*
X157783464Y-83102372D02*
X157564416Y-82721419D01*
X157326321Y-83102372D02*
X157426321Y-82302372D01*
X157426321Y-82302372D02*
X157731083Y-82302372D01*
X157731083Y-82302372D02*
X157802511Y-82340467D01*
X157802511Y-82340467D02*
X157835845Y-82378562D01*
X157835845Y-82378562D02*
X157864416Y-82454753D01*
X157864416Y-82454753D02*
X157850130Y-82569038D01*
X157850130Y-82569038D02*
X157802511Y-82645229D01*
X157802511Y-82645229D02*
X157759654Y-82683324D01*
X157759654Y-82683324D02*
X157678702Y-82721419D01*
X157678702Y-82721419D02*
X157373940Y-82721419D01*
X158645368Y-83178562D02*
X158573940Y-83140467D01*
X158573940Y-83140467D02*
X158507273Y-83064277D01*
X158507273Y-83064277D02*
X158407273Y-82949991D01*
X158407273Y-82949991D02*
X158335845Y-82911896D01*
X158335845Y-82911896D02*
X158259654Y-82911896D01*
X158273940Y-83102372D02*
X158202511Y-83064277D01*
X158202511Y-83064277D02*
X158135845Y-82988086D01*
X158135845Y-82988086D02*
X158116797Y-82835705D01*
X158116797Y-82835705D02*
X158150130Y-82569038D01*
X158150130Y-82569038D02*
X158207273Y-82416657D01*
X158207273Y-82416657D02*
X158292987Y-82340467D01*
X158292987Y-82340467D02*
X158373940Y-82302372D01*
X158373940Y-82302372D02*
X158526321Y-82302372D01*
X158526321Y-82302372D02*
X158597749Y-82340467D01*
X158597749Y-82340467D02*
X158664416Y-82416657D01*
X158664416Y-82416657D02*
X158683464Y-82569038D01*
X158683464Y-82569038D02*
X158650130Y-82835705D01*
X158650130Y-82835705D02*
X158592987Y-82988086D01*
X158592987Y-82988086D02*
X158507273Y-83064277D01*
X158507273Y-83064277D02*
X158426321Y-83102372D01*
X158426321Y-83102372D02*
X158273940Y-83102372D01*
X159592988Y-82797610D02*
X160202512Y-82797610D01*
X161221559Y-82569038D02*
X161154893Y-83102372D01*
X161212036Y-82645229D02*
X161254893Y-82607134D01*
X161254893Y-82607134D02*
X161335845Y-82569038D01*
X161335845Y-82569038D02*
X161450131Y-82569038D01*
X161450131Y-82569038D02*
X161521559Y-82607134D01*
X161521559Y-82607134D02*
X161550131Y-82683324D01*
X161550131Y-82683324D02*
X161497750Y-83102372D01*
X161988227Y-83102372D02*
X161916798Y-83064277D01*
X161916798Y-83064277D02*
X161883465Y-83026181D01*
X161883465Y-83026181D02*
X161854893Y-82949991D01*
X161854893Y-82949991D02*
X161883465Y-82721419D01*
X161883465Y-82721419D02*
X161931084Y-82645229D01*
X161931084Y-82645229D02*
X161973941Y-82607134D01*
X161973941Y-82607134D02*
X162054893Y-82569038D01*
X162054893Y-82569038D02*
X162169179Y-82569038D01*
X162169179Y-82569038D02*
X162240607Y-82607134D01*
X162240607Y-82607134D02*
X162273941Y-82645229D01*
X162273941Y-82645229D02*
X162302512Y-82721419D01*
X162302512Y-82721419D02*
X162273941Y-82949991D01*
X162273941Y-82949991D02*
X162226322Y-83026181D01*
X162226322Y-83026181D02*
X162183465Y-83064277D01*
X162183465Y-83064277D02*
X162102512Y-83102372D01*
X162102512Y-83102372D02*
X161988227Y-83102372D01*
X162545370Y-82569038D02*
X162850132Y-82569038D01*
X162692989Y-82302372D02*
X162607275Y-82988086D01*
X162607275Y-82988086D02*
X162635846Y-83064277D01*
X162635846Y-83064277D02*
X162707275Y-83102372D01*
X162707275Y-83102372D02*
X162783465Y-83102372D01*
X164064418Y-82569038D02*
X163997751Y-83102372D01*
X163721560Y-82569038D02*
X163669180Y-82988086D01*
X163669180Y-82988086D02*
X163697751Y-83064277D01*
X163697751Y-83064277D02*
X163769180Y-83102372D01*
X163769180Y-83102372D02*
X163883465Y-83102372D01*
X163883465Y-83102372D02*
X163964418Y-83064277D01*
X163964418Y-83064277D02*
X164007275Y-83026181D01*
X164340608Y-83064277D02*
X164412037Y-83102372D01*
X164412037Y-83102372D02*
X164564418Y-83102372D01*
X164564418Y-83102372D02*
X164645370Y-83064277D01*
X164645370Y-83064277D02*
X164692989Y-82988086D01*
X164692989Y-82988086D02*
X164697751Y-82949991D01*
X164697751Y-82949991D02*
X164669180Y-82873800D01*
X164669180Y-82873800D02*
X164597751Y-82835705D01*
X164597751Y-82835705D02*
X164483466Y-82835705D01*
X164483466Y-82835705D02*
X164412037Y-82797610D01*
X164412037Y-82797610D02*
X164383466Y-82721419D01*
X164383466Y-82721419D02*
X164388228Y-82683324D01*
X164388228Y-82683324D02*
X164435847Y-82607134D01*
X164435847Y-82607134D02*
X164516799Y-82569038D01*
X164516799Y-82569038D02*
X164631085Y-82569038D01*
X164631085Y-82569038D02*
X164702513Y-82607134D01*
X165326323Y-83064277D02*
X165245370Y-83102372D01*
X165245370Y-83102372D02*
X165092989Y-83102372D01*
X165092989Y-83102372D02*
X165021561Y-83064277D01*
X165021561Y-83064277D02*
X164992989Y-82988086D01*
X164992989Y-82988086D02*
X165031085Y-82683324D01*
X165031085Y-82683324D02*
X165078704Y-82607134D01*
X165078704Y-82607134D02*
X165159656Y-82569038D01*
X165159656Y-82569038D02*
X165312037Y-82569038D01*
X165312037Y-82569038D02*
X165383465Y-82607134D01*
X165383465Y-82607134D02*
X165412037Y-82683324D01*
X165412037Y-82683324D02*
X165402513Y-82759515D01*
X165402513Y-82759515D02*
X165012037Y-82835705D01*
X166040608Y-83102372D02*
X166140608Y-82302372D01*
X166045370Y-83064277D02*
X165964417Y-83102372D01*
X165964417Y-83102372D02*
X165812037Y-83102372D01*
X165812037Y-83102372D02*
X165740608Y-83064277D01*
X165740608Y-83064277D02*
X165707275Y-83026181D01*
X165707275Y-83026181D02*
X165678703Y-82949991D01*
X165678703Y-82949991D02*
X165707275Y-82721419D01*
X165707275Y-82721419D02*
X165754894Y-82645229D01*
X165754894Y-82645229D02*
X165797751Y-82607134D01*
X165797751Y-82607134D02*
X165878703Y-82569038D01*
X165878703Y-82569038D02*
X166031084Y-82569038D01*
X166031084Y-82569038D02*
X166102513Y-82607134D01*
X166302513Y-83407134D02*
X166345370Y-83369038D01*
X166345370Y-83369038D02*
X166435846Y-83254753D01*
X166435846Y-83254753D02*
X166483465Y-83178562D01*
X166483465Y-83178562D02*
X166535846Y-83064277D01*
X166535846Y-83064277D02*
X166597751Y-82873800D01*
X166597751Y-82873800D02*
X166616799Y-82721419D01*
X166616799Y-82721419D02*
X166602513Y-82530943D01*
X166602513Y-82530943D02*
X166578704Y-82416657D01*
X166578704Y-82416657D02*
X166550132Y-82340467D01*
X166550132Y-82340467D02*
X166488227Y-82226181D01*
X166488227Y-82226181D02*
X166454894Y-82188086D01*
X156606845Y-80046369D02*
X156606845Y-79046369D01*
X156606845Y-79046369D02*
X156940178Y-79760654D01*
X156940178Y-79760654D02*
X157273511Y-79046369D01*
X157273511Y-79046369D02*
X157273511Y-80046369D01*
X157749702Y-80046369D02*
X157749702Y-79046369D01*
X158178273Y-79998750D02*
X158321130Y-80046369D01*
X158321130Y-80046369D02*
X158559225Y-80046369D01*
X158559225Y-80046369D02*
X158654463Y-79998750D01*
X158654463Y-79998750D02*
X158702082Y-79951130D01*
X158702082Y-79951130D02*
X158749701Y-79855892D01*
X158749701Y-79855892D02*
X158749701Y-79760654D01*
X158749701Y-79760654D02*
X158702082Y-79665416D01*
X158702082Y-79665416D02*
X158654463Y-79617797D01*
X158654463Y-79617797D02*
X158559225Y-79570178D01*
X158559225Y-79570178D02*
X158368749Y-79522559D01*
X158368749Y-79522559D02*
X158273511Y-79474940D01*
X158273511Y-79474940D02*
X158225892Y-79427321D01*
X158225892Y-79427321D02*
X158178273Y-79332083D01*
X158178273Y-79332083D02*
X158178273Y-79236845D01*
X158178273Y-79236845D02*
X158225892Y-79141607D01*
X158225892Y-79141607D02*
X158273511Y-79093988D01*
X158273511Y-79093988D02*
X158368749Y-79046369D01*
X158368749Y-79046369D02*
X158606844Y-79046369D01*
X158606844Y-79046369D02*
X158749701Y-79093988D01*
X159368749Y-79046369D02*
X159559225Y-79046369D01*
X159559225Y-79046369D02*
X159654463Y-79093988D01*
X159654463Y-79093988D02*
X159749701Y-79189226D01*
X159749701Y-79189226D02*
X159797320Y-79379702D01*
X159797320Y-79379702D02*
X159797320Y-79713035D01*
X159797320Y-79713035D02*
X159749701Y-79903511D01*
X159749701Y-79903511D02*
X159654463Y-79998750D01*
X159654463Y-79998750D02*
X159559225Y-80046369D01*
X159559225Y-80046369D02*
X159368749Y-80046369D01*
X159368749Y-80046369D02*
X159273511Y-79998750D01*
X159273511Y-79998750D02*
X159178273Y-79903511D01*
X159178273Y-79903511D02*
X159130654Y-79713035D01*
X159130654Y-79713035D02*
X159130654Y-79379702D01*
X159130654Y-79379702D02*
X159178273Y-79189226D01*
X159178273Y-79189226D02*
X159273511Y-79093988D01*
X159273511Y-79093988D02*
X159368749Y-79046369D01*
X156606845Y-77665119D02*
X156606845Y-76665119D01*
X156606845Y-76665119D02*
X156940178Y-77379404D01*
X156940178Y-77379404D02*
X157273511Y-76665119D01*
X157273511Y-76665119D02*
X157273511Y-77665119D01*
X157940178Y-76665119D02*
X158130654Y-76665119D01*
X158130654Y-76665119D02*
X158225892Y-76712738D01*
X158225892Y-76712738D02*
X158321130Y-76807976D01*
X158321130Y-76807976D02*
X158368749Y-76998452D01*
X158368749Y-76998452D02*
X158368749Y-77331785D01*
X158368749Y-77331785D02*
X158321130Y-77522261D01*
X158321130Y-77522261D02*
X158225892Y-77617500D01*
X158225892Y-77617500D02*
X158130654Y-77665119D01*
X158130654Y-77665119D02*
X157940178Y-77665119D01*
X157940178Y-77665119D02*
X157844940Y-77617500D01*
X157844940Y-77617500D02*
X157749702Y-77522261D01*
X157749702Y-77522261D02*
X157702083Y-77331785D01*
X157702083Y-77331785D02*
X157702083Y-76998452D01*
X157702083Y-76998452D02*
X157749702Y-76807976D01*
X157749702Y-76807976D02*
X157844940Y-76712738D01*
X157844940Y-76712738D02*
X157940178Y-76665119D01*
X158749702Y-77617500D02*
X158892559Y-77665119D01*
X158892559Y-77665119D02*
X159130654Y-77665119D01*
X159130654Y-77665119D02*
X159225892Y-77617500D01*
X159225892Y-77617500D02*
X159273511Y-77569880D01*
X159273511Y-77569880D02*
X159321130Y-77474642D01*
X159321130Y-77474642D02*
X159321130Y-77379404D01*
X159321130Y-77379404D02*
X159273511Y-77284166D01*
X159273511Y-77284166D02*
X159225892Y-77236547D01*
X159225892Y-77236547D02*
X159130654Y-77188928D01*
X159130654Y-77188928D02*
X158940178Y-77141309D01*
X158940178Y-77141309D02*
X158844940Y-77093690D01*
X158844940Y-77093690D02*
X158797321Y-77046071D01*
X158797321Y-77046071D02*
X158749702Y-76950833D01*
X158749702Y-76950833D02*
X158749702Y-76855595D01*
X158749702Y-76855595D02*
X158797321Y-76760357D01*
X158797321Y-76760357D02*
X158844940Y-76712738D01*
X158844940Y-76712738D02*
X158940178Y-76665119D01*
X158940178Y-76665119D02*
X159178273Y-76665119D01*
X159178273Y-76665119D02*
X159321130Y-76712738D01*
X159749702Y-77665119D02*
X159749702Y-76665119D01*
X156559226Y-75236250D02*
X156702083Y-75283869D01*
X156702083Y-75283869D02*
X156940178Y-75283869D01*
X156940178Y-75283869D02*
X157035416Y-75236250D01*
X157035416Y-75236250D02*
X157083035Y-75188630D01*
X157083035Y-75188630D02*
X157130654Y-75093392D01*
X157130654Y-75093392D02*
X157130654Y-74998154D01*
X157130654Y-74998154D02*
X157083035Y-74902916D01*
X157083035Y-74902916D02*
X157035416Y-74855297D01*
X157035416Y-74855297D02*
X156940178Y-74807678D01*
X156940178Y-74807678D02*
X156749702Y-74760059D01*
X156749702Y-74760059D02*
X156654464Y-74712440D01*
X156654464Y-74712440D02*
X156606845Y-74664821D01*
X156606845Y-74664821D02*
X156559226Y-74569583D01*
X156559226Y-74569583D02*
X156559226Y-74474345D01*
X156559226Y-74474345D02*
X156606845Y-74379107D01*
X156606845Y-74379107D02*
X156654464Y-74331488D01*
X156654464Y-74331488D02*
X156749702Y-74283869D01*
X156749702Y-74283869D02*
X156987797Y-74283869D01*
X156987797Y-74283869D02*
X157130654Y-74331488D01*
X158130654Y-75188630D02*
X158083035Y-75236250D01*
X158083035Y-75236250D02*
X157940178Y-75283869D01*
X157940178Y-75283869D02*
X157844940Y-75283869D01*
X157844940Y-75283869D02*
X157702083Y-75236250D01*
X157702083Y-75236250D02*
X157606845Y-75141011D01*
X157606845Y-75141011D02*
X157559226Y-75045773D01*
X157559226Y-75045773D02*
X157511607Y-74855297D01*
X157511607Y-74855297D02*
X157511607Y-74712440D01*
X157511607Y-74712440D02*
X157559226Y-74521964D01*
X157559226Y-74521964D02*
X157606845Y-74426726D01*
X157606845Y-74426726D02*
X157702083Y-74331488D01*
X157702083Y-74331488D02*
X157844940Y-74283869D01*
X157844940Y-74283869D02*
X157940178Y-74283869D01*
X157940178Y-74283869D02*
X158083035Y-74331488D01*
X158083035Y-74331488D02*
X158130654Y-74379107D01*
X158559226Y-75283869D02*
X158559226Y-74283869D01*
X159130654Y-75283869D02*
X158702083Y-74712440D01*
X159130654Y-74283869D02*
X158559226Y-74855297D01*
X156559226Y-72855000D02*
X156702083Y-72902619D01*
X156702083Y-72902619D02*
X156940178Y-72902619D01*
X156940178Y-72902619D02*
X157035416Y-72855000D01*
X157035416Y-72855000D02*
X157083035Y-72807380D01*
X157083035Y-72807380D02*
X157130654Y-72712142D01*
X157130654Y-72712142D02*
X157130654Y-72616904D01*
X157130654Y-72616904D02*
X157083035Y-72521666D01*
X157083035Y-72521666D02*
X157035416Y-72474047D01*
X157035416Y-72474047D02*
X156940178Y-72426428D01*
X156940178Y-72426428D02*
X156749702Y-72378809D01*
X156749702Y-72378809D02*
X156654464Y-72331190D01*
X156654464Y-72331190D02*
X156606845Y-72283571D01*
X156606845Y-72283571D02*
X156559226Y-72188333D01*
X156559226Y-72188333D02*
X156559226Y-72093095D01*
X156559226Y-72093095D02*
X156606845Y-71997857D01*
X156606845Y-71997857D02*
X156654464Y-71950238D01*
X156654464Y-71950238D02*
X156749702Y-71902619D01*
X156749702Y-71902619D02*
X156987797Y-71902619D01*
X156987797Y-71902619D02*
X157130654Y-71950238D01*
X157559226Y-72902619D02*
X157559226Y-71902619D01*
X157559226Y-71902619D02*
X157797321Y-71902619D01*
X157797321Y-71902619D02*
X157940178Y-71950238D01*
X157940178Y-71950238D02*
X158035416Y-72045476D01*
X158035416Y-72045476D02*
X158083035Y-72140714D01*
X158083035Y-72140714D02*
X158130654Y-72331190D01*
X158130654Y-72331190D02*
X158130654Y-72474047D01*
X158130654Y-72474047D02*
X158083035Y-72664523D01*
X158083035Y-72664523D02*
X158035416Y-72759761D01*
X158035416Y-72759761D02*
X157940178Y-72855000D01*
X157940178Y-72855000D02*
X157797321Y-72902619D01*
X157797321Y-72902619D02*
X157559226Y-72902619D01*
X158511607Y-72616904D02*
X158987797Y-72616904D01*
X158416369Y-72902619D02*
X158749702Y-71902619D01*
X158749702Y-71902619D02*
X159083035Y-72902619D01*
D14*
%TO.C,XA1*%
X174922129Y-63365952D02*
X174922129Y-62865952D01*
X174922129Y-62865952D02*
X175041177Y-62865952D01*
X175041177Y-62865952D02*
X175112605Y-62889762D01*
X175112605Y-62889762D02*
X175160224Y-62937381D01*
X175160224Y-62937381D02*
X175184034Y-62985000D01*
X175184034Y-62985000D02*
X175207843Y-63080238D01*
X175207843Y-63080238D02*
X175207843Y-63151666D01*
X175207843Y-63151666D02*
X175184034Y-63246904D01*
X175184034Y-63246904D02*
X175160224Y-63294523D01*
X175160224Y-63294523D02*
X175112605Y-63342143D01*
X175112605Y-63342143D02*
X175041177Y-63365952D01*
X175041177Y-63365952D02*
X174922129Y-63365952D01*
X175517367Y-62865952D02*
X175564986Y-62865952D01*
X175564986Y-62865952D02*
X175612605Y-62889762D01*
X175612605Y-62889762D02*
X175636415Y-62913571D01*
X175636415Y-62913571D02*
X175660224Y-62961190D01*
X175660224Y-62961190D02*
X175684034Y-63056428D01*
X175684034Y-63056428D02*
X175684034Y-63175476D01*
X175684034Y-63175476D02*
X175660224Y-63270714D01*
X175660224Y-63270714D02*
X175636415Y-63318333D01*
X175636415Y-63318333D02*
X175612605Y-63342143D01*
X175612605Y-63342143D02*
X175564986Y-63365952D01*
X175564986Y-63365952D02*
X175517367Y-63365952D01*
X175517367Y-63365952D02*
X175469748Y-63342143D01*
X175469748Y-63342143D02*
X175445939Y-63318333D01*
X175445939Y-63318333D02*
X175422129Y-63270714D01*
X175422129Y-63270714D02*
X175398320Y-63175476D01*
X175398320Y-63175476D02*
X175398320Y-63056428D01*
X175398320Y-63056428D02*
X175422129Y-62961190D01*
X175422129Y-62961190D02*
X175445939Y-62913571D01*
X175445939Y-62913571D02*
X175469748Y-62889762D01*
X175469748Y-62889762D02*
X175517367Y-62865952D01*
D10*
X174244000Y-83933380D02*
X174291619Y-83981000D01*
X174291619Y-83981000D02*
X174244000Y-84028619D01*
X174244000Y-84028619D02*
X174196381Y-83981000D01*
X174196381Y-83981000D02*
X174244000Y-83933380D01*
X174244000Y-83933380D02*
X174244000Y-84028619D01*
%TO.C,J5*%
X151862619Y-105902083D02*
X152576904Y-105902083D01*
X152576904Y-105902083D02*
X152719761Y-105949702D01*
X152719761Y-105949702D02*
X152815000Y-106044940D01*
X152815000Y-106044940D02*
X152862619Y-106187797D01*
X152862619Y-106187797D02*
X152862619Y-106283035D01*
X151862619Y-104949702D02*
X151862619Y-105425892D01*
X151862619Y-105425892D02*
X152338809Y-105473511D01*
X152338809Y-105473511D02*
X152291190Y-105425892D01*
X152291190Y-105425892D02*
X152243571Y-105330654D01*
X152243571Y-105330654D02*
X152243571Y-105092559D01*
X152243571Y-105092559D02*
X152291190Y-104997321D01*
X152291190Y-104997321D02*
X152338809Y-104949702D01*
X152338809Y-104949702D02*
X152434047Y-104902083D01*
X152434047Y-104902083D02*
X152672142Y-104902083D01*
X152672142Y-104902083D02*
X152767380Y-104949702D01*
X152767380Y-104949702D02*
X152815000Y-104997321D01*
X152815000Y-104997321D02*
X152862619Y-105092559D01*
X152862619Y-105092559D02*
X152862619Y-105330654D01*
X152862619Y-105330654D02*
X152815000Y-105425892D01*
X152815000Y-105425892D02*
X152767380Y-105473511D01*
%TO.C,J4*%
X129841666Y-86032619D02*
X129841666Y-86746904D01*
X129841666Y-86746904D02*
X129794047Y-86889761D01*
X129794047Y-86889761D02*
X129698809Y-86985000D01*
X129698809Y-86985000D02*
X129555952Y-87032619D01*
X129555952Y-87032619D02*
X129460714Y-87032619D01*
X130746428Y-86365952D02*
X130746428Y-87032619D01*
X130508333Y-85985000D02*
X130270238Y-86699285D01*
X130270238Y-86699285D02*
X130889285Y-86699285D01*
%TO.C,J3*%
X129841666Y-78407619D02*
X129841666Y-79121904D01*
X129841666Y-79121904D02*
X129794047Y-79264761D01*
X129794047Y-79264761D02*
X129698809Y-79360000D01*
X129698809Y-79360000D02*
X129555952Y-79407619D01*
X129555952Y-79407619D02*
X129460714Y-79407619D01*
X130222619Y-78407619D02*
X130841666Y-78407619D01*
X130841666Y-78407619D02*
X130508333Y-78788571D01*
X130508333Y-78788571D02*
X130651190Y-78788571D01*
X130651190Y-78788571D02*
X130746428Y-78836190D01*
X130746428Y-78836190D02*
X130794047Y-78883809D01*
X130794047Y-78883809D02*
X130841666Y-78979047D01*
X130841666Y-78979047D02*
X130841666Y-79217142D01*
X130841666Y-79217142D02*
X130794047Y-79312380D01*
X130794047Y-79312380D02*
X130746428Y-79360000D01*
X130746428Y-79360000D02*
X130651190Y-79407619D01*
X130651190Y-79407619D02*
X130365476Y-79407619D01*
X130365476Y-79407619D02*
X130270238Y-79360000D01*
X130270238Y-79360000D02*
X130222619Y-79312380D01*
%TO.C,J2*%
X129841666Y-68411369D02*
X129841666Y-69125654D01*
X129841666Y-69125654D02*
X129794047Y-69268511D01*
X129794047Y-69268511D02*
X129698809Y-69363750D01*
X129698809Y-69363750D02*
X129555952Y-69411369D01*
X129555952Y-69411369D02*
X129460714Y-69411369D01*
X130270238Y-68506607D02*
X130317857Y-68458988D01*
X130317857Y-68458988D02*
X130413095Y-68411369D01*
X130413095Y-68411369D02*
X130651190Y-68411369D01*
X130651190Y-68411369D02*
X130746428Y-68458988D01*
X130746428Y-68458988D02*
X130794047Y-68506607D01*
X130794047Y-68506607D02*
X130841666Y-68601845D01*
X130841666Y-68601845D02*
X130841666Y-68697083D01*
X130841666Y-68697083D02*
X130794047Y-68839940D01*
X130794047Y-68839940D02*
X130222619Y-69411369D01*
X130222619Y-69411369D02*
X130841666Y-69411369D01*
%TO.C,J1*%
X153654166Y-69522619D02*
X153654166Y-70236904D01*
X153654166Y-70236904D02*
X153606547Y-70379761D01*
X153606547Y-70379761D02*
X153511309Y-70475000D01*
X153511309Y-70475000D02*
X153368452Y-70522619D01*
X153368452Y-70522619D02*
X153273214Y-70522619D01*
X154654166Y-70522619D02*
X154082738Y-70522619D01*
X154368452Y-70522619D02*
X154368452Y-69522619D01*
X154368452Y-69522619D02*
X154273214Y-69665476D01*
X154273214Y-69665476D02*
X154177976Y-69760714D01*
X154177976Y-69760714D02*
X154082738Y-69808333D01*
D15*
%TO.C,J5*%
X155892500Y-106898750D02*
X153292500Y-106898750D01*
X158492500Y-104238750D02*
X158492500Y-105568750D01*
X155892500Y-104238750D02*
X155892500Y-106898750D01*
X155892500Y-104238750D02*
X153292500Y-104238750D01*
X153292500Y-104238750D02*
X153292500Y-106898750D01*
X157162500Y-104238750D02*
X158492500Y-104238750D01*
%TO.C,J4*%
X131505000Y-90170000D02*
X131505000Y-92770000D01*
X128845000Y-87570000D02*
X130175000Y-87570000D01*
X128845000Y-90170000D02*
X131505000Y-90170000D01*
X128845000Y-90170000D02*
X128845000Y-92770000D01*
X128845000Y-92770000D02*
X131505000Y-92770000D01*
X128845000Y-88900000D02*
X128845000Y-87570000D01*
%TO.C,J3*%
X131505000Y-82545000D02*
X131505000Y-85145000D01*
X128845000Y-79945000D02*
X130175000Y-79945000D01*
X128845000Y-82545000D02*
X131505000Y-82545000D01*
X128845000Y-82545000D02*
X128845000Y-85145000D01*
X128845000Y-85145000D02*
X131505000Y-85145000D01*
X128845000Y-81275000D02*
X128845000Y-79945000D01*
%TO.C,J2*%
X128845000Y-72548750D02*
X131505000Y-72548750D01*
X128845000Y-69948750D02*
X130175000Y-69948750D01*
X131505000Y-72548750D02*
X131505000Y-77688750D01*
X128845000Y-71278750D02*
X128845000Y-69948750D01*
X128845000Y-72548750D02*
X128845000Y-77688750D01*
X128845000Y-77688750D02*
X131505000Y-77688750D01*
%TO.C,J1*%
X152657500Y-71060000D02*
X153987500Y-71060000D01*
X155317500Y-73660000D02*
X155317500Y-91500000D01*
X152657500Y-72390000D02*
X152657500Y-71060000D01*
X152657500Y-73660000D02*
X152657500Y-91500000D01*
X152657500Y-91500000D02*
X155317500Y-91500000D01*
X152657500Y-73660000D02*
X155317500Y-73660000D01*
%TD*%
M02*
